<svg width="20" height="21" viewBox="0 0 20 21" fill="none" xmlns="http://www.w3.org/2000/svg">
<g opacity="0.5">
<g clip-path="url(#clip0_1322_24892)">
<path d="M3.45703 7.58256C3.64956 6.67016 4.05971 5.47318 4.33594 4.98769C4.56194 4.59427 4.80469 4.41849 5.2567 4.3599C5.89286 4.27619 7.31586 4.2176 9.90236 4.2176C12.4972 4.2176 13.9202 4.25945 14.548 4.3599C15 4.42686 15.2344 4.59427 15.4687 4.98769C15.7534 5.46481 16.1384 6.67016 16.356 7.58256C16.4314 7.89226 16.2974 8.00945 15.9794 7.99271C14.5899 7.90064 12.9325 7.81693 9.90236 7.81693C6.88058 7.81693 5.22321 7.90064 3.83371 7.99271C3.50726 8.00945 3.3817 7.89226 3.45703 7.58256ZM3.86719 13.7684C3.10547 13.7684 2.51953 13.1824 2.51953 12.4207C2.51953 11.6506 3.10547 11.0731 3.86719 11.0731C4.62891 11.0731 5.21484 11.6506 5.21484 12.4207C5.21484 13.1824 4.62891 13.7684 3.86719 13.7684ZM7.6925 13.4335C7.11496 13.4335 6.72154 13.0401 6.72154 12.4626C6.72154 11.8934 7.11496 11.5 7.6925 11.5H12.1206C12.6897 11.5 13.0831 11.8934 13.0831 12.4626C13.0831 13.0401 12.6897 13.4335 12.1206 13.4335H7.6925ZM15.9375 13.7684C15.1758 13.7684 14.5982 13.1824 14.5982 12.4207C14.5982 11.6506 15.1758 11.0731 15.9375 11.0731C16.7076 11.0731 17.2851 11.6506 17.2851 12.4207C17.2851 13.1824 16.7076 13.7684 15.9375 13.7684ZM9.90236 16.0284C12.7149 16.0284 16.4565 15.8861 18.0385 15.702C19.1769 15.5764 19.8047 14.9486 19.8047 13.8772V12.404C19.8047 10.9893 19.5201 10.2026 18.75 9.19806L18.0385 8.28568C17.7371 6.77899 17.1764 5.19695 16.8917 4.57754C16.4397 3.63166 15.5776 3.07084 14.4643 2.92017C13.9034 2.84483 12.0703 2.80298 9.90236 2.80298C7.74272 2.80298 5.9096 2.8532 5.34877 2.92017C4.23549 3.05409 3.36496 3.63166 2.92131 4.57754C2.62835 5.19695 2.07589 6.77899 1.76619 8.28568L1.06306 9.19806C0.284599 10.2026 0 10.9893 0 12.404V13.8772C0 14.9486 0.636161 15.5764 1.76619 15.702C3.35659 15.8861 7.08984 16.0284 9.90236 16.0284ZM1.11328 18.3303H2.09264C2.72042 18.3303 3.20591 17.8448 3.20591 17.2254V15.1411L0 13.6177V17.2254C0 17.8448 0.485492 18.3303 1.11328 18.3303ZM17.7121 18.3303H18.6998C19.3276 18.3303 19.8047 17.8448 19.8047 17.2254V13.6177L16.6071 15.1411V17.2254C16.6071 17.8448 17.0843 18.3303 17.7121 18.3303Z" fill="black"/>
</g>
</g>
<defs>
<clipPath id="clip0_1322_24892">
<rect width="19.8047" height="15.5609" fill="white" transform="translate(0 2.80298)"/>
</clipPath>
</defs>
</svg>
