<?xml version="1.0" encoding="UTF-8"?>
<svg xmlns="http://www.w3.org/2000/svg" viewBox="0 0 953.73 968.36">
  <defs>
    <style>
      .cls-1 {
        fill: #e2e7f0;
      }

      .cls-1, .cls-2, .cls-3, .cls-4, .cls-5 {
        stroke-width: 0px;
      }

      .cls-2 {
        fill: #666;
      }

      .cls-3, .cls-6 {
        opacity: .95;
      }

      .cls-3, .cls-4 {
        fill: #f2f7f8;
      }

      .cls-5 {
        fill: #828282;
      }
    </style>
  </defs>
  <g id="zoidovi_spoljasnji" data-name="zoidovi spoljasnji">
    <path class="cls-2" d="M594.73,683.76c.03.11,0,.23-.08.32l-19.65,20.56c-.07.07-.17.11-.26.11s-.18-.03-.25-.1l-2.52-2.4-131.64,137.78,2.52,2.4c.14.14.14.37.01.51l-18.32,19.18c-.07.07-.17.11-.26.11-.02,0-.04,0-.06-.01-.03,0-.05-.01-.08-.02-.04-.01-.08-.04-.11-.07l-.15-.14-2.37-2.26.5-.53.33-.34,15.09-15.79c.14-.15.13-.38-.01-.51l-18.31-17.49,61.18-64.04,6.8-7.11.24-.26.09-.09.5-.52,2.42,2.32.09.09s.06.07.07.11c.07.12.05.28-.06.39l-65.9,68.98,15.27,14.59,131.64-137.78-15.27-14.59-50.4,52.75c-.07.08-.17.11-.26.11-.05,0-.11-.01-.15-.03-.04-.02-.07-.04-.1-.07-.03-.03-.05-.06-.06-.09h-.02s-2.44-2.31-2.44-2.31l.5-.52.08-.09.25-.26s-.1.08-.16.09c-.03.02-.06.02-.1.02-.09,0-.18-.03-.25-.09l-.26-.25.5-.52,6.72-7.03,45.76-47.9c.13-.14.36-.14.51-.01l18.3,17.49,15.59-16.31.26.25c.07.07.16.1.25.1.08,0,.17-.03.23-.09l.03-.02.25-.26.02-.03.39-.4h0s.49-.53.49-.53h.01l2.37,2.27-.05.05c.07.01.14.04.19.09.06.05.1.12.1.19ZM379.78,268.33l.41-.43.5-.52-2.37-2.27-.15-.14s-.08-.06-.12-.07c-.02-.01-.04-.02-.06-.01h-.01c-.11-.03-.23.01-.32.1l-29.01,30.36c-.09.09-.12.21-.09.32,0,.02.01.05.02.07.02.05.05.09.08.12l.14.14,2.38,2.27.49-.52.34-.35,27.52-28.81.25-.26ZM300.25,346.53l.14.14,2.37,2.27.5-.52.25-.26,31.92-33.41.24-.26.5-.52-2.37-2.26-.07-.06-.07-.08c-.05-.06-.13-.09-.2-.09-.11-.03-.23.01-.31.1l-32.91,34.44c-.09.09-.12.21-.09.32,0,.02.01.05.02.07.01.04.04.08.08.12ZM147.13,506.78l.15.14,2.37,2.27.5-.52.25-.26,27.35-28.63.07-.07.16-.17.02-.02h0s.42-.44.42-.44l.49-.52-2.37-2.27-.14-.13c-.06-.06-.13-.09-.2-.09-.11-.02-.22.01-.31.1l-28.77,30.1c-.08.09-.11.22-.08.33,0,.07.04.13.09.18ZM351.24,938.31l-.14-.14-2.37-2.27-.5.52-.4.42v.02s-.03.02-.03.02l-.21.22-.03.03-15.99,16.73c-.07.08-.17.11-.26.11s-.18-.03-.25-.1l-18.57-17.74-11.19-10.69-66.2-63.25-11.11-10.61-102.46-97.91-11.2-10.69-66.11-63.17-11.19-10.69-18.66-17.83c-.14-.13-.15-.36-.01-.5l16-16.75.75-.78-2.38-2.26-.05.05c0-.07-.04-.14-.09-.19-.03-.03-.06-.05-.09-.06-.01-.01-.03-.01-.05-.02-.02-.01-.04-.01-.05-.01-.11-.02-.23.01-.32.1l-18.65,19.52c-.14.14-.13.37.01.51l21.43,20.47,279.47,267.02,21.34,20.39c.07.07.16.1.25.1s.19-.04.26-.11l19.07-19.95c.08-.09.11-.22.08-.33-.01-.07-.04-.13-.1-.18ZM54.29,603.96l.14.13,2.38,2.27.49-.52.25-.26,23.38-24.47.25-.26.49-.52-2.37-2.26-.05.05c0-.07-.04-.14-.09-.19-.06-.06-.13-.09-.2-.09-.11-.02-.22.01-.31.1l-24.37,25.51c-.09.09-.12.21-.09.32,0,.02.01.05.02.07.01.04.04.09.08.12ZM94.1,562.14s.03.06.06.09l.14.14,2.38,2.26.5-.52.24-.26,36.4-38.09.33-.35.5-.52-2.37-2.26-.05.05c-.01-.07-.05-.14-.1-.19s-.12-.08-.19-.09c-.11-.02-.23.01-.32.1l-37.47,39.22c-.09.09-.12.2-.08.32,0,.03,0,.07.03.1ZM745.13,35.19c0-.08-.02-.14-.06-.2-.06-.1-.17-.16-.29-.16l-16.88-.04V13.62h58.62v21.18s-19.68.03-19.68.03h-.01c-.12.01-.22.07-.28.16-.05.06-.07.13-.07.21v.19l.08,3.27v.03l.72.02h.15s.02.01.02.01h.32s.01-.01.01-.01l21.28-.06V13.29c.01-.2.17-.36.37-.36h18.95s-.01-3.26-.01-3.26v-.2l-.06-.2c-.2-.15-.25-.16-.3-.16l-21.13-.11c-.2,0-.36.16-.36.36v3.54h-58.61v-3.46c0-.1-.04-.19-.1-.26-.07-.07-.16-.1-.26-.1h-36.83c-.1-.01-.19.02-.26.09-.02.02-.03.04-.04.06-.04.06-.06.12-.06.2v3.49h.72s1,0,1,0l32.93.02c.2,0,.36.16.36.36v25.36s18.8-.01,18.8-.01h.02s.03-.01.05,0c0,0,.01-.01.02,0,.02-.01.05-.01.07,0h.81v-3.27s-.01-.2-.01-.2ZM654.13,9.16c-.06-.07-.15-.1-.25-.1l-31.57.04c-.1,0-.19.04-.26.11l-22.05,23.08c-.09.09-.12.21-.09.32,0,.02.01.05.02.07.01.04.04.09.08.12l.14.13,2.37,2.27.5-.52.42-.43.24-.26,20.07-21c.07-.07.16-.11.26-.11l28.68.02h1.55v-3.48c0-.07-.02-.14-.07-.2-.01-.02-.02-.04-.04-.06ZM409.02,877.83l-.14-.13-2.37-2.27-.48.49-.02.02h0s-.25.27-.25.27l-31,32.45-.25.26-.33.35-.5.52,2.37,2.26.15.14c.06.06.12.09.19.09.02.01.03.01.05.01.1,0,.19-.04.26-.11l32.34-33.84c.08-.09.11-.2.08-.32,0-.07-.04-.14-.1-.19ZM877.34,451.43v-.15s0-.04-.01-.05h-1.15v-.2h-.75l-32.12-.09h-.36c-.17,0-.31.12-.34.28.02.03.02.06.02.1v.35h-.73s-.07,3.35-.07,3.35v.19c0,.08.02.15.07.21,0,.02.02.04.03.05.07.07.16.11.26.11l34.88-.03h0c.09,0,.17-.04.23-.1.02-.02.04-.04.05-.06.05-.06.07-.13.07-.21v-.19l-.08-3.35v-.21ZM793.19,476.04c-.01-.07-.05-.13-.1-.18l-.14-.14-2.37-2.27-.26-.25s-.04-.03-.06-.04c-.14-.09-.34-.07-.45.06l-.21.21h.01s-.04.03-.05.05l-.25.26-.25.26-7.88,8.24h0s-.24.26-.24.26c-.03.03-.05.06-.07.1h-.01s-.17.16-.17.16l-.1.11-.04.05-.05.04-.14.15c-.1.1-.13.25-.07.38.01.05.04.09.08.13l.26.25,2.37,2.26.14.14c.06.06.13.09.2.09.02,0,.03,0,.05,0,.1,0,.19-.04.26-.11l9.45-9.89c.07-.07.1-.15.1-.24,0-.03,0-.05-.01-.08h0ZM768.2,502.06s-.03-.06-.06-.09l-.14-.13-2.38-2.27-.26-.25s-.07-.06-.12-.08c-.11-.04-.26-.02-.36.07l-.03.02-.02.03-.15.16-.07.07-.24.25-.02.02-.24.25-6.63,6.94-.24.25h-.01s-.01.03-.01.03l-.24.24.52.5-.5.52,2.37,2.27.15.14s.06.04.09.05c.03.02.06.03.09.03.02.02.05.02.07.02.09,0,.19-.04.26-.11l8.12-8.51c.09-.09.12-.2.08-.32,0-.03-.01-.07-.03-.1ZM457.4,182.34l2.37,2.27.5-.53.33-.34.32-.34.02-.02,27.1-28.36.25-.26.08-.09.5-.52-2.37-2.26-.14-.14c-.06-.06-.13-.09-.2-.09-.11-.02-.23.01-.31.1l-28.6,29.93c-.09.09-.12.21-.09.32.01.07.04.14.1.19l.14.14ZM403.13,238.86l.14.14,2.37,2.27.5-.53.41-.43.25-.26,26.84-28.08s0-.02.02-.03l.25-.26.41-.43.5-.53-2.37-2.26-.15-.14s-.07-.06-.11-.07c-.01,0-.02,0-.03,0h-.01s-.02-.01-.04-.01c-.11-.02-.23.01-.31.1l-28.69,30.02c-.08.09-.11.21-.09.33,0,.01.01.03.01.04.02.05.05.1.1.14ZM255.79,393.35l2.38,2.26.49-.51.42-.44.25-.26,27.68-28.98.75-.78-2.38-2.26-.07-.06-.07-.08c-.05-.05-.12-.08-.19-.09-.11-.03-.23.01-.32.1l-29.09,30.45c-.09.09-.12.21-.09.32.01.07.04.14.1.19l.14.14ZM201.29,449.95s.04.06.06.09l.14.14,2.38,2.26.49-.51.42-.44.25-.26,27.1-28.37.25-.26.34-.35.49-.52-2.37-2.27-.14-.13c-.06-.06-.13-.09-.2-.09-.11-.02-.23,0-.31.1l-28.85,30.19c-.09.09-.12.21-.09.32,0,.01,0,.02.01.03,0,.03,0,.05.03.07ZM551.2,83.72s.03.06.06.09l.15.14,2.37,2.27.75-.78,21.88-22.91.33-.35.33-.34.5-.52-2.37-2.27-.14-.14c-.06-.06-.13-.09-.2-.09-.11-.02-.22.01-.31.1l-23.3,24.38c-.09.09-.12.21-.08.32,0,.03.01.07.03.1ZM501.21,136.03s.04.07.07.1l.14.14,2.38,2.27.49-.53.08-.08.25-.26,33.41-34.97.25-.26.5-.52-2.38-2.26-.14-.14c-.05-.05-.12-.08-.19-.09-.11-.03-.23.01-.32.1l-34.49,36.09c-.06.07-.09.15-.09.23,0,.03,0,.06.01.09,0,.03.01.06.03.09ZM653.74,621.71l-.14-.14-2.38-2.27-.07-.06-.19-.19s-.02-.02-.04-.02c-.03-.04-.08-.06-.13-.06-.11-.03-.25,0-.34.1l-.41.43-.24.25h0s-.01.01-.01.01l-.5.52-31.34,32.79h0s.26.26.26.26c.14.13.15.36.01.5l-.23.24-.04.05-.39.4h0s-.5.53-.5.53l2.37,2.27.14.13c.06.06.13.09.2.09.02.01.03.01.05.01.1,0,.19-.03.26-.11l33.66-35.22c.07-.07.1-.17.1-.26,0-.03,0-.05-.01-.07-.01-.07-.05-.14-.1-.18ZM713.76,559.06l-.23-.22-2.37-2.27-.26-.25s-.03-.02-.05-.03c-.14-.1-.33-.08-.46.05h-.01l-.19.2h.01s-.04.04-.06.06l-.25.26-.25.26-32.58,34.09-.24.26s-.03.03-.04.05l-.05.04-.16.17-.1.1-.07.08-.16.17-.34.35c-.12.13-.13.34,0,.48h0v.02s.02,0,.03.01.02.02.02.03l.23.22,2.38,2.26.14.14s.12.08.19.09c.02.01.04.01.06.01.09,0,.19-.04.26-.11l34.57-36.01c.07-.07.11-.16.1-.26,0-.06-.02-.13-.06-.18-.01-.03-.03-.05-.05-.07ZM744.51,526.7l-.14-.14-2.37-2.26-.26-.25s-.06-.05-.1-.07c-.14-.06-.3-.03-.41.08l-.13.13-.12.13-.08.09h0l-.16.17-.08.09-.25.26-13.68,14.31-.22.24-.02.02h-.01s-.02.03-.02.03l-.06.06-.17.17-.08.09-.25.26c-.12.12-.13.32-.02.46,0,.02.02.04.03.05l.26.25,2.46,2.35.02-.02s0,.03,0,.04l.03.03c.07.07.16.1.25.1.04,0,.07,0,.11-.02h.01s.1-.05.14-.09l15.34-16.05c.06-.07.1-.16.09-.26,0-.02,0-.04-.01-.06-.01-.07-.05-.14-.1-.19ZM819.39,451.23v-.26s-.01-.01-.02-.01h-.35s-.37.01-.37.01l-7.36-.08s-.1.01-.14.03c-.04.02-.08.05-.12.08v.02s-4.97,5.19-4.97,5.19l-.5.52h-.01s-.12.15-.12.15l-.04.05-.06.05h-.02s-.01.03-.01.03h-.01c-.1.13-.1.3-.01.43.01.02.02.04.04.06l.26.25,2.37,2.27.23.22h.01s.04.03.06.04c.02.02.03.02.05.03.04.02.09.03.13.03.1,0,.19-.04.27-.12l4.37-4.74,6.71.1c.13,0,.23-.06.29-.16.05-.05.07-.12.07-.19v-.21l.07-3.31v-.39s.01-.06,0-.09h-.81ZM944.24,9.17c-.07-.06-.16-.1-.26-.1h-11.45s-.1.01-.14.03c-.05.02-.09.05-.12.08-.02.01-.03.03-.04.05-.04.06-.07.13-.07.2v3.51s-.01,1.13-.01,1.13v1.29s-.07,19.52-.07,19.52h-15.09c-.2.01-.36.17-.36.37v3.47h.35s.37-.02.37-.02h.31s.01-.01.01-.01l13.49-.05h.01l4.73.06.09-25.27s0-.04.01-.06c.02.16.17.3.35.3h4.73l.08,25.44-.1,122.39v264.04s.05,20.55.05,20.55v.13s0,.02,0,.02l.02,4.74h-23.28s-.01.01-.01.01h-3.11v.73h-.54s-.72.03-.72.03l.08,3.25v.21c0,.07.02.14.07.19,0,.02.02.04.03.05.01.01.03.02.04.03.06.05.14.08.22.08h30.04c.2,0,.36-.17.36-.37l.03-445.76c0-.1-.03-.19-.1-.26ZM863.19,13.05c.06.06.1.15.1.25v.13s.01.07,0,.09v25.15s12.19.05,12.19.05h1.24s.09-.03.14-.03l.34.02v-3.48c0-.2-.16-.36-.36-.36l-9.74-.02V15.42s.01-5.93.01-5.93c0-.08-.02-.14-.07-.2-.06-.1-.17-.16-.29-.16l-36.33-.02c-.13,0-.23.06-.29.16-.05.06-.07.12-.07.2v3.47h32.87c.1,0,.19.04.26.11ZM429.11,783.67l-14.58,15.27c-.07.07-.16.11-.26.11s-.19-.03-.25-.09l-15.19-14.52-10.61,11.11-.52-.5,10.61-11.1-4.68-4.47-10.61,11.1-.52-.5,10.61-11.1-4.69-4.48-10.61,11.1-.52-.49,10.61-11.11-4.68-4.47-10.61,11.1-.52-.5,10.6-11.1-15.18-14.51c-.14-.14-.15-.36-.01-.51l14.59-15.27-11.19-10.69.49-.52,11.19,10.69,4.49-4.69-11.2-10.69.5-.52,11.19,10.69,4.48-4.68-11.19-10.7.49-.51,11.19,10.69,4.48-4.69-11.19-10.69.5-.52,11.19,10.69,4.47-4.68-11.19-10.69.5-.52,11.19,10.69,4.48-4.69-11.19-10.69.49-.52,11.2,10.7,4.48-4.69-11.2-10.7.64-.66,14.55,5.22-10.22-9.76.5-.52,11.43,10.92s.04.04.06.06l10.37,9.91.67-.7c.14-.14.37-.15.51-.01l25.16,24.04c.14.14.15.37.01.51l-.66.69,10.41,9.95,11.45,10.95-.49.51-11.2-10.69-4.47,4.69,11.19,10.69-.5.52-11.19-10.69-4.48,4.68,11.2,10.7-.5.52-11.2-10.7-4.47,4.69,11.19,10.69,4.48-4.68-9.45,9.89,4.34-4.55-14.58-5.22,10.24,9.77-.5.52-11.19-10.7-4.48,4.69,11.19,10.69,4.48-4.68-14.92,15.62-11.2-10.7ZM445.28,789.16l-11.19-10.69-4.47,4.68,11.19,10.69,4.47-4.68ZM438.55,772.77l-10.16-9.71-4.48,4.69,10.16,9.7,4.48-4.68ZM439.06,773.26l-4.47,4.69,11.19,10.69,4.48-4.69-11.2-10.69ZM443.52,767.56l-10.16-9.7-4.31,4.51-.16.17,10.15,9.7,4.48-4.68ZM443.06,766.13l-5.27-12.91-3.93,4.12,9.2,8.79ZM444.39,766.65l4.1-4.3-10.15-9.7,5.81,14.25.24-.25ZM449.01,762.85l-4.1,4.29-.24.25,14.56,5.23-10.22-9.77ZM453.46,757.15l-10.15-9.7-4.48,4.68,10.16,9.7,4.47-4.68ZM458.44,751.94l-10.16-9.7-4.47,4.68,10.15,9.71,4.48-4.69ZM453.26,737.03l-4.48,4.69,10.15,9.7,4.48-4.69-10.15-9.7ZM423.94,717.35l-.31.33-.23.23-.27.29-4.48,4.69-.5.51-4.47,4.69-.51.53-4.47,4.68-.49.52-4.48,4.69-.5.52-4.47,4.68-.5.52-4.48,4.69-.5.51-4.06,4.26,4.25,4.06.52.5,4.69,4.47.52.5,4.68,4.48.52.5,4.69,4.47.52.5,4.25,4.06,4.06-4.25.5-.53,4.47-4.68.5-.52,5.14-5.38,4.31-4.51.5-.52,4.16-4.35h0s.32-.34.32-.34l.22-.23.27-.29,4.48-4.68.5-.52,4.47-4.69.5-.52,4.48-4.68.5-.53.41-.43-24.64-23.54-.41.44-.5.52-4.16,4.35ZM418.4,703.74l5.24,12.87,3.94-4.11-9.18-8.76ZM417.29,702.94l-4.34,4.54,10.15,9.7-5.81-14.24ZM412.44,706.98l4.33-4.54-14.56-5.23,10.23,9.77ZM407.97,712.69l10.16,9.7,4.48-4.69-10.16-9.7-4.48,4.69ZM403,717.89l10.16,9.7,4.47-4.68-10.15-9.7-4.48,4.68ZM398.03,723.1l10.15,9.7,4.47-4.68-10.15-9.7-4.47,4.68ZM393.05,728.31l10.15,9.7,4.48-4.69-10.15-9.7-4.48,4.69ZM388.08,733.51l10.15,9.7,4.48-4.68-10.15-9.7-4.48,4.68ZM383.11,738.72l10.15,9.7,4.48-4.69-10.15-9.7-4.48,4.69ZM392.97,758.27l-4.51-4.31c-.14-.14-.15-.37,0-.51l4.31-4.51-10.15-9.7-14.34,15.01,14.92,14.26,9.78-10.24ZM398.18,763.25l-4.69-4.48-9.78,10.24,4.69,4.47,9.78-10.23ZM403.38,768.22l-4.68-4.48-9.78,10.24,4.68,4.48,9.78-10.24ZM408.59,773.19l-4.68-4.47-9.79,10.24,4.69,4.47,9.78-10.24ZM428.6,783.18l-10.16-9.7-4.31,4.51c-.07.07-.16.11-.26.11-.09,0-.18-.03-.25-.1l-4.51-4.31-9.79,10.24,14.93,14.26,14.35-15.01ZM429.1,782.65l4.47-4.68-10.16-9.7-4.47,4.68,10.16,9.7ZM423.65,718.52l.41-.43.13-.14,4.34-4.54.25-.26c.14-.14.37-.15.51-.01l23.25,22.21c.15.14.15.37.02.51l-.25.27-4.48,4.68-.5.52-4.47,4.69-.5.52-4.48,4.68-.08.09-.41.43-.14.14-4.34,4.55-.5.52-4.58,4.79-.17.17-4.7,4.93-.5.52-4.47,4.68-.5.53-3.4,3.55c-.07.08-.17.11-.26.11s-.18-.03-.25-.1l-3.56-3.4-.52-.49-4.68-4.48-.52-.5-4.69-4.47-.52-.5-4.68-4.48-.52-.49-3.56-3.4c-.14-.14-.15-.37,0-.51l3.4-3.56.49-.52,4.48-4.69.5-.52,4.47-4.68.5-.52,4.48-4.69.5-.52,4.47-4.68.5-.53,4.48-4.68.49-.52,4.48-4.69.09-.09ZM419.41,724l-.08.08-4.95,5.18-4.97,5.21-4.98,5.21-4.97,5.2-4.97,5.21-3.4,3.56,3.55,3.39,5.21,4.98,5.17,4.94.05.05,5.19,4.95,3.56,3.4,3.4-3.55,4.97-5.21,4.98-5.21.14-.15h.01s4.82-5.05,4.82-5.05l4.93-5.16.03-.03.05-.05,4.94-5.17,4.97-5.2h.01s4.71-4.95,4.71-4.95l-22.73-21.72-4.68,4.9-.06.06-4.9,5.13ZM442.59,656.8l-.49-.47s.04-.07.07-.1l.33-.34.08-.08h.01s.02-.03.02-.03l.72-.76.1-.1.4-.42c.13-.15.36-.15.51,0l.32.3c-.06-.07-.09-.15-.09-.23,0-.09.04-.18.1-.25l.32-.33.1-.11.83-.86.08-.09.25-.26c.13-.14.36-.15.51-.01l3.79,3.62c.01-.08.04-.17.1-.23l37.39-39.13s.07-.06.11-.07l22.08,21.11s-.04.07-.07.1l-37.38,39.13c-.07.07-.17.11-.26.11s-.18-.03-.25-.1l-2.15-2.05c-.01.09-.04.17-.1.23l-.24.26h-.01s0,.01,0,.01l-.07.07h0s-.01.02-.01.02l-.8.84-.02.02s-.03.03-.05.04c-.01.01-.02.03-.03.04h-.01s-.33.35-.33.35c-.07.07-.16.11-.26.11-.04,0-.07-.01-.11-.02-.04-.01-.07-.03-.1-.06l.4.4c.14.14.15.36.01.51l-.32.33-.1,2.08.23.22c.14.14.15.37.01.51l-.08.09-1,1.04c-.07.07-.17.11-.26.11s-.18-.03-.25-.1l-2.25-2.15-14.84-14.18-2.26-2.15c-.14-.14-.15-.37-.01-.51l.5-.53-.09-.08.25-.26s.05-.06.07-.1c.06-.13.03-.3-.08-.41,0-.02-.03-.03-.05-.04-.01-.01-.02-.02-.03-.02l-5.23-5.01ZM450,664.88l-1.73-1.66-.25.26,1.74,1.66.24-.26ZM464.84,679.05l-14.31-13.67-.25.26,14.31,13.68h0s.25-.27.25-.27ZM466.5,677.32h.01s.02-.02.03-.03c.01-.02.01-.03.03-.04t0-.02s.03-.02.05-.04c.01-.01.02-.03.04-.04l.08-.09-.18-.16c-.07-.07-.11-.17-.11-.27l-6.72-6.43c-.01.08-.04.17-.1.23-.02.02-.03.03-.05.04-.01.02-.02.03-.03.05-.03.03-.07.06-.11.07l7.05,6.73ZM467.1,681.21l-1.74-1.66-.25.26,1.74,1.66.25-.26ZM467.24,680.35l.11-2.18-.4.42s-.07.06-.11.07c-.03.02-.07.03-.11.03-.01.01-.03.01-.04.01-.04,0-.09-.01-.13-.03-.05-.02-.09-.04-.12-.07-.01-.01-.03-.03-.04-.05,0-.02-.03-.04-.03-.06t-.01.02s-.03.03-.05.04c-.01.02-.02.04-.04.05l-.33.35s-.06.05-.1.07h.02s1.38,1.33,1.38,1.33v.15s0-.09.02-.13l-.02-.02ZM468.16,675.59l-7.1-6.79c0,.09-.03.17-.1.24,0,.02-.02.03-.04.05-.01.01-.02.03-.04.04-.03.03-.06.06-.1.07l6.68,6.39c.09-.02.19.01.27.09l.18.17s.03-.03.04-.04c0-.02.03-.03.04-.05.01-.01.02-.02.03-.02l.14-.15ZM452.53,656.34l3.21,3.06c.07.07.11.16.11.26,0,.09-.04.18-.1.25l-.5.52-.16.18,14.31,13.67.17-.17.49-.52c.14-.14.37-.15.51-.01l1.91,1.82,35.81-37.48-19.95-19.07-35.81,37.49ZM454.71,660.42l.03.03h0s-.02-.02-.03-.03ZM445.86,654.11l14.9,14.25c0-.09.03-.18.1-.25.14-.14.36-.14.51-.01l.15.14c0-.09.03-.16.1-.23l-6.96-6.64s-.04.07-.07.1c-.13.14-.36.15-.5.01l-.18-.17c-.08-.08-.11-.17-.11-.27l-7.61-7.27-.33.34ZM443.35,656.04l7.96,7.6h.02c.06-.01.19.04.26.1l.26.25c.15.14.15.37.01.51-.06.07-.14.1-.23.11l6.92,6.61s.03-.03.05-.04c.01,0,.02-.03.03-.05.06-.06.15-.1.23-.1l-.15-.15c-.14-.14-.14-.37,0-.51.03-.03.07-.06.11-.07l-15.21-14.52-.25.26ZM504.97,712.28c-.09,0-.18-.03-.25-.1l.44.42c.07.06.11.15.11.25s-.04.19-.1.26l-.33.33-.09,2.08.22.22c.15.14.15.37.02.51l-.09.09-.16.17-.33.35-.5.52c-.07.07-.17.11-.26.11s-.18-.03-.25-.1l-2.26-2.15-14.83-14.18-2.26-2.15h0c-.06-.06-.09-.13-.11-.21h0v-.08h0v-.03c.01-.07.05-.14.1-.2l.5-.52-.09-.08.25-.26s.05-.06.07-.1c.06-.13.03-.3-.08-.41l-5.31-5.07-.49-.47s.04-.07.07-.1l.32-.34.09-.09.75-.78s.02-.02.03-.02l.02-.03.03-.04.41-.43c.14-.15.37-.15.51-.02l.33.31c-.12-.14-.12-.35,0-.48l.32-.34.02-.02.06-.06.03-.04.81-.84.08-.08h.01s.24-.27.24-.27c.14-.14.37-.15.51,0l3.8,3.63c0-.09.03-.18.1-.24l37.39-39.13s.06-.06.1-.07l22.09,21.11s-.04.07-.07.1l-37.38,39.13c-.07.07-.16.11-.26.11h-.01c-.09,0-.18-.04-.24-.1l-2.15-2.06c0,.09-.04.17-.1.24l-.25.26s-.03.03-.05.04t-.01.02h0s-.01.02-.01.02c-.01,0-.01,0-.01,0h-.01s-.01.01-.01.02h0l-.79.83s-.01.01-.01.02c-.02,0-.03.03-.05.04-.01.01-.02.03-.04.05l-.02.02s-.01,0-.01.01h-.01l-.29.31c-.07.08-.16.11-.26.11ZM489.31,691.49l3.21,3.06c.15.14.15.37.02.51l-.5.52-.17.18,14.32,13.67.17-.17.49-.52c.14-.14.37-.15.51-.01l1.91,1.82,35.81-37.48-19.95-19.07-35.82,37.49ZM482.65,689.26l14.9,14.24c0-.09.03-.17.1-.24.13-.14.36-.15.5-.01l.16.15c0-.09.03-.17.1-.24l-6.96-6.65s-.04.08-.07.11c-.14.14-.36.14-.51.01l-.17-.17c-.07-.07-.11-.17-.11-.26l-7.62-7.28-.32.34ZM496.53,705.34c0,.09-.04.17-.1.24-.02.02-.04.03-.06.04,0,.02-.02.04-.03.05-.03.03-.06.05-.1.07l7.05,6.73.04-.03s.02-.03.03-.04t.01-.02s.03-.03.05-.04h.01s0-.01.01-.02h0s.01-.02.01-.02h0s.02-.03.02-.03h.01l.05-.06-.18-.17c-.08-.07-.11-.17-.11-.27l-6.72-6.43ZM488.1,698.79h.02c.07-.02.19.03.26.1l.35.33c.14.14.14.37.01.51-.07.07-.15.1-.23.11l6.83,6.53s.02-.02.04-.03h.01s.02-.04.03-.06c.06-.06.15-.1.23-.1l-.15-.15c-.14-.14-.15-.37-.01-.51.03-.03.06-.05.1-.07l-15.2-14.52-.25.26,7.96,7.6ZM486.79,700.03l-1.73-1.66-.25.26,1.73,1.66.25-.26ZM501.63,714.21l-14.31-13.68-.26.26,14.32,13.67.25-.25ZM503.88,716.36l-1.73-1.66-.25.26,1.74,1.66.24-.26ZM504.13,713.33l-.39.4s-.06.06-.1.07c-.02,0-.05.02-.07.02-.01.01-.03.01-.05.01-.06.02-.12.01-.17-.01-.04-.01-.08-.04-.12-.07l-.09-.08-.08.08-.31.32-.07.07-.03.04,1.38,1.32.1-2.17ZM504.94,710.74l-7.09-6.79c0,.09-.03.17-.1.24-.01.01-.02.03-.04.03,0,.02-.02.04-.04.06-.03.03-.06.05-.1.07l6.68,6.38c.1,0,.2.03.27.1l.18.17s.03-.03.04-.04c.01-.02.03-.04.04-.05h.01s.01-.01.01-.01l.14-.16Z"/>
  </g>
  <g id="zidovi_unutrasnji" data-name="zidovi unutrasnji">
    <path class="cls-5" d="M460.07,773.68l-4.34,4.55-10.24-9.77,14.58,5.22ZM442.59,655.8h-.01s.01,0,.01,0ZM941.11,446.24l.02,4.74h-23.28s-.01.01-.01.01h-3.11s.02-1.61.02-1.61v-.24l.04-2.68v-.2h0s0-.08.02-.11c0-.02.01-.04.02-.05,0-.01,0-.01.01-.02-.01-.01,0-.01.01-.02,0,0,.01-.02.02-.03l.02-.02c.06-.06.15-.1.26-.11l20.77-.06-.05-19.94-4.73-.02c-.2,0-.36-.16-.36-.36v-15.44c-.01-.1.03-.19.09-.26.07-.07.16-.11.26-.11h3.46l.04-90.69h-3.46c-.2,0-.36-.16-.36-.35l-.02-15.45c0-.1.04-.19.11-.26s.17-.12.26-.1l3.56.02-.04-44.66-62.7-.06c-.06,0-.11-.01-.16-.05-.05.04-.11.06-.18.06l-1.03.02-.17,2.14-.46,2.43-.63,2.41-1.16,2.31-1.23,2.16-1.6,2.04-1.78,1.69-2.03,1.59-2.12,1.34-2.32,1.01-2.39.75-2.49.49-1.49.09c-.06.07-.16.12-.26.13h-.69c-.1.01-.19-.03-.25-.09-.01,0-.02-.02-.03-.04h0c-.1-.06-.16-.16-.17-.28,0-.1.03-.18.09-.25l-.05-19.94-.99.02c-.06,0-.11-.01-.16-.04l-.05,23.24c.1.05.17.16.18.29l.02,1.19c.01.09-.03.18-.1.25-.06.07-.15.11-.25.11l-2.82.07.05.36c0,.1-.02.21-.09.29-.07.07-.17.12-.27.12h-17.67s.07,1.22.07,1.22l.47,2.22.72,2.15,1.05,2.14,1.29,1.88,1.55,1.8,1.69,1.45,1.87,1.29,2.1,1.03,2.19.78,2.33.44,2.31.11h3.14c.2.01.36.17.36.36l.03,1.36v.02s0,.08-.03.12c-.01.04-.03.07-.06.1-.02.03-.05.06-.08.07l.03,19.46,12.63-.04c.1,0,.18.08.18.19l.11,19.21c.05.06.08.14.09.22l.03,1.35c0,.1-.04.2-.11.27-.07.06-.16.1-.25.1h-.02l-2.84-.09v.48c.01.09-.03.19-.09.25-.07.07-.17.11-.26.11l-20.12.05.06,1.14.47,2.4.72,2.32.98,2.24,1.29,2.04,1.55,1.97,1.64,1.72,1.94,1.53,2.11,1.2,2.22,1.13,2.31.59,2.37.45,2.43.2c.11.01.21.07.26.16l2.93-.07c.2,0,.36.16.36.35l.04,1.36s0,.01-.01.02c0,.08-.03.16-.09.22-.01.03-.03.04-.05.06,0,0-.01.01-.02.01l-.02,80.59,15.02-.04v.58s.01.14.01.14h-.01l.02,2.94h0v1.52s0,.09,0,.09h-.72l-32.12-.09h-.36c-.17,0-.31.12-.34.28,0,0-.01,0-.01.01v-1.8s.04-3.03.04-3.03v-.2s0-.07.02-.1c.01-.03.02-.06.04-.08,0-.01,0-.01,0-.02.01-.02.02-.03.04-.05.03-.04.07-.06.11-.08.04-.02.09-.03.14-.03h.01l14.49-.03v-80.7c-.06-.04-.11-.1-.13-.17-.02-.03-.03-.07-.03-.11v-.03l-.03-1.02-2.14-.16-2.42-.46-2.42-.63-2.3-1.17-2.17-1.23-2.03-1.6-1.69-1.78-1.6-2.02-1.34-2.13-1.01-2.31-.75-2.4-.49-2.49-.07-1.31c-.08-.07-.13-.16-.14-.27l-.02-.85c0-.1.04-.19.11-.26.01-.02.03-.03.05-.04h.01c.05-.09.15-.15.26-.16.09,0,.18.03.25.09l19.94-.05-.02-.81c0-.1.04-.19.1-.26.02-.02.04-.04.07-.05l-.03-15.81-61.2.05-.02,89.62,5.05-2.17c.18-.08.39.01.47.19l5.02,11.77c.08.18,0,.4-.19.47l-3.72,1.6,7.85,18.63,8.26.02s.1,0,.14.03c.03.01.06.03.08.05.02.01.03.02.03.03.02,0,.01.01.01.01.02,0,.03.02.03.04l.07.19h0v.21l.02,2.99h.03s-.02,0-.03.01v1.6h-.34s-.37.01-.37.01l-7.36-.08s-.1.01-.14.03c-.04.02-.08.05-.12.08v.02s-4.97,5.19-4.97,5.19l-.5.52-.61-.58-.52-.5-2.2-2.1-.14-.13s-.06-.06-.07-.1c-.02-.03-.03-.06-.03-.09-.01-.03-.01-.06-.01-.09,0-.08.03-.16.09-.23l3.9-4.08-8.31-19.45-1.74.75s-.1.03-.14.03c-.05,0-.09-.01-.14-.03-.09-.04-.16-.11-.19-.19l-5.03-11.77c-.06-.16-.01-.35.14-.44l-.02-97.46-5.59-.04c-.2,0-.35-.16-.36-.36l-.02-13.3-35.24-.04-12.04,12.61,9.67,9.24c.06.06.1.15.11.25,0,.1-.04.19-.1.26l-8.04,8.41c-.08.08-.17.11-.27.11-.09,0-.17-.03-.24-.1l-9.67-9.23-15.37,16.08.04,1.66s.05.02.07.04c.07.07.11.16.11.25l.02,1.01,20.18.04h.04s.05.01.07.02c.06.01.12.05.17.09.05.06.09.15.09.24v.04l.02.64c0,.09-.03.17-.09.23l-.13,1.59-.46,2.43-.63,2.41-1.16,2.31-1.24,2.16-1.59,2.04-1.78,1.69-2.03,1.59-2.12,1.34-2.32,1.02-2.4.74-2.48.49-2.16.13.02,1.01h0c0,.08-.02.14-.06.19,0,.03-.02.05-.05.07-.06.07-.14.1-.23.11l-.12,39.12,68.49,65.43,3.93-4.12c.09-.09.2-.12.31-.1.03,0,.06.01.09.02.04.01.08.04.11.07l.14.14,2.2,2.1.52.5.61.58-.25.26-.25.26-7.88,8.24h0s-.24.26-.24.26c-.03.03-.05.06-.07.1h-.01s-.17.16-.17.16l-.61-.58-.5-.48-.02-.02-2.2-2.1-.14-.13s-.06-.06-.07-.1c-.02-.03-.03-.06-.03-.09-.01-.03-.01-.06-.01-.09,0-.08.03-.16.09-.23l1.95-2.04-69.53-66.44-.05-.04s-.03-.03-.04-.05c-.01-.02-.02-.04-.02-.06v-.03l.26-40.6h0c-.11-.07-.18-.18-.18-.31v-.02l.06-1.27c0-.19.16-.34.35-.35l3.21-.07h.02l2.44-.14,2.4-.48,2.32-.72,2.23-.97,2.05-1.3,1.97-1.55,1.72-1.63,1.53-1.95,1.19-2.1,1.13-2.22.6-2.32.45-2.36.11-1.36-20.17.04c-.1,0-.19-.04-.26-.11-.07-.08-.1-.18-.1-.28l.03-.37h-2.91c-.1-.01-.19-.05-.26-.12-.07-.07-.1-.17-.1-.27l.06-1.27c0-.12.06-.22.16-.28l.02-3.02s.02-.09.05-.13l16.37-17.13c-.03-.12,0-.24.08-.34l.45-.47-2.3-2.2s-.05.02-.07.02h-.01c-.09,0-.18-.03-.25-.1l-.87-.83c-.14-.13-.15-.36-.01-.51l1.91-1.99-.35-.33c-.14-.14-.15-.37-.01-.51l12.15-12.71-.9-.78-1.94-1.19-2.02-.95-2.26-.7-2.25-.36-2.34-.11-2.32.22-2.24.47-2.23.81-1.96,1.04-1.89,1.3-1.7,1.61c-.07.07-.16.1-.25.1l-1.98,2.06c-.07.08-.17.11-.26.11s-.18-.03-.25-.09l-.87-.83c-.09-.09-.13-.23-.1-.34l-14.7-14.05-20.26,21.21c-.05.05-.11.08-.17.09-.01.06-.04.12-.08.17l-.67.71,1.49,1.58,1.44,2.04,1.26,2.21.84,2.33.74,2.37.32,2.52.06,2.58-.2,2.5-.63,2.46-.72,2.32-1.16,2.29-1.33,2.1-1.12,1.3c0,.05-.04.1-.08.14l-.47.5-.02.02c-.07.07-.17.11-.26.11s-.18-.03-.25-.1l-14.58-13.93-.66.7s-.1.08-.16.09c-.01.06-.04.12-.09.17l-58.28,60.99,32.28,30.84,2.07-2.17c.14-.14.36-.15.51-.01l12.06,11.52c.07.07.11.16.11.25,0,.1-.03.19-.1.26l-1.99,2.08,66.55,63.58,1.99-2.08c.14-.14.36-.14.51-.01l9.37,8.95c.07.07.11.16.11.26,0,.09-.03.18-.1.25l-2.07,2.17,14.31,13.68,1.83-1.91c.09-.09.2-.12.31-.1.03,0,.06.01.09.02.04.01.08.04.11.07l.14.14,2.2,2.1.08-.09s-.05.06-.07.1l.51.49.6.58-.16.17-.08.09-.25.26-13.68,14.31-.22.24-.02.02h-.01s-.02.03-.02.03l-.06.06-.17.17-.6-.58h-.01l-.22-.21h0s-.28-.27-.28-.27h-.02s-2.19-2.11-2.19-2.11l-.15-.14s-.09-.12-.09-.19c-.04-.12-.01-.23.08-.32l8.46-8.85-14.32-13.68-2.07,2.17c-.07.07-.17.11-.26.11s-.18-.03-.25-.1l-9.37-8.95c-.07-.07-.11-.16-.11-.25,0-.1.03-.19.1-.26l1.99-2.08-62.69-59.89-44.05,46.11,11.45,10.94c.12-.04.24-.01.33.08l.61.58,13.93-14.58.08-.08c.14-.15.37-.15.51-.02l.61.58c.07.07.11.16.11.26,0,.03,0,.06-.01.08l.96,1.01,1.44,2.05,1.25,2.2.84,2.33.74,2.38.33,2.51.06,2.59-.2,2.5-.64,2.45-.71,2.33-1.16,2.28-1.33,2.1-1.47,1.69.8.76c.09.08.12.2.1.32l58.26,55.67,19.1-19.99c.07-.07.16-.11.25-.11.02,0,.04,0,.07.01.06.01.14.04.19.09l.15.14,2.19,2.1.52.5.61.58-.25.26-.25.26-32.58,34.09-.24.26s-.03.03-.04.05l-.05.04-.16.17-.61-.58-.5-.48-.02-.02-2.2-2.09-.14-.14s-.06-.06-.07-.1c-.02-.03-.03-.06-.03-.09-.01-.03-.01-.06-.01-.09,0-.08.03-.16.09-.23l11.48-12.01-58.26-55.67s-.06.02-.09.02c-.09,0-.18-.03-.25-.1l-.95-.91c-.07-.07-.11-.16-.11-.25,0-.1.03-.19.1-.26l2.05-2.15c-.01-.09.02-.18.09-.26l1.65-1.91,1.28-2.02,1.12-2.2.69-2.26.62-2.37.19-2.41-.06-2.5-.31-2.42-.72-2.3-.81-2.26-1.21-2.12-1.39-1.98-.86-.9-13.89,14.54c-.07.07-.16.11-.26.11-.09,0-.18-.04-.25-.1l-.35-.33-1.98,2.08c-.08.07-.17.11-.27.11-.09,0-.17-.03-.24-.1l-.87-.83c-.07-.06-.11-.16-.11-.25,0-.03,0-.05.01-.08l-24.99-23.88s-.05.02-.08.02c-.09,0-.18-.03-.25-.1l-.96-.91c-.07-.07-.11-.16-.11-.25,0-.1.03-.19.1-.26l2.23-2.33h.01s1.56-1.82,1.56-1.82l1.19-1.93.96-2.02.69-2.26.36-2.26.11-2.33-.22-2.32-.47-2.25-.81-2.22-1.04-1.97-1.29-1.88-.86-.91-12.15,12.72c-.07.07-.17.11-.26.11s-.18-.03-.25-.1l-.26-.25-1.99,2.08c-.07.08-.17.12-.26.12s-.18-.04-.25-.1l-.96-.92c-.07-.06-.11-.15-.11-.25,0-.02,0-.05,0-.07l-3.42-3.28c-.08-.07-.08-.19-.01-.27l9.65-10.1-16.26-15.54-11.39,11.93s-.1.08-.16.09c-.01.06-.04.12-.09.17l-.67.7,1.5,1.58,1.44,2.05,1.25,2.2.84,2.33.74,2.38.33,2.52.06,2.58-.2,2.5-.64,2.45-.71,2.33-1.17,2.28-1.32,2.1-1.12,1.29h0c-.02.06-.05.11-.08.15l-.49.51c-.07.08-.17.12-.27.12-.09,0-.17-.03-.24-.09h-.01s-14.58-13.93-14.58-13.93l-.66.69s-.1.08-.16.09c-.01.06-.04.12-.09.17l-31.99,33.49,32.27,30.84,2.07-2.17c.14-.14.37-.15.51-.01l12.14,11.43c.07.07.11.16.12.26,0,.09-.04.19-.1.26l-2.16,2.25,66.55,63.58,2.07-2.17c.14-.14.36-.14.51-.01l9.37,8.96c.07.06.11.15.11.25,0,.09-.03.19-.1.26l-2.07,2.17,14.31,13.67,11.36-11.88c.09-.1.21-.13.32-.1h.01c.07,0,.13.04.18.08l.15.14,2.19,2.1.52.5.61.58-.5.52-31.34,32.79-.86-.82c-.14-.14-.37-.13-.51.01l-.25.26-2.2-2.1-.14-.14s-.05-.06-.06-.09c-.02-.02-.03-.04-.03-.07,0,0,0-.02,0-.03-.03-.11,0-.23.09-.32l16.66-17.44-14.32-13.67-2.07,2.16c-.07.08-.16.12-.26.12-.09,0-.18-.04-.25-.1l-9.37-8.96c-.14-.13-.15-.36-.01-.51l2.07-2.17-66.54-63.58-2.08,2.17c-.07.07-.16.11-.26.11-.09,0-.18-.03-.25-.1l-12.06-11.52c-.14-.14-.14-.36-.01-.51l2.08-2.17-32.28-30.84-4.31,4.52h-.01l-27.51,28.8c-.05.05-.11.08-.17.09-.01.07-.04.12-.08.17l-.66.69,14.57,13.93h.01s.05.08.07.12c.02.03.02.06.02.1.01.02.01.04.01.06v.02s-.01.07-.03.11c-.02.04-.05.08-.08.11l-.57.6s-.09.07-.15.09l-1.11,1.05-2.04,1.44-2.21,1.26-2.33.84-2.38.74-2.51.32-2.58.06-2.51-.2-2.45-.64-2.32-.71-2.29-1.16-2.1-1.33-1.68-1.46-.76.79s-.11.09-.17.09c-.01.06-.04.12-.08.17l-11.4,11.93,14.18,13.55,9.57-10.02c.08-.07.19-.08.27-.01l.26.25,1.82,1.74.26.25c.08.07.08.19.01.27l-6.08,6.36c.06.02.11.05.15.09l.96.91c.06.07.1.16.11.25,0,.1-.04.19-.1.26l-1.91,2,.26.24c.07.07.11.16.11.26,0,.09-.03.19-.1.25l-12.15,12.72.99.85,1.93,1.2,2.03.95,2.26.69,2.25.36,2.34.11,2.32-.22,2.24-.47,2.23-.8,1.96-1.05,1.89-1.29,1.67-1.59s0-.01,0-.02l2.16-2.25c.14-.14.37-.15.51-.01l.95.91c.1.09.13.22.1.34l11.34,10.82c.14-.1.32-.09.45.03l77.39,73.94,14.58,13.93,12.26-12.84s.06-.06.1-.07c.03,0,.07-.02.11-.03.04-.02.08-.01.11,0,.02,0,.04,0,.05.01.02,0,.04.01.05.02.03.01.06.03.09.06l.07.08.07.06,2.2,2.1.53.49.6.58-.49.52-15.59,16.31-18.3-17.49c-.15-.13-.38-.13-.51.01l-45.76,47.9-6.72,7.03-.5.52-.6-.58-.52-.49h0s-2.21-2.12-2.21-2.12l-.14-.13s-.02-.02-.03-.04c-.05-.06-.08-.14-.08-.22,0-.05.01-.09.03-.14.02-.04.04-.08.07-.11.01-.01.03-.03.05-.04l.04-.05,6.62-6.94-4.85-4.64c-.15-.14-.15-.37-.01-.51l3.31-3.47-.08-.08.33-.35.16-.17.35.33,4.86,4.64,41.69-43.64-4.78-4.57-22.09-21.11-5.75-5.49-41.69,43.64,1.4,1.34.49.47,5.31,5.07c.11.11.14.28.08.41-.02.04-.04.07-.07.1l-.25.26-3.32,3.47c-.07.08-.16.11-.26.11-.09,0-.18-.03-.25-.1l-16.31-15.58c-.14-.14-.15-.37-.01-.51l2.82-2.95,1-1.04.26.25,4.94,4.72,41.7-43.64-4.79-4.57-22.08-21.11-5.75-5.49-41.7,43.64,1.4,1.34.49.47,5.23,5.01s.02.01.03.02c.02.01.04.02.05.04.11.11.14.28.08.41-.02.04-.04.07-.07.1l-.25.26-3.31,3.47c-.07.08-.17.12-.26.12s-.18-.04-.25-.1l-11.19-10.7-44.97-42.96s-.03.08-.06.11l-.58.61,10.22,9.78s.03.02.04.03c.02.01.04.03.06.05.01,0,.01,0,.02.02.04.04.07.09.09.14.03.06.04.12.04.19s-.01.13-.04.19c-.02.06-.06.11-.11.16l-.25.23-.21.19h0s-1.03.97-1.03.97l-1.82,1.19-1.97,1.01-2.01.66-2.2.33-2.09.05-2.18-.21-2.05-.57-2.04-.91-.31-.18,1.11,1.49,1.45,2.56,1.18,2.65.93,2.73.5,2.86.32,2.83-.1,2.96-.36,2.85-.72,2.71-.96,2.77-1.33,2.64-1.59,2.37-1.84,2.29s-.01.02-.02.03l-.03.03-.31.31c-.09.1-.22.15-.34.15s-.24-.04-.33-.13l-18.31-17.49-.58.6s-.1.08-.15.1l1.07,1.02.17.16h0s43.48,41.55,43.48,41.55c.13-.1.33-.09.45.03l3.73,3.56c.15.14.15.37.02.51l-.13.13-.29.31-.5.52-4.33,4.54-.64.66-4.48,4.69-.49.52-4.48,4.69-.5.52-4.47,4.68-.5.52-4.48,4.69-.49.51-4.48,4.69-.5.52-4.48,4.69-.49.52-6.83,7.15-18.62,19.48,20.08,19.18,6.56,6.27.52.5,4.68,4.48.52.49,4.69,4.48.52.5,4.68,4.47.52.5,12.15,11.6,14.49,13.85,21.34-22.33,4.11-4.3,14.92-15.62.5-.52,9.45-9.89.5-.52,4.47-4.69.5-.52,4.48-4.69.49-.51.42-.44,2.6-2.72,4.11-4.31.08-.08s.06-.06.1-.08h.01c.09-.04.2-.05.28-.01.03.01.06.02.08.05.01,0,.03.01.04.02l.14.14.12.11,2.09,1.99h0s.52.5.52.5l.6.59.26.24c.1.09.13.22.1.34-.01.06-.04.12-.08.17l-6.8,7.11-61.18,64.04,18.31,17.49c.14.13.15.36.01.51l-15.09,15.79c-.06.06-.14.1-.23.1-.01.01-.02.01-.03.01-.09,0-.18-.04-.25-.1l-.26-.25-.61-.58-.5-.48-.02-.02-2.2-2.1-.14-.14s-.05-.06-.07-.1c-.01-.03-.02-.05-.02-.08-.02-.04-.02-.09-.01-.13,0-.03,0-.06.02-.09.01-.04.04-.08.07-.11l11.27-11.8-14.57-13.92-69.37-66.27-44.13,46.19,10.31,9.86c.12-.03.25,0,.34.08l.7.67,13.94-14.59.07-.08c.13-.14.36-.14.51,0l.52.5c.07.07.11.16.11.25,0,.02,0,.05-.02.07l1.05,1.11,1.44,2.05,1.26,2.2.84,2.33.74,2.38.32,2.51.06,2.59-.2,2.5-.63,2.45-.72,2.32-1.16,2.29-1.33,2.1-1.45,1.69.7.67c.09.09.13.22.1.33l56.44,53.93,16.28-17.04c.09-.1.21-.13.32-.1h.01c.07,0,.13.04.18.08l.14.14,2.2,2.1.52.5.61.58.26.25.26.24h0s-.25.27-.25.27l-31,32.45c-.05.05-.1.08-.16.09-.03.01-.07.02-.1.02-.09,0-.18-.03-.25-.1l-.26-.25-.61-.58-.52-.5-2.2-2.1-.14-.13s-.06-.06-.07-.1c-.02-.03-.03-.06-.03-.09-.03-.11,0-.23.09-.32l12.3-12.88-56.44-53.93s-.06.02-.09.02c-.09,0-.17-.03-.24-.1l-.87-.83c-.15-.14-.15-.36-.01-.51l1.97-2.06c-.01-.09.01-.19.08-.27l1.66-1.9,1.28-2.02,1.12-2.21.68-2.25.63-2.37.18-2.41-.06-2.5-.3-2.42-.72-2.3-.81-2.26-1.22-2.12-1.38-1.98-.95-.99-13.89,14.54c-.07.07-.16.11-.25.11h-.01c-.09,0-.18-.03-.25-.1l-.26-.25-1.91,2c-.07.07-.16.11-.26.11-.09,0-.18-.03-.25-.1l-.95-.91c-.07-.07-.11-.16-.11-.25,0-.03,0-.06.01-.08l-12.79-12.23c-.08-.07-.08-.19,0-.26h0s10.48-10.98,10.48-10.98l-14.83-14.17s-.06.02-.09.02c-.09,0-.18-.03-.25-.1l-.95-.91c-.14-.14-.15-.36-.01-.51l2.2-2.3s.01-.02.02-.03l1.57-1.82,1.2-1.93.95-2.02.69-2.26.36-2.25.12-2.34-.23-2.32-.47-2.25-.8-2.22-1.04-1.97-1.3-1.88-.86-.9-12.15,12.71c-.07.07-.16.11-.26.11-.09,0-.18-.03-.25-.1l-.26-.25-1.99,2.08c-.06.07-.15.11-.25.12h-.01c-.09,0-.18-.04-.25-.1l-.95-.92c-.09-.08-.12-.2-.1-.32l-18.9-18.07c-.02.06-.05.12-.09.16l-.66.69,14.66,13.84c.07.06.11.16.11.25,0,.1-.03.19-.1.26l-.1.1-.48.51s-.07.06-.12.08h-.02s-1.2,1.15-1.2,1.15l-2.05,1.44-2.21,1.25-2.33.84-2.37.74-2.52.32-2.58.07-2.5-.21-2.45-.63-2.33-.72-2.29-1.15-2.09-1.33-1.69-1.47-.68.71s-.1.08-.16.09c-.01.06-.04.12-.09.17l-5.05,5.29c-.07.07-.16.11-.25.12h-.01c-.1,0-.18-.04-.25-.1l-33.15-31.67-40.61,42.51,65.67,62.76,3.32-3.47c.14-.15.36-.15.51-.02l11.1,10.62c.07.06.11.15.12.25,0,.09-.04.19-.1.25l-2.49,2.61,65.68,62.75,2.49-2.6c.06-.07.15-.11.25-.11.09,0,.19.03.25.1l11.2,10.69c.14.14.15.37.01.51l-3.32,3.47,14.32,13.68,12.19-12.76c.08-.09.2-.12.31-.09h.01c.07,0,.13.04.18.08l.15.14,2.2,2.1.52.5.6.58h.01l.25.25h.01s.06.08.08.12c.03.07.03.15,0,.22,0,.06-.03.1-.06.15l-.03.03-15.99,16.73c-.07.08-.17.11-.26.11s-.18-.03-.25-.1l-18.57-17.74-11.19-10.69-66.2-63.25-11.11-10.61-102.46-97.91-11.2-10.69-66.11-63.17-11.19-10.69-18.66-17.83c-.14-.13-.15-.36-.01-.5l16-16.75.25-.26.09.09.17.16.26.25.61.58.07.07.45.42h0s2.2,2.11,2.2,2.11l.14.13s.09.12.1.19c.03.12,0,.23-.09.32l-12.18,12.76,14.4,13.76,3.31-3.47c.14-.15.37-.15.51-.01l11.2,10.69c.14.14.14.36.01.51l-2.49,2.6,65.59,62.67,2.49-2.6c.14-.14.37-.15.51-.01l11.19,10.69c.07.07.11.16.11.25,0,.1-.03.19-.1.26l-3.31,3.47,32.27,30.84,44.19-46.25c.06-.06.14-.1.23-.1,0-.09.03-.17.1-.24l.67-.71-1.5-1.58-1.44-2.04-1.25-2.21-.84-2.33-.74-2.38-.32-2.51-.07-2.58.2-2.51.64-2.45.71-2.32,1.17-2.29,1.32-2.1,1.03-1.19c-.03-.12,0-.24.09-.33l.49-.52c.07-.07.16-.11.26-.11.09-.01.18.03.25.1l.06.06s.01,0,.02,0t.02.02s.01.01.01.02l14.56,13.9.66-.7c.05-.05.1-.08.16-.09h0s.01-.05.02-.07c.02-.04.04-.07.07-.1l1.69-1.77-18.69-17.86h-.01s-.05.01-.08.01c-.09,0-.18-.03-.25-.1l-.87-.83c-.07-.06-.11-.15-.11-.25,0-.09.03-.19.1-.26l1.9-1.99-.34-.33c-.07-.07-.11-.16-.11-.26,0-.09.03-.18.1-.25l12.14-12.72-.89-.77-1.94-1.19-2.02-.95-2.26-.7-2.25-.36-2.34-.11-2.32.22-2.24.48-2.23.8-1.96,1.04-1.89,1.3-1.7,1.61c-.07.07-.16.1-.25.1h-.01l-1.97,2.06c-.07.07-.16.11-.25.12h-.01c-.09,0-.18-.04-.25-.1l-.87-.83c-.09-.09-.13-.22-.1-.33h0s-1.29-1.24-1.29-1.24l-10.57,11.05s-.08.06-.13.06-.09-.02-.13-.05l-.17-.17-1.91-1.82-.18-.17c-.07-.07-.07-.19,0-.26l10.56-11.06-19.25-18.39-10.56,11.06s-.09.05-.14.05-.09,0-.13-.05l-3.51-3.36s-.06.02-.09.02c-.09,0-.18-.03-.25-.1l-.95-.91c-.07-.07-.11-.16-.11-.25-.01-.1.03-.19.1-.26l1.98-2.08-.26-.25c-.14-.14-.14-.37-.01-.51l13.89-14.54-1.07-.93-2.03-1.28-2.2-1.12-2.25-.69-2.37-.62-2.41-.19-2.51.06-2.41.31-2.3.72-2.26.81-2.12,1.21-1.98,1.39-1.78,1.7c-.07.07-.16.1-.25.1h-.01l-2.06,2.15c-.06.07-.15.11-.25.11h-.01c-.09,0-.18-.03-.25-.1l-.95-.91c-.09-.09-.13-.22-.1-.33l-57.74-55.17-12.39,12.96c-.07.08-.16.12-.26.12-.02,0-.04,0-.06-.01-.07,0-.14-.04-.19-.09l-.14-.14-2.2-2.1-.35-.33-.17-.17-.61-.58-.26-.25-.07-.07-.19-.18.25-.26,23.38-24.47.25-.26.52.5.6.58.53.5,2.19,2.1.15.14s.09.12.09.19c.04.11,0,.23-.08.32l-8.49,8.89,57.74,55.17c.11-.04.24-.01.33.08l.8.76,1.58-1.51,2.04-1.44,2.21-1.25,2.33-.84,2.37-.74,2.52-.33,2.58-.06,2.5.2,2.46.64,2.32.71,2.29,1.17,2.1,1.32,1.3,1.12s.1.05.14.08l.51.49c.15.13.16.36.03.51h-.01s-13.93,14.59-13.93,14.59l.7.66c.07.06.11.15.11.25,0,.03,0,.06-.02.08l1.04.99,10.48-10.97c.07-.08.19-.08.27,0l10.7,10.24,33.45-35.01-62.68-59.88-2.07,2.16c-.07.07-.16.11-.25.12h-.01c-.1,0-.18-.04-.25-.1l-9.28-8.87c-.15-.14-.15-.37-.02-.51l2.08-2.17-14.41-13.76-19.06,19.95c-.07.07-.17.11-.26.11-.02,0-.04,0-.06-.01-.07-.01-.14-.04-.19-.09l-.15-.14-2.2-2.1-.37-.36-.15-.13-.6-.58-.52-.5.24-.26,36.4-38.09.33-.35c-.07.07-.1.16-.1.25s.04.19.11.26l.25.24.62.59.26.25c.07.06.15.1.25.1h.01s.1-.01.15-.04c.04-.02.07-.04.1-.07l-.08.09,2.2,2.09.14.14s.05.06.06.09c.02.03.03.07.03.1.04.12.01.23-.08.32l-13.43,14.06,14.4,13.76,2.07-2.17c.07-.07.16-.11.26-.11.08,0,.18.03.25.1l9.29,8.87c.14.14.15.36.01.51l-2.07,2.17,62.68,59.89,44.14-46.2-11.36-10.86s-.05.02-.08.02h-.01c-.1,0-.18-.03-.25-.1l-.7-.66-13.9,14.54h0s-.02.04-.03.05-.02.01-.03.02h-.01l-.04.05c-.07.07-.16.11-.26.11-.08,0-.17-.03-.24-.1l-.61-.58c-.07-.06-.11-.15-.11-.25,0-.03,0-.05.01-.08l-.96-1.01-1.44-2.05-1.26-2.21-.84-2.33-.74-2.37-.32-2.52-.06-2.58.2-2.5.63-2.45.72-2.33,1.16-2.29,1.33-2.09,1.46-1.69-.79-.76c-.1-.09-.13-.21-.1-.33l-58.26-55.67-14.13,14.79c-.07.07-.17.11-.26.11-.02,0-.04,0-.06-.01-.02,0-.04,0-.05-.01-.02,0-.03,0-.05-.02-.03-.01-.06-.03-.09-.06l-.15-.14-2.19-2.1-.52-.49-.61-.58-.52-.5.25-.26,27.35-28.63.05-.05.02-.02s.03-.01.04-.01c.02-.01.04-.02.05-.02.1-.03.2-.02.28.04.03.01.05.02.07.04l.04.04.22.21.61.58.09.08.43.42,2.2,2.1.14.14s.07.08.08.12c0,.02.02.04.02.07.03.11,0,.23-.09.32l-10.73,11.23,58.27,55.67c.12-.04.24-.01.33.08l.96.91c.07.06.11.15.11.25s-.04.19-.1.26l-2.06,2.15c.01.09-.01.18-.08.26l-1.66,1.91-1.27,2.02-1.13,2.2-.68,2.25-.62,2.38-.19,2.4.06,2.51.31,2.42.71,2.3.82,2.25,1.21,2.13,1.38,1.97.87.91,13.89-14.54c.13-.14.36-.15.5-.01l.35.33,1.99-2.08c.07-.07.16-.11.25-.11s.19.03.26.1l.95.91c.1.09.13.22.1.34l24.99,23.87s.08-.02.12-.02c.07.01.16.04.22.1l.86.83c.15.13.15.36.02.51l-2.06,2.15c0,.09-.02.19-.08.26l-1.58,1.82-1.19,1.93-.95,2.02-.69,2.26-.37,2.26-.11,2.33.23,2.32.47,2.25.8,2.22,1.04,1.97,1.3,1.88.77.82,12.15-12.71c.14-.14.37-.15.51,0l.35.33,1.99-2.08c.06-.07.15-.11.25-.12.09,0,.19.04.25.11l.96.91c.09.08.12.2.1.32l3.34,3.2c.07.07.08.19,0,.27l-9.65,10.09,16.35,15.63,11.39-11.93c.05-.04.1-.07.16-.09,0-.01.01-.01.01-.01h0s.01-.02.01-.02c0-.02,0-.05.03-.07.01-.03.02-.05.04-.07l.76-.79-1.5-1.58-1.44-2.04-1.26-2.21-.84-2.33-.74-2.38-.32-2.51-.06-2.58.2-2.51.63-2.45.72-2.32,1.16-2.29,1.33-2.1,1.03-1.19s-.02-.05-.02-.07c0-.1.04-.19.1-.26l.5-.52c.14-.14.37-.15.51-.01l.07.07,14.59,13.93.66-.69s.1-.08.17-.09c.01-.07.04-.12.08-.17l31.84-33.32-32.28-30.83-1.99,2.08c-.07.07-.16.11-.25.11h-.01c-.09,0-.18-.04-.25-.1l-12.14-11.61c-.15-.13-.15-.36-.02-.51l1.99-2.08-66.54-63.58-1.99,2.08c-.08.08-.17.11-.26.11s-.18-.03-.25-.1l-9.29-8.87c-.07-.06-.11-.15-.11-.25,0-.09.04-.19.1-.26l1.99-2.08-14.4-13.76-12.02,12.58c-.07.07-.16.11-.25.11h-.01s-.04,0-.06-.01c-.07-.01-.14-.04-.19-.09l-.14-.14-2.2-2.09-.34-.33-.18-.17-.61-.58-.22-.21-.04-.04c-.1-.09-.13-.22-.1-.34.01-.06.04-.12.09-.17l27.1-28.37c.05-.05.11-.08.17-.09.12-.04.24-.01.33.07h.01s.26.25.26.25h0s.61.59.61.59l.13.13.39.36,2.2,2.1.14.14s.06.06.07.1c.02.03.03.06.03.09.01.03.01.06.01.09,0,.09-.03.17-.09.23l-11.19,11.71,14.4,13.76,2.07-2.16c.14-.15.37-.15.51-.02l9.28,8.87c.07.07.11.16.11.26,0,.09-.03.18-.1.25l-2.07,2.17,66.55,63.58,2.07-2.16c.14-.15.37-.15.51-.02l12.15,11.61c.14.14.15.36.01.51l-2.07,2.17,32.27,30.84,31.92-33.41s.1-.08.16-.09c.01-.06.04-.12.09-.17l.75-.79-1.5-1.58-1.44-2.05-1.25-2.2-.84-2.33-.74-2.38-.32-2.51-.07-2.59.2-2.5.64-2.45.71-2.32,1.17-2.29,1.32-2.1.95-1.1c-.03-.11,0-.24.08-.34l.58-.6c.07-.07.16-.11.26-.11.09-.01.18.03.25.09l.08.08,14.59,13.93.58-.6c.06-.06.14-.1.23-.1,0-.09.03-.18.1-.25l11.39-11.93-16.35-15.62-9.65,10.11s-.09.05-.14.05c-.04,0-.09-.01-.13-.05l-3.34-3.19s-.05.02-.08.02c-.1,0-.19-.04-.25-.1l-.96-.91c-.14-.14-.15-.37-.01-.51l1.99-2.09-.35-.33c-.06-.06-.1-.15-.11-.25,0-.09.04-.19.1-.26l12.15-12.71-.9-.77-1.93-1.19-2.03-.96-2.26-.69-2.25-.36-2.34-.11-2.32.22-2.24.47-2.22.8-1.97,1.05-1.89,1.29-1.7,1.62c-.07.07-.16.1-.24.1h-.01l-2.06,2.15c-.06.07-.16.11-.25.11h-.01c-.09,0-.18-.04-.25-.1l-.87-.83c-.09-.09-.12-.22-.09-.34l-24.99-23.87s-.05.02-.08.02h-.01c-.09,0-.18-.04-.25-.1l-.95-.91c-.07-.07-.11-.16-.11-.25-.01-.1.03-.19.1-.26l1.99-2.08-.35-.33c-.14-.14-.15-.37-.01-.51l13.89-14.54-.99-.85-2.02-1.28-2.21-1.12-2.25-.69-2.37-.62-2.41-.19-2.5.06-2.42.31-2.3.72-2.26.81-2.12,1.21-1.98,1.39-1.78,1.7c-.07.07-.16.1-.25.1h-.01l-2.06,2.15c-.06.07-.15.11-.25.11h-.01c-.09,0-.18-.03-.24-.1l-.96-.91c-.09-.09-.13-.22-.1-.33l-58.26-55.67-11.72,12.27c-.07.08-.17.11-.26.11-.02,0-.04,0-.06-.01-.02,0-.04,0-.05,0-.02,0-.04-.01-.05-.02-.03-.01-.06-.03-.09-.06l-.14-.14-2.2-2.09c.13-.15.13-.38-.02-.51l-.26-.25-.6-.58-.26-.25c-.1-.09-.24-.12-.35-.08-.06.01-.11.04-.16.09l.25-.26,27.68-28.98.25-.26.26.25s.03.04.06.04h.01l.2.2.61.58h0s.52.51.52.51l2.2,2.1.14.13c.06.05.09.12.1.19.03.11,0,.23-.09.32l-13.46,14.1,58.26,55.66c.11-.03.24,0,.34.09l.79.75,1.58-1.5,2.05-1.44,2.2-1.25,2.33-.84,2.38-.74,2.51-.33,2.58-.06,2.51.2,2.45.64,2.32.71,2.29,1.16,2.1,1.33,1.1.95c.11-.03.24,0,.34.08l.6.58c.07.07.11.16.11.26,0,.09-.03.18-.1.25l-.06.06s-.01.01-.01.02l-.02.02-13.91,14.57.69.66c.07.06.11.15.11.25,0,.03,0,.05-.01.08l11.36,10.85,44.13-46.19-62.68-59.89-2.07,2.17c-.06.07-.16.11-.25.11h-.01c-.09,0-.18-.04-.25-.1l-9.28-8.87c-.15-.14-.15-.36-.01-.51l2.07-2.17-14.4-13.76-14.18,14.84c-.07.07-.16.11-.26.11-.02,0-.03,0-.05-.01-.07,0-.14-.03-.2-.09l-.14-.14-2.2-2.1-.52-.5-.61-.58-.26-.25-.25-.24h0l.25-.26,31.92-33.41.24-.26.27.25c.06.07.15.1.24.1l.07.07s-.03.06-.05.08l.6.58.52.49h0l2.2,2.1.14.14s.09.12.09.19c.03.11,0,.23-.08.32l-13.93,14.58,14.4,13.76,2.08-2.17c.06-.07.15-.11.25-.11.09,0,.19.03.25.1l9.29,8.87c.14.14.15.37.01.51l-2.07,2.17,62.68,59.89,44.14-46.2-11.36-10.86s-.05.02-.08.02h-.01c-.09,0-.18-.03-.25-.1l-.69-.66-13.93,14.58h0s-.07.08-.07.08c-.07.08-.17.12-.26.12s-.18-.04-.25-.1l-.61-.58c-.07-.07-.11-.16-.11-.26,0-.03,0-.06.01-.08l-.96-1.01-1.44-2.05-1.25-2.2-.85-2.33-.73-2.38-.33-2.51-.06-2.59.2-2.5.64-2.45.71-2.33,1.16-2.29,1.33-2.09,1.46-1.69-.79-.76c-.1-.09-.13-.21-.1-.33l-58.26-55.66-13.63,14.26c-.07.08-.17.11-.26.11-.02,0-.04,0-.06-.01-.01,0-.03,0-.05,0s-.04-.01-.05-.02c-.03-.02-.07-.04-.09-.06l-.15-.14-2.2-2.1-.08.09s.05-.06.07-.1l-.51-.49-.6-.58-.26-.24c-.08-.07-.12-.17-.11-.27,0-.09.03-.17.1-.24l27.52-28.81s.1-.08.16-.09c.11-.04.23-.02.32.06,0,0,.02.01.03.02l.26.25.6.58.12.11.4.38h0s2.2,2.11,2.2,2.11l.15.14c.05.05.08.11.09.18.04.11.01.24-.08.33l-11.39,11.92,58.26,55.67c.12-.04.24,0,.33.08l.96.91c.14.14.15.37.01.51l-2.06,2.15c0,.09-.01.18-.08.26l-1.65,1.91-1.28,2.02-1.12,2.2-.69,2.25-.62,2.38-.19,2.4.06,2.51.31,2.42.72,2.3.81,2.26,1.21,2.12,1.38,1.97.87.91,13.89-14.54c.06-.07.15-.11.25-.11s.19.04.26.1l.34.33,1.99-2.08c.14-.14.37-.15.51-.01l.96.91c.06.07.1.16.11.25,0,.03,0,.06-.02.09l24.99,23.87c.12-.04.24,0,.34.08l.87.83c.14.14.14.36.01.51l-2.06,2.15c.01.09-.01.18-.08.26l-1.57,1.82-1.2,1.93-.95,2.03-.69,2.26-.36,2.25-.12,2.34.23,2.32.47,2.24.8,2.22,1.04,1.97,1.3,1.89.78.82,12.14-12.72c.07-.07.16-.11.25-.11.07,0,.19.03.26.1l.35.33,1.99-2.08c.06-.07.15-.11.25-.11.05-.01.19.03.26.1l.95.91c.09.09.13.21.1.33l3.34,3.19s.06.08.06.13-.02.1-.05.14l-9.66,10.1,16.35,15.62,11.48-12.01s.1-.08.16-.09c.01-.06.04-.12.09-.17l.68-.71-1.51-1.58-1.44-2.04-1.25-2.21-.85-2.33-.73-2.37-.33-2.52-.06-2.58.2-2.5.64-2.46.71-2.32,1.16-2.29,1.33-2.1,1.03-1.18c-.03-.12-.01-.25.08-.34l.5-.52c.07-.07.16-.11.25-.11.06,0,.19.03.26.1l.07.07,14.59,13.94.67-.7s.1-.08.16-.09c0-.03.01-.05.03-.08.01-.03.03-.06.05-.09l31.92-33.4-32.28-30.84-2.07,2.17c-.06.07-.15.11-.25.11h-.01c-.09,0-.18-.03-.25-.1l-12.14-11.6c-.15-.14-.15-.37-.02-.51l1.99-2.09-66.54-63.58-1.99,2.08c-.07.07-.16.11-.25.12h-.01c-.1,0-.18-.04-.25-.1l-9.29-8.87c-.06-.07-.1-.16-.11-.26,0-.09.04-.18.1-.25l2.08-2.17-14.41-13.76-11.44,11.97c-.07.07-.16.11-.26.11-.02,0-.03,0-.05-.01-.07,0-.14-.03-.2-.09l-.14-.14-2.2-2.1-.3-.28-.22-.21-.61-.58-.18-.18-.08-.07c-.09-.09-.13-.23-.1-.34h0s.01-.05.02-.07c.02-.04.04-.07.07-.1l26.84-28.08s0-.02.02-.03.02-.02.03-.02c.04-.04.08-.07.13-.08.09-.03.18-.02.26.03.03.01.06.03.09.06l.26.24.6.59.08.07.45.42,2.2,2.1.14.14s.06.08.08.12c.01.03.02.05.02.07.03.12,0,.23-.09.32l-11.52,12.06,14.4,13.76,2.07-2.17c.07-.07.16-.11.26-.11.08,0,.18.03.25.1l9.29,8.87c.14.14.15.37.01.51l-1.99,2.08,66.55,63.58,1.99-2.08c.06-.07.15-.11.25-.11.06-.01.19.03.26.1l12.14,11.61c.15.13.15.36.01.5l-2.08,2.17,32.29,30.84,31.83-33.31s.1-.09.16-.1c.01-.06.04-.12.09-.17l.75-.79-1.5-1.58-1.43-2.04-1.26-2.21-.84-2.33-.74-2.37-.32-2.52-.06-2.58.2-2.51.63-2.45.72-2.32,1.16-2.29,1.33-2.1.94-1.09c-.04-.11-.01-.25.08-.34l.58-.61c.07-.07.16-.11.26-.11.06-.01.19.03.25.1l.06.06s.01,0,.02,0t.02.02l14.57,13.92.58-.61c.06-.07.14-.1.23-.1,0-.09.03-.18.1-.25l11.64-12.18-16.35-15.62-9.9,10.36s-.08.06-.13.06-.1-.02-.13-.05l-3.35-3.2s-.05.02-.08.02c-.09,0-.18-.03-.25-.1l-.96-.91c-.14-.14-.14-.37-.01-.51l1.99-2.08-.34-.33c-.07-.07-.11-.16-.12-.26,0-.09.04-.18.1-.25l12.15-12.71-.9-.78-1.93-1.19-2.02-.95-2.26-.7-2.26-.36-2.34-.11-2.32.22-2.24.47-2.22.81-1.97,1.04-1.88,1.3-1.71,1.61c-.06.07-.15.1-.24.1h-.01l-2.06,2.15c-.06.07-.15.11-.25.11h0c-.09,0-.18-.03-.25-.1l-.86-.83c-.09-.08-.13-.2-.1-.32h0s-24.99-23.89-24.99-23.89c-.03.02-.06.02-.09.02-.09,0-.18-.03-.25-.1l-.95-.91c-.14-.14-.15-.36,0-.51l1.99-2.08-.35-.33c-.07-.07-.11-.16-.11-.25,0-.1.03-.19.1-.26l13.89-14.53-.99-.86-2.02-1.28-2.21-1.12-2.25-.69-2.37-.62-2.41-.19-2.5.06-2.42.31-2.3.72-2.26.81-2.12,1.21-1.98,1.39-1.78,1.7c-.07.07-.16.1-.25.1h-.01l-2.05,2.15c-.08.08-.17.11-.26.11s-.18-.03-.25-.1l-.96-.91c-.09-.09-.13-.21-.1-.33l-58.26-55.67-11.11,11.63h0s-.01.02-.01.02c-.01,0-.01.01-.01.01h-.01s-.03.04-.05.05c-.01.01-.02.03-.03.04-.08.08-.17.12-.26.12-.01,0-.02,0-.03-.01,0,0-.02,0-.03,0h-.01s-.06-.01-.09-.03c-.03-.01-.06-.03-.09-.05l-.15-.14-2.2-2.1-.04.04s.02-.04.03-.05l-.34-.32-.17-.16-.6-.59-.23-.22-.04-.03c-.07-.07-.11-.16-.11-.26h0c0-.09.04-.18.09-.24l.02-.02,27.1-28.36.25-.26s-.08.1-.09.17c-.01.03-.01.06-.01.09,0,.09.04.18.11.25l.26.25.61.58.26.25c.07.06.16.1.25.1s.19-.04.26-.12l2.2,2.11.14.13c.06.05.09.12.1.19.03.11,0,.23-.09.32l-13.38,14.01,58.26,55.67c.12-.04.24-.01.34.08l.79.75,1.58-1.5,2.05-1.43,2.2-1.26,2.33-.84,2.38-.74,2.51-.32,2.59-.06,2.5.2,2.45.63,2.32.72,2.29,1.16,2.1,1.32,1.1.95c.12-.03.24,0,.34.08l.6.59c.07.06.11.15.12.25,0,.09-.04.18-.1.25l-.08.08-13.93,14.59.69.66c.09.09.13.22.1.33l11.35,10.86,44.15-46.2-62.69-59.89-2.07,2.17c-.06.07-.15.11-.25.11h-.01c-.09,0-.18-.03-.25-.1l-9.28-8.87c-.14-.13-.15-.36-.01-.51l2.07-2.17-14.4-13.76-14.18,14.84c-.07.07-.16.11-.26.11-.02,0-.03,0-.05-.01-.07,0-.14-.03-.2-.09l-.14-.14-2.2-2.1-.52-.49-.61-.58-.26-.25c-.09-.09-.13-.23-.1-.34h0s.01-.05.02-.07c.02-.04.04-.07.07-.1l33.41-34.97.25-.26.19.18.07.07.26.25.61.58.07.07.45.43,2.2,2.1.14.14c.05.05.08.11.09.18.04.11.01.23-.08.32l-15.34,16.05,14.41,13.77,2.07-2.17c.07-.07.16-.11.25-.11.05,0,.19.03.26.1l9.28,8.87c.15.13.15.36.01.5l-2.08,2.17,66.56,63.59,2.07-2.17c.07-.07.16-.11.25-.11.06,0,.19.03.26.1l12.15,11.6c.14.14.15.37.01.51l-2.07,2.17,32.27,30.84,11.36-11.89s.1-.08.16-.09c.01-.06.04-.12.09-.17l.75-.79-1.5-1.58-1.43-2.05-1.26-2.2-.84-2.33-.74-2.38-.32-2.51-.06-2.59.2-2.5.63-2.45.72-2.32,1.16-2.29,1.32-2.1.95-1.1c-.03-.12,0-.24.08-.34l.58-.6c.07-.07.16-.11.26-.12.06-.01.19.04.25.1l.06.06s.01,0,.02.01t.02.02l14.57,13.92.66-.69c.05-.05.1-.08.16-.09h0s.01-.05.02-.07c.02-.04.04-.07.07-.1l2.02-2.12-15.22-14.55s-.06.02-.09.02c-.09,0-.18-.04-.25-.1l-.95-.91c-.15-.14-.15-.37-.01-.51l2.22-2.33v-.02s.02,0,.02-.01l1.55-1.79,1.2-1.93.95-2.03.69-2.26.36-2.25.12-2.34-.23-2.32-.47-2.24-.8-2.23-1.04-1.96-1.3-1.89-.78-.82-12.14,12.72c-.07.07-.17.11-.26.11s-.18-.03-.25-.1l-.35-.33-1.99,2.08c-.07.07-.16.11-.26.11-.09,0-.18-.03-.25-.1l-.95-.91c-.09-.09-.13-.22-.1-.33l-4.47-4.27c-.07-.07-.07-.19,0-.27l23.61-24.71-5.22-12.19c-.08-.18.01-.39.19-.47l.32-.14-18.9-44.18c-.09-.03-.16-.1-.2-.19l-.54-1.17c-.08-.18,0-.4.18-.48l2.61-1.19-.11-.26c-.04-.09-.05-.19-.01-.28.03-.09.1-.16.19-.2l18.44-7.96-.59-1.21-1.3-2.06-1.63-1.87-1.87-1.62-1.88-1.47-2.18-1.1-2.21-.96-2.33-.61-2.44-.36-2.41-.02-2.5.22-2.32.56-2.3.88h0s-.02.02-.03.01h-.03s-2.88,1.16-2.88,1.16c-.04.02-.09.03-.13.03-.14,0-.27-.08-.33-.21l-.52-1.16s-.01-.02-.02-.03c-.02-.05-.03-.1-.03-.15s.02-.1.04-.15l-12.76-29.79-.28.12s-.09.03-.14.03c-.14,0-.27-.08-.33-.22l-5.11-11.85c-.08-.18.01-.39.19-.47l.42-.18-7.92-18.41-14.26,14.92-.08.09c-.07.07-.17.11-.26.11-.02,0-.04,0-.06-.01-.01,0-.03,0-.05-.01-.02-.01-.04-.01-.05-.02-.03,0-.06-.03-.09-.06l-.15-.14-2.19-2.1h0s-.34-.33-.34-.33l-.18-.18-.61-.57-.22-.22-.04-.03s-.07-.08-.09-.12c-.02-.07-.03-.15-.01-.22.01-.06.04-.11.08-.16l20.07-21c.07-.07.16-.11.26-.11l28.68.02h.01c.06,0,.11.02.16.05.09.04.16.12.18.22.01.03.02.06.02.1v1.15s-.02.14-.02.14v.58h.06l-.06.02-.04,3v.2c0,.07-.02.14-.07.2-.05.1-.16.16-.29.16l-26.32.09-1.36,1.42,8.45,19.84,7.05-3.01c.18-.08.39,0,.47.19l5.11,11.85c.07.18-.01.39-.19.47l-7.04,3.01,12.75,29.78h.01s.07,0,.1.02c.06.02.12.05.17.11.02.02.04.06.05.09h0s.33.93.33.93l2.01-.77,2.41-.58,2.59-.23,2.5.03,2.52.37,2.43.63,2.28.99,2.25,1.14,1.96,1.52,1.92,1.67,1.69,1.95,1.36,2.14.65,1.34c.1.02.19.09.24.19l.36.67c.04.09.05.19.02.29-.03.09-.11.17-.2.21l-18.66,7.92.38.84c.05.09.05.19.01.28-.02.05-.05.1-.09.13l5.98,14.02,51.39-.08-.03-63.72h0s-.01-15.45-.01-15.45l.04-20.18h-26.2s-.01.01-.01.01c-.05,0-.09-.01-.13-.03-.04-.02-.08-.04-.12-.08-.02-.02-.03-.03-.03-.05h-.01c-.04-.06-.06-.13-.06-.21v-.19l.03-3.08v-.64s.02-.91.02-.91v-.31c0-.06.02-.12.05-.17.01-.03.03-.06.05-.08,0-.03.03-.05.05-.06.01-.01.01-.02.02-.02.06-.04.12-.08.19-.08l32.93.02c.2,0,.36.16.36.36v25.36s18.8-.01,18.8-.01h.02s.03-.01.05,0c-.1.01-.19.05-.25.13.04.01.08.04.11.07.07.07.11.16.11.25v1.16s-.02.71-.02.71c.01.01.02.01.03.01h-.03l-.04,3.01v.21c0,.07-.02.14-.06.19t-.01.01h0s-.01.03-.02.04c-.04.04-.08.06-.12.08s-.09.03-.14.03h-18.4s-.01,50.59-.01,50.59l13.96-.03.02-24.77c0-.2.16-.36.36-.36l35.05-.03c.1,0,.19.04.25.11.07.07.11.16.11.25l-.02,24.79h0l14.03.02.05-40.6s0-.04.01-.06v-9.93s-21.39.07-21.39.07c-.05,0-.1-.01-.14-.03-.04-.01-.07-.03-.1-.06-.02-.02-.03-.03-.04-.05h-.01s0-.02,0-.02c-.04-.06-.06-.12-.06-.2v-.2l-.02-3.08h0v-1.53s-.01-.36-.01-.36c0-.02,0-.04.01-.06.01-.08.04-.15.09-.2.02-.02.05-.04.08-.05.05-.04.11-.06.17-.06h.01l21.28-.06V13.29c.01-.2.17-.36.37-.36h18.02s.04.03.06.05c.05.05.08.12.09.19.01.02.01.04.01.06v1.33s-.02.63-.02.63l-.03,3.1v.2c0,.08-.02.14-.07.2,0,.02-.01.03-.04.05-.03.03-.07.06-.11.08-.04.02-.09.03-.14.03h-10.93l-.04,20.18v15.44s.01.4.01.4l.02,33.58v.06l.02,46.32,61.17-.05h.09l.02-12.8v-.8c-.1-.05-.17-.16-.18-.29l-.02-1.01-20.27.05c-.1,0-.2-.04-.27-.12-.07-.07-.1-.17-.09-.27l.07-.77c0-.07.03-.14.08-.19l.13-1.59.46-2.43.63-2.41,1.17-2.31,1.23-2.16,1.6-2.03,1.78-1.69,2.02-1.6,2.12-1.34,2.32-1.01,2.4-.75,2.49-.49,2.15-.13-.02-1.01h0c0-.1.03-.19.1-.25.01-.02.04-.05.07-.06l.06-52.79c-.1-.05-.17-.16-.17-.29l-.08-25.44h-26.21c-.09,0-.18-.03-.24-.09-.01,0-.02-.02-.03-.03-.01,0-.01-.02-.02-.03-.01-.02-.02-.03-.03-.05-.02-.05-.03-.1-.03-.15v-.2l.03-3.08v-.61s.02-.9.02-.9v-.49c0-.05,0-.1.01-.14,0-.02,0-.04.01-.06,0-.01,0-.02.01-.03h32.07c.1,0,.19.04.26.11.06.06.1.15.1.25v25.37s12.19.05,12.19.05c-.2,0-.36.17-.36.36v.35l.04,4.47v.36c0,.2.14.34.34.36l-14.39-.02.02,52.81h0c.11.06.19.18.18.32h0s-.06,1.28-.06,1.28c0,.2-.16.35-.36.35l-3.12-.02h-.02l-2.43.14-2.41.48-2.32.72-2.23.97-2.04,1.3-1.97,1.55-1.73,1.63-1.53,1.95-1.19,2.1-1.13,2.22-.6,2.32-.45,2.36-.11,1.36,20.09.05c.19,0,.35.15.36.35v.33l2.89.09c.19.01.34.16.35.35l.03,1.19c0,.1-.04.19-.1.26-.02.02-.04.04-.07.05l-.03,17.1h0s0,.01-.01.01h0c0,.08-.05.14-.11.16h-.01s-.02.01-.02.01c-.01,0-.03.01-.04.01h-15.26s-.01,21.59-.01,21.59c.03,0,.05.03.07.05.03.03.06.06.07.1.01.02.02.04.02.06.01.01.02.02.01.04.01,0,.01.03.01.04s0,.01-.01.02c.01,0,.01.02,0,.03l-.05,1.25c-.01.19-.17.34-.36.34h-3c-.06.04-.12.07-.2.08l-2.29.13-2.23.47-2.15.72-2.14,1.05-1.88,1.29-1.8,1.55-1.44,1.69-1.3,1.87-1.02,2.1-.79,2.18-.44,2.34-.05,1.1,17.56-.07c.19,0,.35.16.36.35v.49s2.87-.07,2.87-.07c.05-.01.19.04.26.1.07.07.11.16.11.26l.03,1.35c0,.1-.03.19-.1.26-.04.05-.1.08-.16.09l.08,25.13h2.36c.1,0,.2.05.27.12.04-.03.1-.04.15-.04l.83-.02.05-20.18v-.04s.01-.08.02-.11c0-.04.03-.07.07-.1.03-.03.06-.06.1-.08.02,0,.05-.02.09-.03.01-.01.02-.01.03-.01h.08l.68-.1c.1-.01.21.02.28.08.03.03.06.06.08.1l1.42.12,2.43.46,2.41.63,2.3,1.16,2.17,1.23,2.03,1.6,1.69,1.78,1.6,2.03,1.34,2.12,1.01,2.32.75,2.39.49,2.49.12,2.17,1.01-.03h0c.05,0,.1.01.14.03.03.01.06.02.08.05.01.01.02.02.03.03h.02s.09-.04.15-.04h.3s4.62-.11,4.62-.11h.01c.15,0,.27.08.32.21.02.03.03.07.03.11.01.01.01.03.01.04l.03,45.81,57.35-.07.04-90.64-3.56-.02c-.2,0-.36-.17-.36-.37v-15.43s0-.11.02-.15c.02-.04.04-.08.08-.12.06-.06.15-.1.24-.1h.01l3.54-.08.04-90.7h-3.63c-.2,0-.36-.16-.36-.36l.07-9.99-13.1.05c-.13,0-.23-.06-.29-.16h-20.07s-.73.02-.73.02h-19.45s-.08.01-.08.01c.05-.06.07-.13.07-.2s-.02-.14-.07-.2h19.61s.73-.02.73-.02h19.92s-.02-3.3-.02-3.3v-.72h0v-.19s.01-.61.01-.61v-.13s.01-.01.01-.02v-.37h.31s.01-.01.01-.01l13.49-.05h.01l4.73.06.09-25.27s0-.04.01-.06c.02.16.17.3.35.3h4.73l.08,25.44-.1,122.39v264.04s.05,20.55.05,20.55v.13s0,.02,0,.02ZM857.8,135.16s-.02.03-.03.04h.03v-.04ZM446.38,254.56s-.03.02-.04.03-.01.02-.02.03l.06-.06ZM860.66,322.41s.03.02.04.04v-.04h-.04ZM796.22,161.5v44.87s.01.1.01.1l45.8-.08v-25.19s-.05-.03-.07-.05c-.07-.07-.1-.17-.1-.26l.04-.9h-17.4c-.06.04-.13.07-.22.07h-.01c-.11,0-.21-.06-.27-.15-.03-.01-.05-.03-.07-.05-.07-.08-.1-.18-.09-.28l.07-.76c0-.06.02-.12.06-.17l.07-1.35.46-2.44.81-2.27,1.07-2.19,1.35-1.94,1.51-1.76,1.87-1.61,1.95-1.34,2.23-1.1,2.23-.74,2.32-.49,2.08-.12-.02-.93c0-.13.07-.25.17-.31v-21.58s-45.78-.04-45.78-.04v7.53l-.07,15.53ZM775.1,117.64v6.34s0,0,0,0h14.01s0-.1,0-.1l-14.01-6.24ZM789.1,123.1v-5.6s-12.64-.04-12.64-.04l12.64,5.64ZM775.1,102.34h14.03s.01-6.49.01-6.49l-14.03-.02h0v6.51ZM775.1,109.55h14.03v-6.48s-14.02-.01-14.02-.01h0v6.49ZM775.09,116.73h0l14.02.05v-6.51s-14.02,0-14.02,0v6.46ZM775.09,131.2h14.01s.01-6.49.01-6.49h-14.01s0,6.49,0,6.49ZM775.08,138.41h14s.01-6.48.01-6.48h-14.01s0,6.48,0,6.48ZM775.08,145.59h14v-6.45s-13.99-.01-13.99-.01v6.46ZM740.06,95.12h0l14.19-.03v-.89h0v-.02h0v-.02h0v-.02h0c.04-.17.18-.3.35-.3l5.18-.03h.12c.1,0,.19.04.26.11.06.06.1.16.1.25v.92l14.13.02.02-24.43-34.33.03-.02,24.41ZM774.36,138.41v-6.49s0,0,0,0l-14.16-.02v6.5s14.16.01,14.16.01ZM774.35,139.13h-14.16s-.02,6.46-.02,6.46h14.18v-6.46s0,0,0,0ZM774.37,131.2v-6.5s0,0,0,0h-14.14s-.01,6.48-.01,6.48l14.15.02h0ZM774.37,123.98v-6.34s0,0,0,0l-14.15,6.32h0s14.15.02,14.15.02ZM760.23,117.55v5.63s12.77-5.72,12.77-5.72l-12.77.09ZM774.37,116.73v-6.46s-14.13-.01-14.13-.01v6.57s14.13-.1,14.13-.1ZM774.38,109.55v-6.49s-14.12,0-14.12,0v6.49s14.12.01,14.12.01ZM774.38,102.34v-6.51s-14.12-.02-14.12-.02v6.52s14.12.01,14.12.01ZM755.06,139.18v7.71s4.39.05,4.39.05l.02-7.82v-7.22s.01-.72.01-.72l.02-6.49v-2.32s0,0,0-.02v-4.8s-.02-.72-.02-.72v-6.57s-.02-.72-.02-.72l-.02-6.49v-.72l-.02-6.87v-.93l-4.45.03v7.74s.02.72.02.72v6.5s.01.72.01.72v6.49s.01.72.01.72l.02,6.58v7.13s.01.72.01.72v6.58s.01.36.01.36v.36ZM754.34,139.92l-12.92,5.68h12.93s-.01-5.68-.01-5.68ZM740.06,102.29h14.22s-.02-6.48-.02-6.48l-14.19.03h0v6.45ZM740.05,109.55h0l14.23-.03v-6.5s-14.23-.01-14.23-.01v6.54ZM740.05,116.72h14.25s-.01-6.48-.01-6.48l-14.23.03h0v6.45ZM740.04,124.01h0l14.27.02-.02-6.58h-14.25s0,6.56,0,6.56ZM740.04,131.14l14.29.02v-6.41s-14.28-.02-14.28-.02h0v6.41ZM740.03,138.45h14.3s0-6.57,0-6.57l-14.29-.02v6.59ZM740.03,145.43l14.22-6.25-14.21-.02h0v6.27ZM725.42,146.33v14.73s63.63.07,63.63.07l.07-14.82h-28.95v.99c-.01.1-.04.19-.11.26-.07.06-.16.1-.25.1h-.01l-5.09-.05c-.2,0-.36-.16-.36-.36v-.94h-14.6s0,.01-.01.01c-.03.01-.05.02-.08.02s-.05,0-.07-.02c0,0-.01,0-.02,0h-14.15ZM725.38,102.28h13.95s0,.01,0,.01v-6.45s-13.95.03-13.95.03v6.41ZM725.38,109.58l13.95-.03v-6.54s0,0,0,0h-13.95s0,6.57,0,6.57ZM725.38,116.71h13.94s0,.01,0,.01v-6.45s-13.94.03-13.94.03v6.41ZM725.38,124h13.94s0-6.56,0-6.56h-13.94s0,6.56,0,6.56ZM725.38,131.13h13.93s0,.01,0,.01v-6.41s-13.93-.01-13.93-.01v6.41ZM725.38,138.44h13.93s0-6.58,0-6.58h-13.93s0,6.58,0,6.58ZM725.38,139.25l13.92,6.18v-6.27s-13.92-.01-13.92-.01v.1ZM725.38,145.61h12.53s-12.53-5.57-12.53-5.57v5.57ZM723.75,206.42l6.43.02c.06,0,.11.01.16.04.05-.03.11-.05.17-.05l1.01-.02-.11-22.82c0-.2.16-.36.36-.36h.16s.02-.01.03-.01h.65s.1,0,.17.03h.01l1.89.08,2.79.63,2.76.79,2.61,1.15,2.46,1.49,2.19,1.76,1.95,2.02,1.77,2.19,1.52,2.47,1.1,2.57.92,2.72.42,2.77.21,2.54s.04,0,.06,0h.02l.83-.07h.04c.1,0,.18.04.24.1,0,.01,0,.02,0,.02h.01s.01-.01.01-.01c.05-.02.09-.03.15-.04h33.84s-.01-44.58-.01-44.58h-1.05s-.03.01-.04.01l-64.42-.07h-1.25l-.07,44.64ZM756.68,206.68s-.01-.05-.02-.07c.01.03.02.06.02.1v-.03ZM695.1,218.49l11.39-11.92s.02-.02.03-.02c.03-.03.06-.04.09-.06.04-.02.1-.03.15-.03h11.43s.07-45.06.07-45.06v-15.45s-.02-24.09-.02-24.09l-49.81-.04,11.38,26.58,7-2.99c.17-.08.39,0,.47.18l6.63,15.47c.08.18-.01.39-.19.47l-10.67,4.58s-.1.02-.15.02c-.02,0-.05,0-.07-.01l-20.3,21.25,1.99,1.91s.05-.02.08-.02c.06-.01.19.03.26.1l.69.66,12.18-12.75.02-.02s.07-.06.12-.07c.07-.03.16-.03.25,0,.03.01.05.03.08.04.02.01.04.03.06.05l.59.56s.07.09.09.15h0s.97,1.03.97,1.03l1.35,1.97,1.09,2.05.83,2.31.49,2.33.23,2.41-.11,2.44-.38,2.34-.72,2.35-.99,2.11-1.25,2.01-1.38,1.61.71.67c.09.09.13.22.1.33l15.22,14.55ZM624.56,292.33l34.19-35.79-32.28-30.83-2.07,2.17c-.07.07-.16.11-.25.11h0c-.1,0-.18-.04-.25-.1l-12.15-11.61c-.14-.13-.15-.36-.01-.51l2.07-2.17-1.25-1.19-44.14,46.19,11.02,10.53c.12-.04.24-.01.33.08l.71.68,1.5-1.42,1.96-1.35,2.05-1.09,2.32-.84,2.33-.49,2.41-.23,2.43.12,2.34.37,2.36.73,2.1.99,2.02,1.25,1.09.94c.07.01.13.04.18.09l.59.57h.02s.02.04.03.06c.04.05.07.11.07.17.01.02.01.03.01.05-.01.04-.01.09-.03.13-.01.03-.03.07-.06.1h-.01s-12.19,12.76-12.19,12.76l.7.67c.09.09.12.22.09.34l.95.9,9.82-10.28c.07-.07.19-.08.27,0l18.74,17.91ZM459.3,371.76s.09-.02.14,0l-.07-.07-.07.07ZM459.38,372.2l-.07.07s.09-.02.14,0l-.07-.07ZM457.21,370.13s.02.05.02.08c0,.02,0,.04-.01.06l.07-.07-.08-.07ZM415.26,418.9l1.25,1.2,2.07-2.17c.06-.07.15-.11.25-.11s.19.03.26.1l12.14,11.61c.07.06.11.15.11.25.01.09-.03.19-.1.26l-2.07,2.17,32.28,30.83,34.35-35.95-18.74-17.91c-.07-.07-.07-.19,0-.27l9.65-10.1-.95-.91s-.06.02-.09.02c-.09,0-.18-.03-.25-.1l-.69-.66-12.18,12.75s-.01.01-.02.02c-.03.03-.07.05-.11.06-.04.02-.09.03-.14.03s-.09-.01-.14-.03c-.04-.01-.09-.04-.12-.08l-.09-.09-.5-.48s-.07-.08-.09-.14h0s-.97-1.03-.97-1.03l-1.35-1.97-1.09-2.05-.83-2.32-.49-2.33-.23-2.41.11-2.43.38-2.34.72-2.35.99-2.11,1.25-2.02,1.38-1.6-.71-.68c-.09-.08-.13-.21-.1-.33l-11.01-10.52-44.13,46.19ZM423.28,502.99l34.35-35.96-32.27-30.83-2.07,2.17c-.07.07-.17.11-.26.11s-.18-.04-.25-.1l-12.15-11.61c-.14-.14-.15-.36-.01-.51l2.07-2.17-1.25-1.19-44.14,46.19,11.01,10.53c.12-.04.25,0,.34.08l.71.68,1.49-1.42,1.97-1.36,2.05-1.08,2.32-.84,2.33-.49,2.41-.23,2.43.12,2.34.37,2.35.72,2.11,1,2.02,1.24,1.1.95h.01c.07,0,.12.05.16.09l.59.57h.01c.07.08.12.17.12.27h0c0,.09-.04.18-.09.24h0s-12.19,12.76-12.19,12.76l.69.67c.1.09.13.2.1.32h0s.95.91.95.91l9.65-10.1c.07-.07.19-.07.27,0l18.74,17.9ZM258.2,582.76s.05-.02.07-.02c.03,0,.05,0,.07.02l-.07-.07-.07.07ZM256.1,580.62s.02.09.01.14l.06-.07-.07-.07ZM214.14,629.39l1.25,1.2.16-.16.36-.38,1.56-1.63c.13-.14.36-.15.5-.01l12.15,11.6c.07.07.11.16.11.26.01.09-.03.18-.1.25l-2.07,2.17,32.28,30.84,34.35-35.96-18.74-17.9s-.06-.09-.06-.14c0-.04.02-.09.06-.13l9.65-10.1-.95-.91s-.05.02-.08.02h-.01c-.09,0-.18-.04-.25-.1l-.69-.66-12.19,12.75h-.01c-.07.08-.16.11-.25.11s-.19-.04-.26-.11l-.59-.57c-.05-.05-.08-.1-.1-.16l-.96-1.02-1.35-1.96-1.09-2.05-.83-2.32-.49-2.33-.23-2.41.11-2.43.38-2.34.72-2.36.99-2.1,1.25-2.02,1.38-1.6-.71-.68c-.09-.09-.13-.21-.1-.33l-11.01-10.52-44.14,46.19ZM223,712.61l33.44-35-32.28-30.84-2.07,2.17c-.07.07-.16.11-.26.11-.09,0-.18-.03-.25-.1l-12.14-11.6c-.07-.07-.11-.16-.11-.26,0-.09.03-.18.09-.25l1.65-1.72.36-.39.07-.06-1.26-1.2-33.44,35,12.23,11.69s.08-.02.12-.01c.03-.01.07,0,.1.02.04.02.08.04.11.07l.71.68,1.5-1.42,1.96-1.35,2.05-1.09,2.32-.84,2.33-.49,2.41-.23,2.43.12,2.34.38,2.36.72,2.11.99,2.01,1.25,1.01.86c.12-.03.25,0,.34.08l.61.58c.07.07.11.16.11.26,0,.09-.03.18-.1.25l-.06.06s-.01,0-.01.02l-.02.02h0s-.01.02-.01.02c0,0-.01,0-.01,0l-12.14,12.72.6.58c.07.06.11.15.11.25,0,.03,0,.05-.01.08l18.7,17.86ZM342.81,760.3l-5.42-5.18-43.64-41.69-33.44,35,18.87,18.03s.05-.02.08-.02c.08-.01.19.03.26.1l.69.66,12.2-12.76.07-.08c.06-.07.16-.11.25-.11.11,0,.19.04.26.1l.52.5c.09.09.13.21.1.33l.96,1.02,1.35,1.96,1.09,2.05.83,2.32.49,2.33.23,2.41-.11,2.43-.38,2.34-.72,2.36-.99,2.1-1.25,2.02-1.38,1.61.71.67c.09.09.13.21.1.33l14.83,14.17,33.44-35ZM297.65,709.35l28.55,27.27,28.01-29.33-28.54-27.27-1.83,1.91s-.1.08-.16.09c-.01.06-.04.12-.08.17l-.67.69,12.76,12.19h.01s.06.08.07.12c.02.03.03.07.03.11.01.11-.03.22-.11.29l-.49.51s-.09.07-.14.08l-1.12,1.06-1.96,1.36-2.05,1.08-2.32.84-2.33.49-2.41.23-2.43-.12-2.34-.37-2.36-.73-2.11-.99-2.01-1.24-1.61-1.38-.67.7s-.1.08-.16.09c-.01.07-.04.12-.09.17l-11.44,11.98ZM333.82,740.46l18.45-22.62-21.82,22.84,8.57,8.19-5.23-7.99c-.08-.13-.07-.3.03-.42ZM357.94,710.86l-3.21-3.07-28.01,29.33,3.21,3.06,28.01-29.32ZM369.05,721.47l-10.57-10.1-23.94,29.34,6.55,10.02,27.96-29.26ZM356.54,647.71l-11.31,11.83c-.06.07-.14.11-.23.11,0,.09-.03.17-.1.24l-.68.71,1.42,1.49,1.36,1.97,1.08,2.05.84,2.32.49,2.33.23,2.41-.12,2.43-.37,2.34-.73,2.36-.99,2.1-1.24,2.02-.96,1.11c-.01.06-.04.12-.08.16l-.57.59s-.08.07-.12.09c0,.01-.03.02-.04.02-.04.01-.07.02-.11.02s-.09-.01-.13-.03c-.04-.01-.08-.03-.11-.06h-.01s-12.75-12.2-12.75-12.2l-.58.61c-.06.06-.15.1-.24.11,0,.01,0,.02-.01.03,0,.04-.01.07-.03.11-.01.04-.03.07-.06.1l-.66.69,43.38,41.45,26.82-28.07-43.39-41.44ZM432.73,567.97l-39.91,41.77,43.38,41.45,43.39-45.41-11.31-10.82s-.06.02-.1.02c-.09,0-.18-.04-.25-.1l-.71-.68-1.49,1.42-1.97,1.35-2.05,1.09-2.32.83-2.32.49-2.42.23-2.43-.11-2.34-.38-2.35-.72-2.11-.99-2.02-1.25-1.1-.95s-.06.02-.09.02c-.09,0-.17-.04-.24-.1l-.53-.5c-.06-.07-.1-.16-.11-.25,0-.1.04-.19.1-.26l.07-.07,12.2-12.77-.69-.66s-.08-.1-.09-.16l-3.27,3.42s-.09.06-.14.06c-.04,0-.09-.02-.13-.05l-16.65-15.92ZM595.58,397.52l-34.35,35.96,18.74,17.9c.07.07.08.19.01.27l-9.66,10.1.95.91c.12-.04.25-.01.34.08l.69.66,12.19-12.75h.01s.07-.07.11-.08c.03-.02.07-.03.11-.03.1-.01.21.03.29.11l.51.49s.07.09.08.14l1.06,1.12,1.36,1.96,1.08,2.05.84,2.32.49,2.33.23,2.41-.12,2.43-.37,2.34-.73,2.36-.99,2.1-1.24,2.02-1.39,1.6.71.68c.1.09.13.21.1.33h0s11.01,10.52,11.01,10.52l44.06-46.1-1.34-1.28-1.99,2.08c-.07.07-.17.11-.26.11s-.18-.03-.25-.1l-12.06-11.52c-.14-.14-.15-.37-.01-.51l2.07-2.17-32.28-30.84ZM790.65,258.14l-61.95.06-31.77,33.25,14.71,14.05c.12-.04.24,0,.34.08l.7.67,1.5-1.41,1.97-1.35,2.04-1.09,2.32-.84,2.33-.49,2.41-.23,2.43.12,2.34.37,2.36.73,2.11.99,2.01,1.24,1.01.87c.12-.04.25-.01.35.08l.6.58c.07.07.11.16.11.26,0,.09-.03.18-.09.25l-.08.08-12.19,12.77.6.58c.1.09.13.22.1.33l2.3,2.19,5.18-5.41c.08-.1.21-.13.33-.1l13.14-13.75h0s.04-.04.06-.05.05-.01.07-.01l36.63.09c.05-.1.16-.17.29-.17l5.67-.04.07-44.7ZM844.66,281.38l-.03-23.19-48.42-.08v44.68h.24c.06-.01.19.03.26.1.07.07.11.16.11.25l.04,16.81c0,.1-.04.19-.11.26-.06.06-.16.1-.25.1h-.24v1.67l48.31.08.06-19.54h0s-.05-.03-.07-.06c-.02-.01-.03-.02-.03-.04-.02-.02-.04-.05-.05-.08-.02-.04-.03-.09-.03-.14l.04-.92-2.02-.1-2.43-.46-2.28-.81-2.19-1.07-1.94-1.34-1.76-1.51-1.61-1.87-1.34-1.96-1.09-2.22-.75-2.24-.49-2.32-.09-1.55v-.04s-.03-.02-.03-.05l-.11-.76c-.01-.1.02-.2.09-.28.07-.08.17-.12.27-.12h17.74s.04-.92.04-.92c0-.13.06-.23.16-.28ZM871.68,252.62v-40.63s-.03,0-.04,0c-.01,0-.02,0-.03,0h-.04l-1.2.11h-.03c-.09,0-.18-.03-.25-.1-.07-.06-.11-.16-.11-.26l.05-4.63c-.09-.05-.15-.15-.16-.27l-.14-2.46-.48-2.4-.72-2.32-.97-2.23-1.3-2.05-1.55-1.97-1.63-1.72-1.95-1.53-2.11-1.19-2.21-1.13-2.32-.6-2.37-.45-1.27-.1.04,20.07c0,.19-.15.35-.35.36h-.5s.03,4.49.03,4.49c0,.19-.14.35-.33.36l-1.27.12h-.03c-.09,0-.18-.03-.25-.1t-.02-.02s-.1.04-.16.04l-91.32.05c-.06,0-.11-.01-.16-.04-.05.03-.11.05-.18.05h-.02l-.81-.04h-.3s-.16-.02-.16-.02c-.19-.01-.34-.17-.35-.36l-.02-4.81v-.03l-.23-2.85-.4-2.68-.9-2.63-1.06-2.5-1.48-2.38-1.72-2.13-1.89-1.97-2.13-1.7-2.37-1.45-2.53-1.11-2.69-.77-2.71-.61-1.6-.06.02,22.84c0,.1-.04.2-.11.27-.07.06-.16.09-.25.09h-.03l-.37-.03-.06,4.53c0,.1-.04.19-.11.26-.07.06-.16.1-.25.1h-.02l-1.27-.06s-.1-.01-.15-.04c-.05.03-.11.05-.17.05l-21.24-.02-14.4,15.07s-.1.08-.16.1c-.02.06-.04.11-.09.16l-.91.96c-.07.07-.17.11-.26.11s-.18-.03-.25-.1l-3.21-3.07-.33.35c-.07.07-.17.11-.26.11s-.18-.03-.25-.1l-14.53-13.89-.86.99-1.28,2.02-1.12,2.2-.69,2.26-.62,2.37-.19,2.4.06,2.51.31,2.42.72,2.3.81,2.26,1.21,2.12,1.39,1.97,1.7,1.79c.07.07.11.17.1.26l3.28,3.13c.07.07.11.16.11.25,0,.1-.03.19-.1.26l-.91.95s-.1.09-.16.1c0,.06-.04.12-.09.17l-63.5,66.46c-.06.06-.15.1-.23.1,0,.09-.03.17-.1.24l-.83.87c-.07.07-.17.11-.26.11s-.18-.03-.25-.1l-3.21-3.06-.33.34c-.07.07-.16.11-.25.11h-.01c-.09,0-.18-.03-.25-.1l-14.53-13.89-.86.99-1.28,2.03-1.12,2.2-.69,2.25-.62,2.37-.19,2.41.06,2.51.31,2.41.72,2.3.81,2.26,1.21,2.12,1.39,1.98,1.7,1.78c.07.07.1.17.1.26l3.28,3.13c.07.07.11.16.11.26,0,.09-.03.18-.1.25l-.91.96s-.1.08-.16.09c-.01.06-.04.12-.09.17l-67.64,70.8s-.11.08-.17.09c-.01.06-.04.12-.08.17l-.91.95c-.07.07-.16.11-.26.11s-.19-.03-.25-.1l-3.21-3.06-.25.26c-.07.07-.16.11-.25.11h-.01c-.1,0-.18-.04-.25-.1l-14.54-13.89-.94,1.07-1.27,2.03-1.12,2.2-.69,2.25-.62,2.38-.19,2.4.06,2.51.31,2.41.72,2.3.81,2.26,1.21,2.12,1.38,1.98,1.68,1.76s.01.01.02.01l3.47,3.32c.14.14.15.36.01.51l-.91.95s-.1.09-.16.1c-.02.06-.04.11-.09.16l-100.39,105.07c-.06.07-.15.11-.23.11,0,.09-.04.17-.1.24l-.83.87c-.07.07-.16.11-.25.11h-.01c-.09,0-.18-.04-.25-.1l-3.21-3.07-.33.35c-.07.07-.17.11-.26.11s-.18-.03-.25-.1l-14.53-13.89-.86.99-1.28,2.02-1.12,2.21-.69,2.25-.62,2.37-.19,2.41.06,2.5.31,2.42.72,2.3.81,2.26,1.21,2.12,1.39,1.98,1.7,1.78c.07.08.1.17.1.26l3.28,3.13c.14.14.15.37,0,.51l-.91.96c-.04.05-.1.08-.16.09-.01.06-.04.12-.09.17l-67.65,70.8c-.04.05-.1.08-.16.09-.01.06-.04.12-.08.17l-.92.95c-.07.07-.16.11-.26.11-.09,0-.18-.03-.24-.1l-3.22-3.06-.24.26c-.07.07-.17.11-.26.11s-.18-.04-.25-.1l-14.54-13.89-.94,1.07-1.27,2.02-1.12,2.21-.69,2.25-.62,2.37-.19,2.41.06,2.51.31,2.41.71,2.3.82,2.26,1.21,2.12,1.38,1.98,1.71,1.78c.07.08.1.18.1.27l3.27,3.12c.15.14.15.37.02.51l-.92.96s-.07.06-.11.07c-.02.01-.03.02-.05.02-.01.06-.04.12-.09.17l-89.69,93.88c-.05.04-.1.08-.16.09-.01.06-.04.12-.09.17l-.91.95c-.07.07-.17.11-.26.11s-.18-.03-.25-.1l-3.21-3.06-.25.26c-.07.06-.16.1-.25.11h-.01c-.09,0-.18-.04-.25-.1l-14.54-13.89-.93,1.07-1.28,2.02-1.12,2.21-.69,2.25-.62,2.37-.19,2.41.06,2.51.31,2.41.72,2.3.81,2.26,1.21,2.12,1.39,1.98,1.7,1.78c.07.08.1.17.1.26l3.28,3.13c.14.14.15.37,0,.51l-.83.87s-.06.05-.1.07l29.34,28.05,1.5-1.57s.05-.05.08-.07h0s.05-.03.07-.03c.01-.06.04-.11.08-.16l.92-.96c.06-.07.15-.11.25-.11.1.01.19.03.26.1l3.54,3.39h.01s1.9,1.65,1.9,1.65l2.02,1.28,2.2,1.12,2.25.69,2.38.62,2.4.19,2.51-.06,2.42-.31,2.3-.72,2.25-.81,2.13-1.21,1.97-1.39.99-.94-14.54-13.9c-.14-.13-.14-.36,0-.51l.25-.26-3.3-3.15c-.14-.13-.14-.36,0-.51l.91-.95s.1-.08.17-.09c0-.03.01-.05.03-.08.01-.04.03-.06.05-.09l51.15-53.53s.06-.06.1-.07c.02-.02.04-.02.06-.03.02-.06.04-.11.09-.16l.91-.96c.07-.07.16-.11.25-.11.09-.01.19.03.26.1l3.54,3.39h.02s.01.02.01.03l1.79,1.54,1.94,1.19,2.02.96,2.26.69,2.25.36,2.34.11,2.32-.22,2.24-.47,2.23-.81,1.96-1.04,1.89-1.29.9-.86-12.71-12.15c-.07-.07-.11-.16-.11-.26-.01-.09.03-.18.1-.25l.25-.26-3.3-3.15c-.15-.14-.15-.37-.01-.51l.91-.96c.05-.04.1-.08.16-.09h.01s0-.04.01-.06c0-.04.04-.08.07-.11l6.55-6.85c.06-.06.14-.1.23-.1,0-.1.03-.18.1-.25l.83-.87c.13-.14.36-.14.51-.01l3.29,3.15.33-.35c.14-.14.37-.14.51,0l12.71,12.15.78-.9,1.19-1.93.95-2.02.7-2.27.36-2.25.11-2.34-.22-2.32-.47-2.24-.81-2.22-1.04-1.97-1.3-1.89-1.61-1.7c-.07-.07-.1-.16-.1-.25l-3.36-3.22c-.07-.06-.11-.16-.12-.25,0-.1.04-.19.1-.26l.83-.86c.06-.07.15-.11.23-.11,0-.09.04-.17.1-.24l13.68-14.32c.05-.05.11-.08.17-.09.01-.07.04-.12.08-.17l.91-.95c.14-.15.37-.15.51,0l1.91,1.82.08-.09c.19-.19.49-.2.68-.01l18.19,17.38,1.49-1.84,1.54-2.3,1.26-2.52.94-2.68.69-2.61.35-2.75.1-2.85-.32-2.72-.48-2.76-.89-2.62-1.15-2.57-1.4-2.47-1.63-2.2-1.96-2.03c-.18-.19-.17-.5.02-.68.01-.01.02-.02.04-.02,0-.01,0-.02.01-.03.17-.21.47-.23.67-.06l1.56,1.32,1.74,1.02,1.93.86,1.89.53,2.05.19,1.98-.05,2.05-.3,1.86-.62,1.86-.95,1.71-1.11.71-.67-10.2-9.74c-.19-.19-.2-.49-.01-.68.03-.03.06-.06.1-.08l-1.93-1.83c-.07-.07-.11-.16-.11-.26,0-.09.03-.18.1-.25l.91-.96c.06-.06.15-.1.23-.1,0-.09.04-.18.1-.24l57.37-60.04s.1-.08.16-.09c0-.06.04-.12.09-.17l.91-.96c.07-.07.16-.11.25-.11.1-.01.19.03.26.1l3.37,3.22c.09-.01.19.02.26.08l1.9,1.66,2.02,1.27,2.21,1.13,2.25.68,2.37.62,2.41.19,2.51-.06,2.41-.31,2.3-.72,2.26-.81,2.12-1.21,1.98-1.38.9-.87-14.53-13.89c-.15-.13-.15-.36-.01-.51l.33-.34-3.3-3.15c-.07-.07-.11-.16-.11-.25,0-.1.03-.19.1-.26l.91-.96s.1-.08.16-.09c.01-.06.04-.12.09-.17l67.64-70.8s.11-.08.17-.09c.01-.06.04-.11.08-.16l.91-.96c.07-.07.16-.11.26-.11.06,0,.18.03.25.1l3.3,3.15.25-.26c.14-.15.36-.15.51-.01l14.54,13.89.93-1.08,1.28-2.02,1.12-2.2.69-2.25.62-2.38.19-2.4-.06-2.51-.31-2.42-.72-2.3-.81-2.26-1.21-2.12-1.39-1.98-1.7-1.78c-.07-.07-.1-.16-.1-.25l-3.37-3.22c-.14-.14-.14-.37-.01-.51l.83-.87s.08-.06.12-.08c.01-.01.02-.01.04-.02,0-.01.01-.01.01-.01.01-.06.04-.1.08-.15l110.42-115.57s.1-.08.16-.09c.01-.07.04-.12.09-.17l.91-.95c.14-.15.37-.15.51-.02l3.3,3.15.25-.26c.06-.06.15-.1.25-.11.06-.01.19.04.26.1l14.53,13.89.94-1.07,1.28-2.03,1.12-2.2.69-2.25.62-2.37.18-2.41-.06-2.51-.3-2.41-.72-2.3-.81-2.26-1.22-2.12-1.38-1.98-1.71-1.78v-.02s-3.54-3.37-3.54-3.37c-.07-.07-.11-.16-.11-.25,0-.1.03-.19.1-.26l.91-.96s.1-.08.16-.09h0s.01-.05.02-.07c.02-.04.04-.07.07-.1l56.04-58.65h.01c.06-.07.15-.11.25-.11l121.62.03h.01c.06,0,.11,0,.16.05.05-.04.12-.06.19-.06l1.27.06c.19.01.35.17.35.36l.02,4.51.44.04c.19.01.33.17.33.35l-.04,20.05,1.31-.07,2.4-.48,2.32-.72,2.24-.97,2.04-1.3,1.97-1.55,1.72-1.63,1.53-1.95,1.2-2.1,1.12-2.22.6-2.32.45-2.36.2-2.37s-.01-.03-.01-.04l.06-4.92c0-.1.04-.19.11-.26.07-.06.16-.1.27-.1l1.25.06h.01s.04,0,.06,0ZM653.75,15.62v.03s.01.06.03.09c-.02-.04-.03-.08-.03-.12ZM28.73,631l-.14-.14c.05.05.09.12.09.19l.05-.05ZM79.3,578.07l-.14-.14c.05.05.09.12.09.19l.05-.05ZM728.62,543.22l.03.02s0-.03,0-.04l-.02.02ZM347.8,936.88l.02-.02h-.02v.02ZM234.71,423.99c.07.07.16.1.25.1-.09,0-.18-.04-.25-.1ZM541.69,102.17l-.02.02s.01-.01.02-.01h0ZM132.28,522.63l-.15-.14s.09.12.1.19l.05-.05ZM594.44,683.48c.07.01.14.04.19.09l-.14-.14-.05.05ZM895.63,448.64h1.29s-.11-.04-.14-.03l-1.15.03ZM710.19,556.54l-.05.06s.04-.04.06-.05h-.01ZM789.6,473.43l-.04.05s.03-.03.05-.04h-.01ZM57.72,607.67h.01-.01ZM347.88,934.26h0s-.01-.01-.01-.01h.01ZM406.05,874.33h.01-.01s0,0,0,0ZM764,499.01l-.52-.49h0s-2.21-2.1-2.21-2.1l-.07-.06-.07-.08s-.06-.05-.09-.06c-.01-.01-.03-.01-.05-.02s-.04-.01-.05-.01c-.11-.02-.23.01-.32.1l-7.12,7.46c-.09.09-.12.21-.09.32,0,.02.01.05.02.07.01.04.04.09.08.12l.14.14,2.2,2.1.52.49.61.58.24-.24v-.02s.02,0,.02,0l.24-.25,6.63-6.94.24-.25.02-.02.24-.25h-.01l-.6-.58ZM554.53,85.59c.06,0,.19.03.26.1l.25.24h.01l.86.83c.15.14.15.37.02.51l2.19,2.1.15.14s.06.05.09.06c.01.01.03.02.05.02.01.01.03.01.05.01.02.01.04.01.06.01.09,0,.19-.04.26-.11l21.88-22.91c.07-.07.11-.16.1-.25,0-.03,0-.05-.01-.07-.01-.07-.05-.14-.1-.19l-.14-.13-2.2-2.1.08-.09s-.06.06-.1.07l-.42-.4-.08-.08-.61-.58-.26-.25s-.04-.04-.07-.05h-.01s-.04-.03-.07-.03c-.03-.01-.08-.02-.13-.01-.04,0-.08.01-.12.03-.04.01-.08.04-.11.07l-21.88,22.91-.25.26s.1-.08.16-.09c.03-.02.06-.02.09-.02ZM755.56,102.3v-6.85s0-.1.02-.14c.02-.04.05-.08.08-.12.07-.06.15-.1.25-.1h2.56s.05,0,.07.02c.03-.01.06,0,.08.02.16.03.28.17.28.34v7.58s0,13.79,0,13.79v.72s-.01,6.72-.01,6.72c.01.01.01.03.01.05v.36l.02,6.49v.72l.02,6.5v.72l.02,6.83c0,.09-.03.18-.1.25s-.16.11-.26.11h-2.63c-.2,0-.36-.16-.36-.36v-6.58s-.01-8.21-.01-8.21v-6.41s-.01-.72-.01-.72v-6.58s0-.72,0-.72v-6.49s-.01-7.94-.01-7.94ZM756.28,95.81l.04,49.78h1.91l-.07-21.26v-7.22s.01-7.21.01-7.21v-14.09s-1.89,0-1.89,0Z"/>
  </g>
  <g id="Prozori">
    <path class="cls-1" d="M499.48,733.23l-16,16.75-.14-.14s-.03-.02-.04-.02l16.01-16.76s.02.03.03.04l.14.13ZM94.16,562.23s-.05-.06-.06-.09c-.02-.03-.03-.07-.03-.1l-15.11,15.8c.07,0,.14.03.2.09.05.05.09.12.09.19l.05-.05,15-15.7-.14-.14ZM101.02,567.78l-16,16.75.15.14s.09.12.09.19l16.1-16.85c-.07-.01-.14-.04-.19-.09l-.15-.14ZM54.29,603.96s-.07-.08-.08-.12c0-.02-.02-.05-.02-.07l-25.79,27s.03,0,.05.01c.02.01.04.01.05.02.03,0,.06.03.09.06.05.05.09.12.09.19l.05-.05,25.7-26.91-.14-.13ZM61.15,609.52l-26.69,27.94.14.13s.09.12.1.19l26.78-28.03c-.07,0-.14-.04-.19-.09l-.14-.14ZM34.6,633.94l-1.08,1.13c-.07.08-.16.11-.26.11-.09,0-.17-.03-.24-.1l-.26-.24-.5.51-.45-.42-.07-.07-.61-.58-.26-.25-.17-.16-.09-.09.5-.52.58-.61,24.53-25.68.59-.61.49-.52.19.18.07.07.26.25.61.58.17.17.35.33-.41.43.26.25c.07.07.11.16.11.25,0,.1-.04.19-.1.26l-1.08,1.13-10.61,11.1-.99,1.04h-.01l-.91.96-10.61,11.1ZM57.72,607.67h.01-.01ZM728.68,543.27l-.03-.03s0-.03,0-.04l-.02.02-15.09,15.62.23.22s.04.04.05.07l15.23-15.78s-.07.02-.11.02c-.09,0-.18-.03-.25-.1ZM722.75,536.45s-.09-.12-.09-.19l-16.18,16.93c.06.01.14.04.19.09l.15.14,16.08-16.83-.15-.14ZM725.58,541.47l.02-.02.56-.58-.26-.25s-.03-.03-.03-.05c-.11-.14-.1-.34.02-.46l.25-.26.08-.09-.6-.58h-.01l-.22-.21h0s-.28-.27-.28-.27h-.02s-.08.07-.08.07l-.42.43-.25-.24c-.15-.14-.37-.13-.51.01l-1.08,1.13-12.43,13.01-1.08,1.13c-.07.07-.1.16-.1.26,0,.09.04.18.11.25l.26.25-.5.52.52.5.61.58.05-.06.19-.2h.01c.13-.13.32-.15.46-.05.02.01.04.02.05.03l.26.25.57-.59h.01s.01-.03.01-.03h.01s13.82-14.47,13.82-14.47h0ZM745.13,35.39h21.35v-.19c0-.08.02-.15.07-.21h-21.48c.04.06.06.12.06.2v.2ZM744.15,44v.21c0,.07-.02.14-.06.19l23.42.05c-.04-.06-.06-.12-.06-.2v-.2l-23.3-.05ZM744.21,39.11v1.16s-.02.71-.02.71c.01.01.02.01.03.01h.01l.66-.02v.32c0,.09.04.17.09.23.03.04.07.06.11.08.04.03.08.04.13.04.01.01.02.01.03.01h.03l1.41.12s.06.01.09.01h.03l17.92-.07h.05l1.6.05h.01c.09,0,.19-.04.25-.11.07-.07.11-.16.11-.26v-.44s.68.02.68.02v-1.53s-.01-.36-.01-.36c0-.02,0-.04.01-.06.01-.08.04-.15.09-.2.02-.02.05-.04.08-.05.05-.04.11-.06.17-.06h-.32s-.02.01-.02.01h-.15s-.72-.03-.72-.03l-.72-.02h-4.02s-17.56-.01-17.56-.01c-.01-.01-.02,0-.02,0-.1.01-.19.05-.25.13.04.01.08.04.11.07.07.07.11.16.11.25ZM654.24,9.62h36.12s0-.19,0-.19c0-.08.02-.14.06-.2h-36.25s.07.12.07.19v.2ZM691.67,18.28l-38.67-.12v.2c0,.07-.02.14-.07.2l38.8.12c-.04-.06-.06-.13-.06-.21v-.19ZM97.6,568l1.08-1.12c.07-.07.1-.17.1-.26,0-.1-.04-.19-.11-.25l-.26-.25.41-.44-.37-.36-.15-.13-.6-.58-.52-.5-.5.52-.58.61-13.85,14.49-.58.6-.49.52.52.5.6.58.53.5.41-.43.26.25c.07.06.16.09.25.09s.19-.03.26-.11l1.08-1.12,12.51-13.11ZM376.05,912.05l-24.95,26.12.14.14c.06.05.09.11.1.18l25.05-26.21c-.07,0-.13-.03-.19-.09l-.15-.14ZM370.52,905.11s-.06-.06-.07-.1c-.02-.03-.03-.06-.03-.09l-26.78,28.04c.07,0,.13.04.18.08l.15.14,26.69-27.94-.14-.13ZM424.03,862.13l-.15-.14-15,15.71.14.13c.06.05.1.12.1.19l15.1-15.8s-.05-.01-.08-.02c-.04-.01-.08-.04-.11-.07ZM418.1,855.3s-.05-.06-.07-.1c-.01-.03-.02-.05-.02-.08l-16.17,16.93c.07,0,.13.04.18.08l.14.14,16.08-16.83-.14-.14ZM421.51,859.73l.5-.53.33-.34c-.06.06-.14.1-.23.1-.01.01-.02.01-.03.01-.09,0-.18-.04-.25-.1l-.26-.25-.61-.58-.5-.48-.02-.02-.08.09-.41.43-.26-.25c-.07-.07-.16-.1-.25-.1s-.19.04-.26.11l-1.08,1.13-12.44,13.02-1.07,1.12c-.14.15-.14.38.01.51l.26.25-.5.52.52.5.61.58.26.25.26.24.02-.02.48-.49.58-.61,13.92-14.57.5-.52ZM678.55,595.45l-24.95,26.12.14.14s.09.11.1.18l25.04-26.21c-.07,0-.14-.04-.19-.09l-.14-.14ZM673.1,588.42s-.06-.06-.07-.1c-.02-.03-.03-.06-.03-.09l-26.86,28.13c.07,0,.13.04.18.08l.15.14,26.77-28.02-.14-.14ZM675.94,593.44l.23-.25-.23-.22s-.01-.02-.02-.03-.01-.01-.02-.01h0v-.02c-.12-.14-.11-.35,0-.48l.34-.35.16-.17.07-.08.1-.1-.61-.58-.5-.48-.02-.02-.08.09-.42.44-.26-.25c-.14-.14-.37-.13-.51.01l-1.08,1.13-10.59,11.09s-.01.01-.02.01l-.99,1.05-.91.95-10.61,11.11-1.08,1.12c-.14.15-.13.38,0,.51l.26.25-.5.52.52.5.61.58h.01s.24-.26.24-.26l.41-.43c.09-.1.23-.13.34-.1.05,0,.1.02.13.06.02,0,.03.01.04.02l.19.19.07.06.17-.17.02-.03,24.51-25.64.02-.02ZM841.83,455.02h-21.69v.21c0,.07-.02.14-.07.19h21.83c-.05-.06-.07-.13-.07-.21v-.19ZM842.7,446.02s0-.01,0-.02l-23.44-.04.07.19h0c0,.08-.02.15-.07.21h.07l23.3.04h.07c-.05-.06-.07-.13-.07-.2,0-.03,0-.07.02-.1.01-.03.02-.06.04-.08ZM842.6,451.23v-1.8s-.02,0-.03,0h-.62s.03-.35.03-.35v-.04c0-.09-.04-.18-.09-.24-.01-.01-.02-.02-.03-.02-.03-.03-.06-.05-.1-.06-.03-.02-.07-.03-.11-.03h-.04l-1.59-.05h-.02l-17.94.07h-.04l-1.61-.05c-.08-.01-.2.04-.27.12-.07.08-.11.18-.09.29l.04.31-.68-.02h-.02s-.02,0-.03.01v1.6s.03.01.03.01v.26h.81s.02.06.02.09v.39s.74.02.74.02h.01l20.11-.03h.01l.81-.02h.71s0,0,.01,0v-.22s.01-.13.01-.13c0-.04,0-.07-.02-.1,0,0-.01,0-.01.01ZM808.18,460.24l-.23-.22-15,15.7.14.14c.05.05.09.11.1.18l15.06-15.76s-.04-.02-.06-.04h-.01ZM802.09,453.42s-.06-.06-.07-.1c-.02-.03-.03-.06-.03-.09l-16.1,16.84s.06.01.09.02c.04.01.08.04.11.07.05.05.09.12.09.19l.05-.05,16-16.75-.14-.13ZM759.52,511l-.15-.14-15,15.7.14.14s.09.12.1.19l15.09-15.81s-.06-.01-.09-.03c-.03-.01-.06-.03-.09-.05ZM753.7,504.35c-.07-.01-.14-.04-.19-.09-.04-.03-.07-.08-.08-.12-.01-.02-.02-.05-.02-.07l-16.18,16.93s.06.01.09.02c.04.01.08.04.11.07.05.05.09.12.09.19l.05-.05,16.08-16.83.05-.05ZM757,508.59l.5-.52-.52-.5-.61-.58-.52-.49-.5.52-.26-.25c-.14-.14-.37-.13-.51.01l-1.07,1.13-12.44,13.01-1.08,1.13c-.06.07-.1.16-.1.26,0,.09.05.18.12.25l.26.25-.42.43s-.05.06-.07.1l.51.49.6.58h0l.08-.09.12-.13.13-.13c.11-.11.27-.14.41-.08.04.02.07.04.1.07l.26.25.49-.52,13.93-14.58.58-.61ZM783,486.13l-15,15.71.14.13s.05.06.06.09c.02.03.03.07.03.1l15.11-15.8c-.07,0-.14-.03-.2-.09l-.14-.14ZM777.22,479.45s-.06-.06-.07-.1c-.02-.03-.03-.06-.03-.09l-16.18,16.93s.03,0,.05.01.04.01.05.02c.03.01.06.03.09.06l.07.08s.03.07.03.1l.04-.04,16.09-16.84-.14-.13ZM780.13,484.39v-.02s.02,0,.02,0l.48-.49-.26-.25s-.07-.08-.08-.13c-.06-.13-.03-.28.07-.38l.14-.15.05-.04.04-.05.1-.11-.61-.58-.5-.48-.02-.02-.08.09-.42.44-.26-.25c-.07-.07-.16-.12-.25-.11-.1.01-.19.05-.26.12l-1.05,1.1s-.02.02-.02.02h-.01l-12.43,13.02-1.08,1.13c-.13.14-.13.37,0,.51l.26.25-.49.51h0s.52.5.52.5l.6.58h.01l.07-.07.15-.16.02-.03.03-.02c.1-.09.25-.11.36-.07.05.02.09.05.12.08l.26.25.58-.61,13.92-14.56h.01ZM808.37,9.67h21.69v-.2c0-.08.02-.14.07-.2h-21.82l.06.2v.2ZM807.56,18.29v.2c0,.08-.02.14-.07.2l23.35-.04h.01s-.03-.03-.04-.05c-.02-.05-.03-.1-.03-.15v-.2l-23.22.04ZM457.26,182.2c-.06-.05-.09-.12-.1-.19l-25.05,26.22s.03,0,.04.01h.01s.02,0,.03,0c.04.01.08.04.11.07l.15.14,24.95-26.12-.14-.14ZM464.68,187.47l-.15-.14-26.77,28.02.14.14s.06.08.08.12c.01.03.02.05.02.07l26.86-28.13s-.06-.01-.09-.03c-.03-.01-.06-.03-.09-.05ZM448.51,200.73l.91-.95h.01l.99-1.04s.02-.02.02-.03l10.59-11.08,1.08-1.12c.06-.07.1-.17.1-.26,0-.1-.04-.19-.11-.25l-.27-.26.42-.43.04-.04s.02-.04.03-.05l-.34-.32-.17-.16-.6-.59-.23-.22-.04-.03c-.07-.07-.11-.16-.11-.26h0c0-.09.04-.18.09-.24l-.32.34-.33.34-.5.53-.22.24-.02.02h-.01l-24.53,25.68-.17.17-.5.53-.41.43-.25.26s.02-.02.03-.02c.04-.04.08-.07.13-.08.09-.03.18-.02.26.03.03.01.06.03.09.06l.26.24.6.59.08.07.45.42.5-.52.26.25c.06.07.15.1.24.1.1,0,.19-.04.26-.11l1.08-1.13,10.61-11.11ZM403.13,238.86c-.05-.04-.08-.09-.1-.14,0-.01-.01-.03-.01-.04l-25.03,26.21s.04,0,.06.01c.04.01.08.04.12.07l.15.14,24.95-26.11-.14-.14ZM410.54,244.12l-.14-.14-26.78,28.03.15.14c.05.05.08.11.09.18l26.88-28.12c-.07,0-.14-.03-.2-.09ZM394.38,257.39l.91-.95,1-1.04s0-.01.01-.01l10.6-11.1,1.08-1.13c.13-.14.13-.37-.02-.51l-.26-.25.5-.52-.3-.28-.22-.21-.61-.58-.18-.18-.08-.07c-.09-.09-.13-.23-.1-.34h0s.01-.05.02-.07c.02-.04.04-.07.07-.1l-.25.26-.41.43-.5.53-.16.17-24.63,25.77-.16.17-.5.52-.41.43-.25.26s.1-.08.16-.09c.11-.04.23-.02.32.06,0,0,.02.01.03.02l.26.25.6.58.12.11.4.38.5-.51.26.25c.07.06.16.1.25.1.1,0,.19-.04.26-.12l1.08-1.12,10.61-11.11ZM255.65,393.21c-.06-.05-.09-.12-.1-.19l-25.05,26.22c.07,0,.14.03.2.09l.14.13,24.95-26.11-.14-.14ZM263.16,398.53s-.06-.03-.09-.06l-.14-.14-26.7,27.94.14.14s.06.06.07.1c.02.03.03.06.03.09l26.79-28.04s-.04,0-.05,0c-.02,0-.04-.01-.05-.02ZM600.01,32.8s-.07-.08-.08-.12c-.01-.02-.02-.05-.02-.07l-25.05,26.21c.07,0,.14.03.2.09l.14.14,24.95-26.12-.14-.13ZM607.57,38.14s-.04-.01-.05-.02c-.03,0-.06-.03-.09-.06l-.15-.14-26.77,28.03.14.13c.05.05.09.12.1.19l26.87-28.12s-.03,0-.05-.01ZM591.26,51.33l1-1.04.91-.96,10.61-11.1,1.08-1.13c.14-.14.13-.37-.01-.51l-.26-.25.47-.5s.02-.01.03-.02h0s-.34-.33-.34-.33l-.18-.18-.61-.57-.22-.22-.04-.03s-.07-.08-.09-.12c-.02-.07-.03-.15-.01-.22.01-.06.04-.11.08-.16l-.24.26-.42.43-.5.52-.16.17-24.54,25.69-.75.78-.33.34-.33.35s.07-.06.11-.07c.04-.02.08-.03.12-.03.05,0,.1,0,.13.01.03,0,.05.01.07.03h.01s.05.03.07.05l.26.25.61.58.08.08.42.4s.07-.04.1-.07l.42-.44.26.25c.07.07.16.1.25.1s.18-.03.25-.11h0l1.07-1.13,10.61-11.1ZM551.26,83.81s-.05-.06-.06-.09c-.02-.03-.03-.07-.03-.1l-15.1,15.81c.07.01.14.04.19.09l.14.14,15.01-15.71-.15-.14ZM558.36,89.57s-.06-.03-.09-.06l-.15-.14-15.99,16.75.14.14c.05.05.08.11.09.18l16.1-16.84s-.04,0-.05-.01c-.02,0-.04-.01-.05-.02ZM554.71,89.59l1.07-1.13c.14-.14.14-.37-.01-.51l-.26-.24.42-.44c.13-.14.13-.37-.02-.51l-.86-.83h-.01l-.25-.24c-.07-.07-.2-.1-.26-.1-.03,0-.06,0-.09.02-.06,0-.12.04-.16.09l-.5.52-.58.6-13.84,14.49-.58.61-.5.52.19.18.07.07.26.25.61.58.07.07.45.43.41-.44.26.25c.07.07.16.1.25.1s.19-.04.26-.11l1.08-1.13,12.52-13.1ZM201.35,450.04s-.05-.05-.06-.09c-.02-.02-.03-.04-.03-.07-.01-.01-.01-.02-.01-.03l-25.05,26.22c.07,0,.14.03.2.09l.14.13,24.95-26.11-.14-.14ZM208.63,455.16l-26.78,28.03.14.14s.07.08.08.12c0,.02.02.04.02.07l26.87-28.13c-.07-.01-.14-.04-.19-.09l-.14-.14ZM192.58,468.59s.02-.01.03-.02l.99-1.04.91-.95s.02-.02.02-.03l10.59-11.08,1.08-1.13c.07-.07.1-.16.1-.25,0-.1-.04-.19-.11-.26l-.26-.24.5-.52-.34-.33-.18-.17-.61-.58-.22-.21-.04-.04c-.1-.09-.13-.22-.1-.34.01-.06.04-.12.09-.17l-.25.26-.42.44-.49.51-.17.18-24.62,25.77-.17.17-.49.52-.42.43h0s-.02.03-.02.03l-.16.17s.03-.01.04-.01c.02-.01.04-.02.05-.02.1-.03.2-.02.28.04.03.01.05.02.07.04l.04.04.22.21.61.58.09.08.43.42.5-.52.26.25c.07.06.16.1.25.1s.19-.04.26-.11l1.07-1.13,10.59-11.09ZM867.04,9.29c.05.06.07.12.07.2v.2l65.05-.06v-.2c0-.07.03-.14.07-.2l-65.19.06ZM147.13,506.78c-.05-.05-.09-.11-.09-.18l-15.1,15.8c.07.01.14.04.19.09s.09.12.1.19l.05-.05,15-15.71-.15-.14ZM154.23,512.54s-.06-.03-.09-.06l-.15-.14-16.07,16.83.14.14s.05.06.06.09c.02.03.03.07.03.1l16.18-16.93s-.04,0-.05-.01c-.02,0-.03,0-.05-.02ZM150.49,512.65l1.08-1.13c.14-.14.13-.37-.01-.51l-.26-.25.5-.52-.52-.49-.61-.58-.52-.5-.5.52-.58.6-13.93,14.58-.49.52-.5.52c-.07.07-.1.16-.1.25s.04.19.11.26l.25.24.62.59.26.25c.07.06.15.1.25.1h.01s.1-.01.15-.04c.04-.02.07-.04.1-.07l.41-.44.26.25c.07.07.16.1.25.1.1,0,.19-.03.26-.11l1.08-1.13,12.43-13.01ZM300.25,346.53s-.07-.08-.08-.12c-.01-.02-.02-.05-.02-.07l-15.1,15.81c.07.01.14.04.19.09l.07.08.07.06,15.01-15.71-.14-.14ZM307.11,352.09l-16,16.75.14.13c.06.05.09.12.1.19l16.1-16.84c-.07,0-.14-.03-.2-.09l-.14-.14ZM303.69,352.31l.99-1.04c.14-.14.14-.37-.01-.51l-.26-.25.5-.52-.52-.5-.61-.58-.26-.25-.25-.24h0l-.5.52-.58.6-13.84,14.49-.58.61-.5.52.26.25s.03.04.06.04h.01l.2.2.61.58h0s.52.51.52.51l.42-.44.26.25c.07.07.15.1.24.1.1,0,.19-.04.26-.11l1.08-1.13,12.52-13.1ZM348.66,295.86s-.06-.07-.08-.12c0-.02-.02-.05-.02-.07l-15.1,15.81c.07,0,.15.03.2.09l.07.08.07.06,15-15.71-.14-.14ZM355.89,301.55s-.04-.01-.05-.02c-.03-.02-.07-.04-.09-.06l-.15-.14-16.07,16.83.14.14s.09.12.09.19l16.18-16.93s-.03,0-.05,0ZM352.1,301.64l1.08-1.13c.07-.07.1-.16.1-.25,0-.1-.04-.19-.11-.26l-.26-.25.41-.43s.05-.06.07-.1l-.51-.49-.6-.58-.26-.24c-.08-.07-.12-.17-.11-.27,0-.09.03-.17.1-.24l-.34.35-.49.52-15.01,15.7-.5.52.27.25c.06.07.15.1.24.1l.07.07s-.03.06-.05.08l.6.58.52.49h0l.49-.51.26.24c.07.07.16.1.25.1s.19-.03.26-.11l1.08-1.13,12.43-13.01ZM486.5,151.89l14.92-15.62-.14-.14s-.06-.06-.07-.1c-.02-.03-.03-.06-.03-.09l-15.02,15.72c.07,0,.14.03.2.09l.14.14ZM488.37,154.67l-.08.09s-.08.1-.09.17c-.01.03-.01.06-.01.09,0,.09.04.18.11.25l.26.25.61.58.26.25c.07.06.16.1.25.1s.19-.04.26-.12l.5-.52.26.25c.07.07.16.1.24.1.1,0,.19-.03.27-.11l1.07-1.13,12.44-13.01,1.08-1.13c.13-.14.13-.37-.02-.51l-.26-.25.5-.52-.52-.49-.61-.58-.26-.25c-.09-.09-.13-.23-.1-.34h0s.01-.05.02-.07c.02-.04.04-.07.07-.1l-.25.26-.08.08-.49.53-.48.49-.02.03h-.01l-13.92,14.57-1,1.04ZM508.22,141.6l-16.08,16.84.14.13c.06.05.09.12.1.19l16.18-16.93c-.07,0-.14-.03-.2-.09l-.14-.14ZM619.44,657.32l-24.95,26.11-.05.05c.07.01.14.04.19.09.06.05.1.12.1.19l25.05-26.22c-.07,0-.14-.03-.2-.09l-.14-.13ZM614.18,650.37c-.07,0-.14-.04-.19-.09-.03-.03-.05-.06-.06-.09-.02-.02-.03-.04-.03-.07,0,0,0-.02,0-.03l-26.87,28.13s.04,0,.05.01c.02,0,.04.01.05.02.03.01.06.03.09.06l.07.08s.03.06.03.1l.04-.04,26.78-28.03.05-.05ZM617.07,655.05l.5-.52h0s.39-.41.39-.41l.04-.05.23-.24c.14-.14.13-.37-.01-.5l-.26-.25h0s-.86-.83-.86-.83c-.14-.14-.37-.13-.51.01l-.75.78-.26-.25c-.14-.14-.37-.13-.5.01l-1.08,1.13-10.61,11.11-.91.95h-.01l-.99,1.04s-.01.01-.01.02l-10.6,11.09-1.08,1.13c-.13.14-.13.37.01.5l.26.25-.49.52h-.01s.53.5.53.5l.6.58-.49.52.26.25c.07.07.16.1.25.1.08,0,.17-.03.23-.09l.03-.02.25-.26.02-.03.39-.4h0s.49-.53.49-.53h.01l.16-.17,24.62-25.77.17-.17ZM373.43,910.05l-24.54,25.68-.16.17-.5.52-.4.42v.02s-.03,0-.03,0h0s-.21.23-.21.23c.03-.05.05-.09.06-.15.02-.07.02-.15,0-.22-.02-.04-.05-.08-.08-.12h-.01l-.25-.25h-.01l-.6-.58-.52-.5.49-.52-.26-.25c-.06-.06-.1-.15-.11-.25,0-.09.04-.19.1-.26l1.08-1.12,10.6-11.09s0-.01,0-.02l.91-.95h0s1-1.05,1-1.05h.01s10.6-11.1,10.6-11.1l1.08-1.13c.13-.14.36-.15.51-.01l.25.24.42-.43.52.5.61.58.26.25c.07.07.16.1.25.1.03,0,.07-.01.1-.02.06,0,.11-.04.16-.09l-.25.26-.33.35-.75.78ZM347.88,934.25h-.01.01s0,.01,0,0ZM867.2,14.04s-.06,0-.09.02v1.36s.07.02.1.02l64.76-.03c.06,0,.12-.02.17-.05v-1.29s-.11-.06-.18-.06l-64.76.03ZM867.11,13.66h65.04v-.72h-65.04v.72ZM690.36,12.92h-20.44s-.67-.01-.67-.01h-14.54s-2.01-.01-2.01-.01c.06,0,.11.02.16.05.09.04.16.12.18.22.01.03.02.06.02.1v1.15s-.02.14-.02.14v.58h.06l.59.02.06.44v.02s.01.08.03.12c0,.03.01.05.04.07,0,.03.03.05.05.07.03.03.06.05.1.06.04.02.09.03.14.03l1.52-.04h33.59l1.37.05h.01c.19,0,.34-.14.36-.32l.04-.48.68.02h.02v-.64s.02-.91.02-.91v-.31c0-.06.02-.12.05-.17.01-.03.03-.06.05-.08,0-.03.03-.05.05-.06.01-.01.01-.02.02-.02.06-.04.12-.08.19-.08h-1.72ZM805.02,458.33l.56-.58-.26-.25s-.03-.04-.04-.06c-.09-.13-.09-.3.01-.42h.01s.01-.03.01-.03h.02s.06-.06.06-.06l.04-.05.12-.14h.01s-.61-.59-.61-.59l-.52-.5-.5.52-.26-.24c-.14-.14-.37-.14-.51.01l-.99,1.04-12.52,13.1-1.08,1.13c-.13.14-.13.37,0,.51l.26.25-.41.43.52.5.61.58.04-.05.21-.21c.11-.13.31-.15.45-.06.02.01.04.03.06.04l.26.25.58-.6.02-.03,13.8-14.44.04-.05ZM807.6,13.17s.01.04.01.06v1.33s-.02.63-.02.63l.7.02v.36s.02.06.03.08c.02.07.05.13.09.17.07.07.15.11.25.11h.03l1.51-.04,17.98.1h.01l1.53-.03c.18-.01.33-.15.35-.33l.04-.45h.7s.01-.62.01-.62v-.9s0-.49,0-.49c0-.05,0-.1.01-.14,0-.02,0-.04.01-.06,0-.01,0-.02.01-.03h-10.22s-1.14-.01-1.14-.01l-10.3-.03-.82.02h-.33s-.6,0-.6,0c.02.01.04.03.06.05.05.05.08.12.09.19ZM916.98,38.71h.37s0,.36,0,.36v.13s-.01.02-.01.02l-.02.61v.19s0,0,0,0v.72l-.38-.04h-.04l-.64.02-16.81.04h-.06l-.72-.06-.93-.04-.16,2.62-.16.76-.08.4-.38,1.79-1.14,2.8-1.31,2.6-1.85,2.48-2.11,2.04-2.37,1.78-2.64,1.52-2.83,1.03-2.93.59-2.92.24h-.03c-.09,0-.17-.03-.24-.1-.07-.06-.12-.16-.12-.26l-.03-16.33h-.94c-.2-.02-.34-.16-.34-.36v-.36l-.04-4.47v-.35c0-.19.16-.36.36-.36h1.24s.09-.03.14-.03l.34.02.92.04h.01l17.97-.07h.02l1.27.05,1.34-.03h.68s0-.01.01-.01l16.89.04h.32s.35-.02.35-.02ZM897.02,40.68l-.85.07h-18.11s-.01,0-.01,0l-.9-.04v3.36s.01.4.01.4l.03,16.1,2.49-.2,2.84-.57,2.72-.99,2.54-1.47,2.3-1.73,2.04-1.97,1.78-2.37,1.26-2.53,1.12-2.71.33-1.57.08-.4.18-.87.15-2.5ZM236.34,422.79l10.62-11.11s.02,0,.03-.02l.91-.96.91-.95h.01s10.69-11.2,10.69-11.2l.99-1.04c.07-.07.1-.16.1-.25,0-.1-.04-.19-.11-.26l-.26-.24.5-.52c.13-.15.13-.38-.02-.51l-.26-.25-.6-.58-.26-.25c-.1-.09-.24-.12-.35-.08-.06.01-.11.04-.16.09l-.42.44-.49.51-.17.18-24.54,25.68-.25.26-.49.52-.34.35-.25.26c.05-.05.11-.08.17-.09.12-.04.24-.01.33.07h.01s.26.25.26.25h0s.61.59.61.59l.13.13.39.36.42-.43.26.25c.07.06.16.1.25.1s.18-.04.26-.11l1.07-1.13.05-.06ZM502.75,737.52l.5-.52.08-.09.25-.26s-.1.08-.16.09c-.03.02-.06.02-.1.02-.09,0-.18-.03-.25-.09l-.26-.25-.6-.58-.52-.49-.5.51-.35-.33s-.01,0-.01-.01c-.07-.06-.15-.09-.23-.09h-.03c-.09.01-.18.05-.24.11l-.99,1.04-12.52,13.1-1.08,1.13c-.06.07-.1.16-.1.26,0,.09.05.18.11.25l.35.33-.41.43h0s.52.5.52.5l.6.59.26.24c.1.09.13.22.1.34-.01.06-.04.12-.08.17l.24-.26.09-.09.5-.52.48-.51s.01,0,.01-.01l13.85-14.49.49-.52ZM505.21,739.83h-.02s-14.85,15.54-14.85,15.54l.09.09s.06.07.07.11l14.87-15.58s-.07-.04-.1-.07c-.03-.03-.05-.06-.06-.09ZM913.55,455h-36.12s0,.18,0,.18c0,.08-.02.15-.07.21h36.26s-.07-.11-.07-.18v-.21ZM914.86,446.46c-.05-.06-.07-.13-.07-.2h0s0-.08.02-.11c0-.02.01-.04.02-.05,0-.01,0-.01.01-.02l.02-.02h-.01l-38.73-.12v.4s38.67.12,38.67.12h.07ZM914.94,451.67h-.01s-.01,0-.01-.01c-.03-.01-.05-.03-.08-.05-.02-.02-.03-.04-.05-.07-.02-.02-.03-.04-.03-.06-.02-.04-.03-.08-.03-.13v-.35l.02-1.62-.65.02-.06-.38v-.02s-.01-.08-.02-.11c-.02-.06-.05-.11-.1-.15-.06-.06-.14-.09-.23-.09h-.06l-1.48.03-15.23-.04h-1.49l-16.72-.05h0l-1.52.04c-.19,0-.34.15-.35.33l-.04.44-.65.02v1.52s0,.09,0,.09h.03v.2h1.15s.01.03.01.05v.36s.32-.01.32-.01h.01l35.56.12h.24l.72-.02h.57s.33-.02.33-.02c-.04,0-.08-.01-.12-.03-.01.01-.02,0-.03,0Z"/>
  </g>
  <g id="hover" data-name="hover-apartmani" class="cls-6">
    <path id="A1" class="cls-3 field st0" data-image="a1.png" d="M223,712.61l33.44-35-32.28-30.84-2.07,2.17c-.07.07-.16.11-.26.11-.09,0-.18-.03-.25-.1l-12.14-11.6c-.07-.07-.11-.16-.11-.26,0-.09.03-.18.09-.25l1.65-1.72.36-.39.07-.06-1.26-1.2-2.61-2.5-62.68-59.88-2.07,2.16c-.07.07-.16.11-.25.12h-.01c-.1,0-.18-.04-.25-.1l-9.28-8.87c-.15-.14-.15-.37-.02-.51l2.08-2.17-14.41-13.76-19.06,19.95c-.07.07-.17.11-.26.11-.02,0-.04,0-.06-.01l-16.1,16.85c.04.11,0,.23-.08.32l-8.49,8.89-2.5,2.61-12.39,12.96c-.07.08-.16.12-.26.12-.02,0-.04,0-.06-.01l-26.78,28.03c.03.12,0,.23-.09.32l-12.18,12.76,14.4,13.76,3.31-3.47c.14-.15.37-.15.51-.01l11.2,10.69c.14.14.14.36.01.51l-2.49,2.6,65.59,62.67,2.49-2.6c.14-.14.37-.15.51-.01l11.19,10.69c.07.07.11.16.11.25,0,.1-.03.19-.1.26l-3.31,3.47,32.27,30.84,44.19-46.25c.06-.06.14-.1.23-.1,0-.09.03-.17.1-.24l.67-.71-1.5-1.58-1.44-2.04-1.25-2.21-.84-2.33-.74-2.38-.32-2.51-.07-2.58.2-2.51.64-2.45.71-2.32,1.17-2.29,1.32-2.1,1.03-1.19c-.03-.12,0-.24.09-.33l.49-.52c.07-.07.16-.11.26-.11.09-.01.18.03.25.1l.06.06s.01,0,.02,0t.02.02s.01.01.01.02l14.56,13.9.66-.7c.05-.05.1-.08.16-.09h0s.01-.05.02-.07c.02-.04.04-.07.07-.1l1.69-1.77,2.42-2.53Z"/>
    <path id="A2" class="cls-3 field st0" data-image="a2.png" d="M357,572.36l-31.84,33.32c-.04.05-.07.1-.08.17-.07.01-.12.04-.17.09l-.66.69-14.59-13.93-.07-.07c-.14-.14-.37-.13-.51.01l-.5.52c-.06.07-.1.16-.1.26,0,.02,0,.05.02.07l-1.03,1.19-1.33,2.1-1.16,2.29-.72,2.32-.63,2.45-.2,2.51.06,2.58.32,2.51.74,2.38.84,2.33,1.26,2.21,1.44,2.04,1.5,1.58-.76.79s-.03.04-.04.07c-.02.02-.02.05-.03.07h-.01v.02s-.01,0-.01.01c-.06.02-.11.05-.16.09l-11.39,11.93-2.5,2.61-34.35,35.96-32.28-30.84,2.07-2.17c.07-.07.11-.16.1-.25,0-.1-.04-.19-.11-.26l-12.15-11.6c-.14-.14-.37-.13-.5.01l-1.56,1.63-.36.38-.16.16-1.25-1.2-2.61-2.49-62.68-59.89,2.07-2.17c.14-.15.13-.37-.01-.51l-9.29-8.87c-.07-.07-.17-.1-.25-.1-.1,0-.19.04-.26.11l-2.07,2.17-14.4-13.76,13.43-14.06c.09-.09.12-.2.08-.32l16.18-16.93s.04.01.06.01c.09,0,.19-.04.26-.11l14.13-14.79,2.49-2.61,10.73-11.23c.09-.09.12-.21.09-.32l26.87-28.13s.04.01.06.01h.01c.09,0,.18-.04.25-.11l12.02-12.58,14.4,13.76-1.99,2.08c-.06.07-.1.17-.1.26,0,.1.04.19.11.25l9.29,8.87c.07.07.16.1.25.1s.18-.03.26-.11l1.99-2.08,66.54,63.58-1.99,2.08c-.13.15-.13.38.02.51l12.14,11.61c.07.06.16.1.25.1h.01c.09,0,.18-.04.25-.11l1.99-2.08,32.28,30.83Z"/>
    <path id="A3" class="cls-4 field st0" data-image="a3.png" d="M420.78,505.6l-11.39,11.93c-.07.07-.1.16-.1.25-.09,0-.17.04-.23.1l-.58.6-14.59-13.93-.08-.08c-.07-.06-.16-.1-.25-.09-.1,0-.19.04-.26.11l-.58.6c-.08.1-.11.23-.08.34l-.95,1.1-1.32,2.1-1.17,2.29-.71,2.32-.64,2.45-.2,2.5.07,2.59.32,2.51.74,2.38.84,2.33,1.25,2.2,1.44,2.05,1.5,1.58-.75.79c-.05.05-.08.11-.09.17-.06.01-.12.04-.16.09l-31.92,33.41-32.27-30.84,2.07-2.17c.14-.15.13-.37-.01-.51l-12.15-11.61c-.14-.13-.37-.13-.51.02l-2.07,2.16-66.55-63.58,2.07-2.17c.07-.07.11-.16.1-.25,0-.1-.04-.19-.11-.26l-9.28-8.87c-.14-.13-.37-.13-.51.02l-2.07,2.16-14.4-13.76,11.19-11.71c.06-.06.09-.14.09-.23,0-.03,0-.06-.01-.09l26.79-28.04s.04.01.06.01c.09,0,.19-.03.26-.11l11.72-12.27,2.5-2.61,13.46-14.1c.09-.09.12-.21.09-.32l16.1-16.84s.03.01.05.01c.1,0,.19-.04.26-.11l14.18-14.84,14.4,13.76-2.07,2.17c-.14.15-.14.37.01.51l9.28,8.87c.07.06.16.1.25.1h.01c.09,0,.19-.04.25-.11l2.07-2.17,62.68,59.89,2.62,2.5,1.25,1.19-2.07,2.17c-.14.15-.13.37.01.51l12.15,11.61c.07.06.16.1.25.1s.19-.04.26-.11l2.07-2.17,32.27,30.83-34.35,35.96-2.5,2.61Z"/>
    <path id="A4" class="cls-4 field st0" data-image="a4.png" d="M558.19,361.79l-31.92,33.4s-.04.06-.05.09c-.02.03-.03.05-.03.08-.06,0-.11.04-.16.09l-.67.7-14.59-13.94-.07-.07c-.07-.07-.2-.1-.26-.1-.09,0-.18.04-.25.11l-.5.52c-.09.09-.11.22-.08.34l-1.03,1.18-1.33,2.1-1.16,2.29-.71,2.32-.64,2.46-.2,2.5.06,2.58.33,2.52.73,2.37.85,2.33,1.25,2.21,1.44,2.04,1.51,1.58-.68.71s-.08.11-.09.17c-.06.01-.11.04-.16.09l-11.48,12.01-2.5,2.62-34.35,35.95-32.28-30.83,2.07-2.17c.07-.07.11-.17.1-.26,0-.1-.04-.19-.11-.25l-12.14-11.61c-.07-.07-.16-.1-.26-.1s-.19.04-.25.11l-2.07,2.17-1.25-1.2-2.62-2.49-62.68-59.89,2.07-2.17c.14-.14.13-.37-.01-.51l-9.29-8.87c-.06-.07-.16-.11-.25-.1-.1,0-.19.04-.25.11l-2.08,2.17-14.4-13.76,13.93-14.58c.08-.09.11-.21.08-.32l16.18-16.93s.04.01.06.01c.09,0,.19-.03.26-.11l13.63-14.26,2.5-2.62,11.39-11.92c.09-.09.12-.22.08-.33l26.88-28.12s.03.01.05.01c.1,0,.19-.04.26-.11l11.44-11.97,14.41,13.76-2.08,2.17c-.06.07-.1.16-.1.25.01.1.05.19.11.26l9.29,8.87c.07.06.15.1.25.1h.01c.09-.01.18-.05.25-.12l1.99-2.08,66.54,63.58-1.99,2.09c-.13.14-.13.37.02.51l12.14,11.6c.07.07.16.1.25.1h.01c.1,0,.19-.04.25-.11l2.07-2.17,32.28,30.84Z"/>
    <path id="A5" class="cls-4 field st0" data-image="a5.png" d="M624.56,292.33l34.19-35.79-32.28-30.83-2.07,2.17c-.07.07-.16.11-.25.11h0c-.1,0-.18-.04-.25-.1l-12.15-11.61c-.14-.13-.15-.36-.01-.51l2.07-2.17-1.25-1.19-2.61-2.5-62.69-59.89-2.07,2.17c-.06.07-.15.11-.25.11h-.01c-.09,0-.18-.03-.25-.1l-9.28-8.87c-.14-.13-.15-.36-.01-.51l2.07-2.17-14.4-13.76-14.18,14.84c-.07.07-.16.11-.26.11-.02,0-.03,0-.05-.01l-16.18,16.93c.03.11,0,.23-.09.32l-13.38,14.01-2.5,2.61-11.11,11.63h0s-.01.02-.01.02c-.01,0-.01.01-.01.01h-.01s-.03.04-.05.05c-.01.01-.02.03-.03.04-.08.08-.17.12-.26.12-.01,0-.02,0-.03-.01,0,0-.02,0-.03,0h-.01l-26.86,28.13c.03.12,0,.23-.09.32l-11.52,12.06,14.4,13.76,2.07-2.17c.07-.07.16-.11.26-.11.08,0,.18.03.25.1l9.29,8.87c.14.14.15.37.01.51l-1.99,2.08,66.55,63.58,1.99-2.08c.06-.07.15-.11.25-.11.06-.01.19.03.26.1l12.14,11.61c.15.13.15.36.01.5l-2.08,2.17,32.29,30.84,31.83-33.31s.1-.09.16-.1c.01-.06.04-.12.09-.17l.75-.79-1.5-1.58-1.43-2.04-1.26-2.21-.84-2.33-.74-2.37-.32-2.52-.06-2.58.2-2.51.63-2.45.72-2.32,1.16-2.29,1.33-2.1.94-1.09c-.04-.11-.01-.25.08-.34l.58-.61c.07-.07.16-.11.26-.11.06-.01.19.03.25.1l.06.06s.01,0,.02,0t.02.02l14.57,13.92.58-.61c.06-.07.14-.1.23-.1,0-.09.03-.18.1-.25l11.64-12.18,2.42-2.53ZM606.17,269.54s.02.03.03.05c-.01-.02-.03-.04-.05-.06h.02Z"/>
    <path id="A6" class="cls-4 field st0" data-image="a6.png" d="M718.25,145.95v-24.09s-.02-3.68-.02-3.68l-.03-63.72h0s-.01-15.45-.01-15.45l.04-20.18h-26.2s-.01.01-.01.01c-.05,0-.09-.01-.13-.03-.04-.02-.08-.04-.12-.08-.02-.02-.03-.03-.03-.05h-.01l-38.8-.12c-.05.1-.16.16-.29.16l-26.32.09-1.36,1.42-2.68,2.81-14.26,14.92-.08.09c-.07.07-.17.11-.26.11-.02,0-.04,0-.06-.01l-26.87,28.12s.01.04.01.07c0,.09-.03.18-.1.25l-21.88,22.91c-.07.07-.17.11-.26.11-.02,0-.04,0-.06-.01l-16.1,16.84c.04.11.01.23-.08.32l-15.34,16.05,14.41,13.77,2.07-2.17c.07-.07.16-.11.25-.11.05,0,.19.03.26.1l9.28,8.87c.15.13.15.36.01.5l-2.08,2.17,66.56,63.59,2.07-2.17c.07-.07.16-.11.25-.11.06,0,.19.03.26.1l12.15,11.6c.14.14.15.37.01.51l-2.07,2.17,32.27,30.84,11.36-11.89s.1-.08.16-.09c.01-.06.04-.12.09-.17l.75-.79-1.5-1.58-1.43-2.05-1.26-2.2-.84-2.33-.74-2.38-.32-2.51-.06-2.59.2-2.5.63-2.45.72-2.32,1.16-2.29,1.32-2.1.95-1.1c-.03-.12,0-.24.08-.34l.58-.6c.07-.07.16-.11.26-.12.06-.01.19.04.25.1l.06.06s.01,0,.02.01t.02.02l14.57,13.92.66-.69c.05-.05.1-.08.16-.09h0s.01-.05.02-.07c.02-.04.04-.07.07-.1l2.02-2.12,2.5-2.62,11.39-11.92s.02-.02.03-.02c.03-.03.06-.04.09-.06.04-.02.1-.03.15-.03h11.43s.07-45.06.07-45.06v-15.45ZM652.14,84.32s-.02.01-.03,0h.04s0,0,0,0Z"/>
    <path id="A8" class="cls-3 field st0" data-image="a8.png" d="M429.36,842.99l-11.27,11.8s-.06.07-.07.11c-.02.03-.02.06-.02.09-.01.04-.01.09.01.13l-16.17,16.93h-.01c-.11-.03-.23,0-.32.1l-16.28,17.04-2.42,2.53-12.3,12.88c-.09.09-.12.21-.09.32l-26.78,28.04h-.01c-.11-.03-.23,0-.31.09l-12.19,12.76-14.32-13.68,3.32-3.47c.14-.14.13-.37-.01-.51l-11.2-10.69c-.06-.07-.16-.1-.25-.1-.1,0-.19.04-.25.11l-2.49,2.6-65.68-62.75,2.49-2.61c.06-.06.1-.16.1-.25-.01-.1-.05-.19-.12-.25l-11.1-10.62c-.15-.13-.37-.13-.51.02l-3.32,3.47-65.67-62.76,40.61-42.51,33.15,31.67c.07.06.15.1.25.1h.01c.09-.01.18-.05.25-.12l5.05-5.29c.05-.05.08-.11.09-.17.06,0,.12-.04.16-.09l.68-.71,1.69,1.47,2.09,1.33,2.29,1.15,2.33.72,2.45.63,2.5.21,2.58-.07,2.52-.32,2.37-.74,2.33-.84,2.21-1.25,2.05-1.44,1.2-1.14h.02s.09-.06.12-.09l.48-.51.1-.1c.07-.07.1-.16.1-.26,0-.09-.04-.19-.11-.25l-14.66-13.84.66-.69s.07-.1.09-.16l2.53-2.58,33.44-35,43.64,41.69,5.42,5.18,2.61,2.5,69.37,66.27,14.57,13.92Z"/>
    <path id="A9" class="cls-4 field st0" data-image="a9.png" d="M805.97,448.83l-8.31-19.45-1.74.75s-.1.03-.14.03c-.05,0-.09-.01-.14-.03-.09-.04-.16-.11-.19-.19l-5.03-11.77c-.06-.16-.01-.35.14-.44l-.02-97.46-5.59-.04c-.2,0-.35-.16-.36-.36l-.02-13.3.05-3.52c.05-.1.16-.17.29-.17l5.67-.04.07-44.7-61.95.06-31.77,33.25-2.41,2.52-20.26,21.21c-.05.05-.11.08-.17.09-.01.06-.04.12-.08.17l-.67.71,1.49,1.58,1.44,2.04,1.26,2.21.84,2.33.74,2.37.32,2.52.06,2.58-.2,2.5-.63,2.46-.72,2.32-1.16,2.29-1.33,2.1-1.12,1.3c0,.05-.04.1-.08.14l-.47.5-.02.02c-.07.07-.17.11-.26.11s-.18-.03-.25-.1l-14.58-13.93-.66.7s-.1.08-.16.09c-.01.06-.04.12-.09.17l-58.28,60.99,32.28,30.84,2.07-2.17c.14-.14.36-.15.51-.01l12.06,11.52c.07.07.11.16.11.25,0,.1-.03.19-.1.26l-1.99,2.08,66.55,63.58,1.99-2.08c.14-.14.36-.14.51-.01l9.37,8.95c.07.07.11.16.11.26,0,.09-.03.18-.1.25l-2.07,2.17,14.31,13.68,1.83-1.91c.09-.09.2-.12.31-.1l16.18-16.93c-.03-.11,0-.23.09-.32l7.12-7.46c.09-.09.21-.12.32-.1l16.18-16.93s-.01-.06-.01-.09c0-.08.03-.16.09-.23l1.95-2.04,2.5-2.61,3.93-4.12c.09-.09.2-.12.31-.1l16.1-16.84s-.01-.06-.01-.09c0-.08.03-.16.09-.23l3.9-4.08ZM733.84,347.16s.05.01.07.02c-.03,0-.06-.02-.1-.02h.03Z"/>
    <path id="A10" class="cls-4 field st0" data-image="a10.png" d="M630.64,632.33l-16.66,17.44c-.09.09-.12.21-.09.32l-26.87,28.13s-.07-.02-.11,0c-.04.01-.08.02-.11.03-.04.01-.07.04-.1.07l-12.26,12.84-14.58-13.93-77.39-73.94c-.13-.12-.31-.13-.45-.03l-2.43,2.52-43.39,45.41-43.38-41.45,39.91-41.77,2.49-2.61,11.4-11.93s.07-.11.08-.17c.06,0,.12-.04.17-.09l.76-.79,1.68,1.46,2.1,1.33,2.29,1.16,2.32.71,2.45.64,2.51.2,2.58-.06,2.51-.32,2.38-.74,2.33-.84,2.21-1.26,2.04-1.44,1.11-1.05c.06-.02.11-.05.15-.09l.57-.6s.06-.07.08-.11c.02-.04.03-.07.03-.11v-.02s0-.04-.01-.06c0-.04,0-.07-.02-.1-.02-.04-.04-.08-.07-.11h-.01s-14.57-13.94-14.57-13.94l.66-.69s.07-.1.08-.17c.06-.01.12-.04.17-.09l27.51-28.8h.01l4.31-4.52,32.28,30.84-2.08,2.17c-.13.15-.13.37.01.51l12.06,11.52c.07.07.16.1.25.1.1,0,.19-.04.26-.11l2.08-2.17,66.54,63.58-2.07,2.17c-.14.15-.13.38.01.51l9.37,8.96c.07.06.16.1.25.1.1,0,.19-.04.26-.12l2.07-2.16,14.32,13.67Z"/>
    <path id="A11" class="cls-4 field st0" data-image="a11.png" d="M731.2,527.09l-14.32-13.68-2.07,2.17c-.07.07-.17.11-.26.11s-.18-.03-.25-.1l-9.37-8.95c-.07-.07-.11-.16-.11-.25,0-.1.03-.19.1-.26l1.99-2.08-62.69-59.89-2.52-2.41-1.34-1.28-1.99,2.08c-.07.07-.17.11-.26.11s-.18-.03-.25-.1l-12.06-11.52c-.14-.14-.15-.37-.01-.51l2.07-2.17-32.28-30.84-34.35,35.96-2.5,2.61-11.39,11.93s-.1.08-.16.09c-.01.06-.04.12-.09.17l-.67.7,1.5,1.58,1.44,2.05,1.25,2.2.84,2.33.74,2.38.33,2.52.06,2.58-.2,2.5-.64,2.45-.71,2.33-1.17,2.28-1.32,2.1-1.12,1.29h0c-.02.06-.05.11-.08.15l-.49.51c-.07.08-.17.12-.27.12-.09,0-.17-.03-.24-.09h-.01s-14.58-13.93-14.58-13.93l-.66.69s-.1.08-.16.09c-.01.06-.04.12-.09.17l-31.99,33.49,32.27,30.84,2.07-2.17c.14-.14.37-.15.51-.01l12.14,11.43c.07.07.11.16.12.26,0,.09-.04.19-.1.26l-2.16,2.25,66.55,63.58,2.07-2.17c.14-.14.36-.14.51-.01l9.37,8.96c.07.06.11.15.11.25,0,.09-.03.19-.1.26l-2.07,2.17,14.31,13.67,11.36-11.88c.09-.1.21-.13.32-.1h.01l26.86-28.13s-.01-.06-.01-.09c0-.08.03-.16.09-.23l11.48-12.01,2.5-2.62,19.1-19.99c.07-.07.16-.11.25-.11.02,0,.04,0,.07.01l16.18-16.93c-.04-.12-.01-.23.08-.32l8.46-8.85ZM585.99,477.48h-.01s.01-.01.01-.01h0Z"/>
    <path id="A12" class="cls-4 field st0" data-image="a12.png" d="M935.92,445.84l-20.77.06c-.11.01-.2.05-.26.11l-.02.02s-.02.02-.02.03l-38.73-.12v-.18l-15.02.04h-3.6s-14.49.04-14.49.04h-.01s-.1.01-.14.03c-.04.02-.08.04-.11.08-.02.02-.03.03-.04.05l-23.44-.04s0-.03-.03-.04c0,0,.01-.01-.01-.01,0-.01-.01-.02-.03-.03-.02-.02-.05-.04-.08-.05-.04-.02-.09-.03-.14-.03l-8.26-.02-7.85-18.63,3.72-1.6c.19-.07.27-.29.19-.47l-5.02-11.77c-.08-.18-.29-.27-.47-.19l-5.05,2.17.02-89.62v-5.36h.24c.09,0,.19-.04.25-.1.07-.07.11-.16.11-.26l-.04-16.81c0-.09-.04-.18-.11-.25-.07-.07-.2-.11-.26-.1h-.23v-44.68s48.41.08,48.41.08l.03,23.19s.07-.05.12-.05c.01,0,.03,0,.04-.01,0-.01.03-.01.04-.01h.77l1.84.02h.54s.05,0,.07.02c.04,0,.07.01.1.04l.05-23.24s.1.04.16.04l.99-.02.05,19.94c-.06.07-.09.15-.09.25.01.12.07.22.17.27h0s.02.04.03.05c.06.06.15.1.25.1h.69c.1-.02.2-.07.26-.14l1.49-.09,2.49-.49,2.39-.75,2.32-1.01,2.12-1.34,2.03-1.59,1.78-1.69,1.6-2.04,1.23-2.16,1.16-2.31.63-2.41.46-2.43.17-2.14,1.03-.02c.07,0,.13-.02.18-.06.05.04.1.05.16.05l62.7.06.04,44.66-3.56-.02c-.09-.02-.19.03-.26.1s-.11.16-.11.26l.02,15.45c0,.19.16.35.36.35h3.46l-.04,90.69h-3.46c-.1,0-.19.04-.26.11-.06.07-.1.16-.1.26v15.44c.01.2.17.36.37.36l4.73.02.05,19.94Z"/>
    <path class="cls-4" d="M930.79,161.47v-15.43s0-.11.02-.15c.02-.04.04-.08.08-.12.06-.06.15-.1.24-.1h.01l3.54-.08.04-90.7h-3.63c-.2,0-.36-.16-.36-.36l.07-9.99-13.1.05c-.13,0-.23-.06-.29-.16-.05-.06-.07-.12-.07-.2v-.2l-.02-3.29v-.72h0v-.19s.01-.61.01-.61v-.13s.01-.01.01-.02v-.37h-.37s-.35.02-.35.02v-3.47c0-.2.16-.36.36-.36h15.09s.06-19.53.06-19.53c-.05.03-.11.05-.17.05l-64.76.03s-.07-.01-.1-.02v19.43s9.73.02,9.73.02c.2,0,.36.16.36.36v3.48l-.34-.02s-.09.01-.14.03h-1.24c-.2,0-.36.17-.36.36v.35l.04,4.47v.34h-17.82v-25.39h-61.05v127.12l-.07,15.53v44.87s.01.1.01.1l45.8-.08h3.68s2.36-.01,2.36-.01c.1,0,.2.05.27.12.04-.03.1-.04.15-.04l.83-.02.05-20.18v-.04s.01-.08.02-.11c0-.04.03-.07.07-.1.03-.03.06-.06.1-.08.02,0,.05-.02.09-.03.01-.01.02-.01.03-.01h.08l.68-.1c.1-.01.21.02.28.08.03.03.06.06.08.1l1.42.12,2.43.46,2.41.63,2.3,1.16,2.17,1.23,2.03,1.6,1.69,1.78,1.6,2.03,1.34,2.12,1.01,2.32.75,2.39.49,2.49.12,2.17,1.01-.03h0c.05,0,.1.01.14.03.03.01.06.02.08.05.01.01.02.02.03.03h.02s.09-.04.15-.04h.3s4.62-.11,4.62-.11h.01c.15,0,.27.08.32.21.02.03.03.07.03.11.01.01.01.03.01.04l.03,45.81,57.35-.07.04-90.64-3.56-.02c-.2,0-.36-.17-.36-.37Z"/>
  </g>
</svg>