<svg width="64" height="98" viewBox="0 0 64 98" fill="none" xmlns="http://www.w3.org/2000/svg">
<path fill-rule="evenodd" clip-rule="evenodd" d="M45.1359 74.7849C53.9919 64.5151 64 52.9093 64 32.6602C64 14.987 49.6731 0.660156 32 0.660156C14.3269 0.660156 0 14.987 0 32.6602C0 54.2989 10.216 65.7216 19.1383 75.6977C25.3347 82.626 30.9071 88.8565 32 97.3268C33.109 88.7318 38.8305 82.097 45.1359 74.7849ZM32.6668 44.6608C38.9261 44.6608 44.0002 39.5867 44.0002 33.3275C44.0002 27.0682 38.9261 21.9941 32.6668 21.9941C26.4076 21.9941 21.3335 27.0682 21.3335 33.3275C21.3335 39.5867 26.4076 44.6608 32.6668 44.6608Z" fill="#CC6633"/>
</svg>
