<svg width="26" height="27" viewBox="0 0 26 27" fill="none" xmlns="http://www.w3.org/2000/svg">
<path opacity="0.5" d="M13 26.1602C11.2017 26.1602 9.51167 25.8189 7.93 25.1364C6.34833 24.4539 4.9725 23.5277 3.8025 22.3577C2.6325 21.1877 1.70625 19.8118 1.02375 18.2302C0.34125 16.6485 0 14.9585 0 13.1602C0 11.3618 0.34125 9.67182 1.02375 8.09016C1.70625 6.50849 2.6325 5.13266 3.8025 3.96266C4.9725 2.79266 6.34833 1.86641 7.93 1.18391C9.51167 0.501406 11.2017 0.160156 13 0.160156C14.7983 0.160156 16.4883 0.501406 18.07 1.18391C19.6517 1.86641 21.0275 2.79266 22.1975 3.96266C23.3675 5.13266 24.2937 6.50849 24.9762 8.09016C25.6587 9.67182 26 11.3618 26 13.1602C26 14.9585 25.6587 16.6485 24.9762 18.2302C24.2937 19.8118 23.3675 21.1877 22.1975 22.3577C21.0275 23.5277 19.6517 24.4539 18.07 25.1364C16.4883 25.8189 14.7983 26.1602 13 26.1602ZM13 20.3102C13.975 19.3352 14.8417 18.3277 15.6 17.2877C16.25 16.3993 16.8458 15.4243 17.3875 14.3627C17.9292 13.301 18.2 12.2502 18.2 11.2102C18.2 9.78016 17.6908 8.55599 16.6725 7.53766C15.6542 6.51932 14.43 6.01016 13 6.01016C11.57 6.01016 10.3458 6.51932 9.3275 7.53766C8.30917 8.55599 7.8 9.78016 7.8 11.2102C7.8 12.2502 8.07083 13.301 8.6125 14.3627C9.15417 15.4243 9.75 16.3993 10.4 17.2877C11.1583 18.3277 12.025 19.3352 13 20.3102ZM13 13.1602C12.4583 13.1602 11.9979 12.9706 11.6187 12.5914C11.2396 12.2122 11.05 11.7518 11.05 11.2102C11.05 10.6685 11.2396 10.2081 11.6187 9.82891C11.9979 9.44974 12.4583 9.26016 13 9.26016C13.5417 9.26016 14.0021 9.44974 14.3812 9.82891C14.7604 10.2081 14.95 10.6685 14.95 11.2102C14.95 11.7518 14.7604 12.2122 14.3812 12.5914C14.0021 12.9706 13.5417 13.1602 13 13.1602Z" fill="#1C1B1F"/>
</svg>
