<svg width="22" height="25" viewBox="0 0 22 25" fill="none" xmlns="http://www.w3.org/2000/svg">
<g clip-path="url(#clip0_1284_33625)">
<path d="M11.0026 24.5019C11.5182 24.5019 11.8229 24.1386 11.8229 23.6347V21.0918L13.8385 22.2402C14.2721 22.4746 14.7174 22.4394 14.9635 22.0058C15.1745 21.6425 15.0456 21.1855 14.6002 20.9394L11.8229 19.3574V17.8691L11.5885 13.6855L15.1159 15.9707L16.4167 16.7089L16.3932 19.9082C16.3932 20.4121 16.7096 20.7754 17.1198 20.7754C17.6237 20.7754 17.8815 20.4004 17.8815 19.9082L17.8932 17.5644L20.1081 18.8535C20.5651 19.123 20.9987 19.0058 21.2448 18.5839C21.4909 18.1386 21.362 17.6816 20.9284 17.4355L18.7135 16.1582L20.7292 14.9746C21.151 14.7168 21.3385 14.3183 21.0924 13.8964C20.8581 13.5214 20.4127 13.416 19.9792 13.6738L17.2252 15.291L15.9245 14.5527L12.1393 12.6543L15.9362 10.7559L17.2135 10.0059L19.9674 11.623C20.401 11.8808 20.8815 11.7754 21.1042 11.4121C21.3385 10.9902 21.151 10.5801 20.7292 10.3223L18.7135 9.15039L20.9284 7.87305C21.3737 7.61523 21.5026 7.16992 21.2565 6.72461C21.0104 6.30273 20.5651 6.19726 20.1198 6.45508L17.8932 7.7207L17.8698 5.38867C17.8698 4.88476 17.6237 4.5332 17.1315 4.5332C16.6979 4.5332 16.3932 4.88476 16.3932 5.38867L16.4049 8.57617L15.1159 9.32617L11.5885 11.623L11.8229 7.42773V5.93945L14.6002 4.36914C15.0456 4.11133 15.1745 3.66602 14.9635 3.29102C14.7174 2.86914 14.2721 2.82226 13.8385 3.06836L11.8229 4.2168V1.66211C11.8229 1.1582 11.5182 0.806641 11.0026 0.806641C10.5104 0.806641 10.194 1.1582 10.194 1.66211V4.2168L8.14326 3.06836C7.70966 2.82226 7.28779 2.86914 7.02998 3.29102C6.81904 3.66602 6.95966 4.11133 7.40498 4.35742L10.194 5.93945V7.42773L10.4167 11.623L6.88935 9.32617L5.58857 8.57617L5.61201 5.38867C5.61201 4.88476 5.30732 4.5332 4.88544 4.5332C4.38154 4.5332 4.12373 4.89648 4.12373 5.38867L4.11201 7.7207L1.88544 6.45508C1.45185 6.20898 0.9831 6.30273 0.748725 6.72461C0.490913 7.16992 0.631538 7.62695 1.07685 7.87305L3.27998 9.15039L1.27607 10.3223C0.854194 10.5801 0.666694 10.955 0.901069 11.4121C1.11201 11.7871 1.59248 11.8808 2.03779 11.623L4.77998 10.0176L6.06904 10.7559L9.85419 12.6543L6.06904 14.5527L4.77998 15.3027L2.02607 13.6738C1.59248 13.416 1.12373 13.5214 0.924506 13.8847C0.678413 14.3418 0.854194 14.7168 1.27607 14.9746L3.29169 16.1582L1.07685 17.4355C0.643256 17.6816 0.502631 18.1504 0.748725 18.5722C1.00654 19.0175 1.45185 19.0996 1.88544 18.8535L4.11201 17.5878L4.12373 19.9082C4.12373 20.4004 4.38154 20.7754 4.87373 20.7754C5.2956 20.7754 5.61201 20.4121 5.61201 19.9082L5.60029 16.7089L6.88935 15.9824L10.4167 13.6855L10.194 17.8691V19.3574L7.40498 20.9394C6.95966 21.1855 6.81904 21.6425 7.02998 22.0058C7.28779 22.4394 7.70966 22.4746 8.14326 22.2402L10.194 21.08V23.6347C10.194 24.1386 10.5104 24.5019 11.0026 24.5019Z" fill="#3E3F39"/>
</g>
<defs>
<clipPath id="clip0_1284_33625">
<rect width="20.7596" height="23.707" fill="white" transform="translate(0.620239 0.806641)"/>
</clipPath>
</defs>
</svg>
