<svg width="20" height="21" viewBox="0 0 20 21" fill="none" xmlns="http://www.w3.org/2000/svg">
<g clip-path="url(#clip0_1322_24904)">
<path opacity="0.5" d="M19.5815 10.6098C19.5731 9.63048 18.2422 8.91898 16.6434 8.91898H13.2701C12.8014 8.91898 12.6256 8.84364 12.3494 8.52557L6.72434 2.38996C6.54856 2.18907 6.33092 2.08862 6.07981 2.08862H5.10882C4.89119 2.08862 4.76564 2.28115 4.87445 2.51552L7.77066 8.91898L3.51842 9.40448L2.00336 6.62545C1.89454 6.41619 1.71039 6.32412 1.43416 6.32412H1.07423C0.856594 6.32412 0.714294 6.46642 0.714294 6.68404V14.5356C0.714294 14.7533 0.856594 14.8872 1.07423 14.8872H1.43416C1.71039 14.8872 1.89454 14.7951 2.00336 14.5942L3.51842 11.8152L7.77066 12.3007L4.87445 18.7041C4.76564 18.9301 4.89119 19.1311 5.10882 19.1311H6.07981C6.33092 19.1311 6.54856 19.0222 6.72434 18.8297L12.3494 12.6857C12.6256 12.376 12.8014 12.3007 13.2701 12.3007H16.6434C18.2422 12.3007 19.5731 11.5808 19.5815 10.6098Z" fill="black"/>
</g>
<defs>
<clipPath id="clip0_1322_24904">
<rect width="18.8672" height="17.0508" fill="white" transform="translate(0.714294 2.08862)"/>
</clipPath>
</defs>
</svg>
