<svg width="387" height="140" viewBox="0 0 387 140" fill="none" xmlns="http://www.w3.org/2000/svg">
<g filter="url(#filter0_b_1799_3416)">
<g clip-path="url(#clip0_1799_3416)">
<rect y="0.660156" width="387" height="139" rx="37" fill="#50543E"/>
<path fill-rule="evenodd" clip-rule="evenodd" d="M144 0.660156H0V139.66H144V0.660156ZM45.5899 27.0016C46.2177 27.0016 46.7746 27.113 47.2606 27.3357C47.7467 27.5585 48.1871 27.8876 48.582 28.323L47.61 29.4469C47.0227 28.89 46.4151 28.6116 45.7874 28.6116C45.4228 28.6116 45.1343 28.723 44.9216 28.9457C44.709 29.1584 44.6027 29.4469 44.6027 29.8115C44.6027 30.1659 44.7191 30.4595 44.952 30.6924C45.1849 30.9253 45.6253 31.1734 46.2734 31.4366C46.8607 31.6796 47.3315 31.9378 47.6859 32.2112C48.0504 32.4846 48.3289 32.8238 48.5213 33.2289C48.7238 33.6339 48.8251 34.1351 48.8251 34.7325C48.8251 35.3502 48.6833 35.9071 48.3998 36.4033C48.1163 36.8994 47.7112 37.2893 47.1847 37.5728C46.6582 37.8563 46.0456 37.9981 45.3469 37.9981C44.628 37.9981 44.0002 37.8715 43.4635 37.6183C42.937 37.3551 42.4611 36.9956 42.0358 36.54L43.0838 35.3856C43.4382 35.7097 43.7825 35.9577 44.1166 36.1299C44.4609 36.2919 44.8254 36.3729 45.2102 36.3729C45.6557 36.3729 45.9949 36.2412 46.2278 35.978C46.4708 35.7046 46.5923 35.3401 46.5923 34.8844C46.5923 34.4693 46.481 34.1351 46.2582 33.882C46.0354 33.6187 45.6304 33.3656 45.0431 33.1226C44.0913 32.7276 43.4129 32.2872 43.0079 31.8012C42.6028 31.3151 42.4003 30.7025 42.4003 29.9633C42.4003 29.3862 42.537 28.8748 42.8104 28.4293C43.0838 27.9838 43.4635 27.6344 43.9496 27.3813C44.4356 27.1282 44.9824 27.0016 45.5899 27.0016ZM47.3214 23.6601L48.0504 24.4196L46.2734 26.3485H45.0279L43.2661 24.4196L43.9951 23.6601L45.6507 24.9056L47.3214 23.6601ZM73.2113 80.8872V85.6256H108.33C110.995 85.6256 113.155 87.7858 113.155 90.4506V106.084C113.155 108.63 111.091 110.694 108.545 110.694V109.315C110.33 109.315 111.776 107.869 111.776 106.084V90.4506C111.776 88.5472 110.233 87.0042 108.33 87.0042H35.9606C34.0571 87.0042 32.5141 88.5472 32.5141 90.4506V106.437C32.5141 108.34 34.0571 109.884 35.9606 109.884H36.6632V111.262H35.9606C33.2957 111.262 31.1355 109.102 31.1355 106.437V90.4506C31.1355 87.7858 33.2957 85.6256 35.9606 85.6256H71.8327V80.8872H70.2665V67.3293H71.8327V62.0566H73.2113V67.3293H74.7736V80.8872H73.2113ZM60.6902 73.1027H36.4648V71.7241H60.6902V73.1027ZM36.6622 100.273C36.6622 98.3694 38.2053 96.8264 40.1087 96.8264H45.3118C47.2153 96.8264 48.7583 98.3694 48.7583 100.273C48.7583 98.3694 50.3021 96.8264 52.2056 96.8264H57.4087C59.2863 96.8264 60.8132 98.3278 60.8544 100.196C60.8955 98.3278 62.4224 96.8264 64.3 96.8264H69.5031C71.4066 96.8264 72.9496 98.3694 72.9496 100.273C72.9496 98.3694 74.4934 96.8264 76.3969 96.8264H81.6C83.5034 96.8264 85.0465 98.3694 85.0465 100.273C85.0465 98.3694 86.5903 96.8264 88.4938 96.8264H93.6969C95.6003 96.8264 97.1434 98.3694 97.1434 100.273C97.1434 98.3694 98.6872 96.8264 100.591 96.8264H104.987C106.891 96.8264 108.434 98.3694 108.434 100.273V109.764H97.1434H85.0465H72.9496H60.8552H60.8535H48.7583H36.6622V100.273ZM108.431 113.595C108.431 115.498 106.888 117.041 104.985 117.041H99.7817C97.9041 117.041 96.3772 115.54 96.336 113.672C96.2948 115.54 94.7679 117.041 92.8904 117.041H87.6873C85.7838 117.041 84.2408 115.498 84.2408 113.595C84.2408 115.498 82.6969 117.041 80.7935 117.041H75.5904C73.6869 117.041 72.1439 115.498 72.1439 113.595C72.1439 115.498 70.6001 117.041 68.6966 117.041H64.2999C62.3965 117.041 60.8534 115.498 60.8534 113.595C60.8534 115.498 59.3105 117.041 57.407 117.041H52.2039C50.3263 117.041 48.7994 115.54 48.7582 113.672C48.7171 115.54 47.1902 117.041 45.3126 117.041H40.1095C38.206 117.041 36.663 115.498 36.663 113.595V111.381H48.7574H48.7591H60.8534H72.1439H84.2408H96.3352H96.3369H108.431V113.595ZM84.1643 73.1027H108.39V71.7241H84.1643V73.1027ZM65.1969 75.2379C66.7526 75.2379 68.0138 73.9733 68.0138 72.4134C68.0138 70.8534 66.7526 69.5888 65.1969 69.5888C63.6411 69.5888 62.38 70.8534 62.38 72.4134C62.38 73.9733 63.6411 75.2379 65.1969 75.2379ZM82.6617 72.4134C82.6617 73.9733 81.4005 75.2379 79.8448 75.2379C78.289 75.2379 77.0279 73.9733 77.0279 72.4134C77.0279 70.8534 78.289 69.5888 79.8448 69.5888C81.4005 69.5888 82.6617 70.8534 82.6617 72.4134ZM55.0934 28.809L55.3212 27.2446H49.9293V37.755H55.2908V36.1754H52.0861V33.1833H54.7137V31.6341H52.0861V28.809H55.0934ZM59.1616 27.0016C59.7894 27.0016 60.3463 27.113 60.8324 27.3357C61.3184 27.5585 61.7589 27.8876 62.1538 28.323L61.1817 29.4469C60.5944 28.89 59.9869 28.6116 59.3591 28.6116C58.9946 28.6116 58.706 28.723 58.4933 28.9457C58.2807 29.1584 58.1744 29.4469 58.1744 29.8115C58.1744 30.1659 58.2908 30.4595 58.5237 30.6924C58.7566 30.9253 59.1971 31.1734 59.8451 31.4366C60.4324 31.6796 60.9032 31.9378 61.2576 32.2112C61.6222 32.4846 61.9006 32.8238 62.093 33.2289C62.2955 33.6339 62.3968 34.1351 62.3968 34.7325C62.3968 35.3502 62.255 35.9071 61.9715 36.4033C61.688 36.8994 61.283 37.2893 60.7564 37.5728C60.2299 37.8563 59.6173 37.9981 58.9186 37.9981C58.1997 37.9981 57.5719 37.8715 57.0352 37.6183C56.5087 37.3551 56.0328 36.9956 55.6075 36.54L56.6555 35.3856C57.0099 35.7097 57.3542 35.9577 57.6884 36.1299C58.0326 36.2919 58.3971 36.3729 58.7819 36.3729C59.2275 36.3729 59.5667 36.2412 59.7995 35.978C60.0426 35.7046 60.1641 35.3401 60.1641 34.8844C60.1641 34.4693 60.0527 34.1351 59.8299 33.882C59.6072 33.6187 59.2021 33.3656 58.6148 33.1226C57.663 32.7276 56.9846 32.2872 56.5796 31.8012C56.1746 31.3151 55.9721 30.7025 55.9721 29.9633C55.9721 29.3862 56.1087 28.8748 56.3821 28.4293C56.6555 27.9838 57.0352 27.6344 57.5213 27.3813C58.0073 27.1282 58.5541 27.0016 59.1616 27.0016ZM68.9008 28.9002L69.1286 27.2446H62.4609V28.9002H64.6632V37.755H66.8048V28.9002H68.9008ZM72.9892 27.0016C74.2448 27.0016 75.2118 27.4573 75.8902 28.3686C76.5686 29.2799 76.9078 30.657 76.9078 32.4998C76.9078 34.3224 76.5686 35.6945 75.8902 36.6159C75.2118 37.5373 74.2448 37.9981 72.9892 37.9981C71.7235 37.9981 70.7514 37.5424 70.073 36.6311C69.4047 35.7198 69.0706 34.3427 69.0706 32.4998C69.0706 30.6873 69.4098 29.3204 70.0882 28.3989C70.7666 27.4674 71.7336 27.0016 72.9892 27.0016ZM72.9892 28.6116C72.412 28.6116 71.9868 28.9103 71.7134 29.5077C71.44 30.095 71.3033 31.0924 71.3033 32.4998C71.3033 33.9275 71.44 34.935 71.7134 35.5223C71.9868 36.0995 72.412 36.3881 72.9892 36.3881C73.3841 36.3881 73.703 36.2666 73.9461 36.0235C74.1891 35.7805 74.3713 35.3755 74.4928 34.8085C74.6144 34.2414 74.6751 33.4719 74.6751 32.4998C74.6751 31.0924 74.5384 30.095 74.265 29.5077C73.9916 28.9103 73.5664 28.6116 72.9892 28.6116ZM82.6806 27.3357C82.1946 27.113 81.6377 27.0016 81.0099 27.0016C80.4024 27.0016 79.8556 27.1282 79.3695 27.3813C78.8835 27.6344 78.5038 27.9838 78.2304 28.4293C77.957 28.8748 77.8203 29.3862 77.8203 29.9633C77.8203 30.7025 78.0228 31.3151 78.4278 31.8012C78.8329 32.2872 79.5113 32.7276 80.4631 33.1226C81.0504 33.3656 81.4554 33.6187 81.6782 33.882C81.9009 34.1351 82.0123 34.4693 82.0123 34.8844C82.0123 35.3401 81.8908 35.7046 81.6478 35.978C81.4149 36.2412 81.0757 36.3729 80.6302 36.3729C80.2454 36.3729 79.8809 36.2919 79.5366 36.1299C79.2025 35.9577 78.8582 35.7097 78.5038 35.3856L77.4558 36.54C77.8811 36.9956 78.357 37.3551 78.8835 37.6183C79.4202 37.8715 80.048 37.9981 80.7669 37.9981C81.4655 37.9981 82.0781 37.8563 82.6047 37.5728C83.1312 37.2893 83.5362 36.8994 83.8198 36.4033C84.1033 35.9071 84.245 35.3502 84.245 34.7325C84.245 34.1351 84.1438 33.6339 83.9413 33.2289C83.7489 32.8238 83.4704 32.4846 83.1059 32.2112C82.7515 31.9378 82.2807 31.6796 81.6934 31.4366C81.0453 31.1734 80.6049 30.9253 80.372 30.6924C80.1391 30.4595 80.0226 30.1659 80.0226 29.8115C80.0226 29.4469 80.129 29.1584 80.3416 28.9457C80.5542 28.723 80.8428 28.6116 81.2073 28.6116C81.8351 28.6116 82.4427 28.89 83.03 29.4469L84.002 28.323C83.6071 27.8876 83.1666 27.5585 82.6806 27.3357ZM90.7412 27.2446L90.5134 28.809H87.506V31.6341H90.1336V33.1833H87.506V36.1754H90.7108V37.755H85.3493V27.2446H90.7412ZM96.7196 27.6547C96.0716 27.3813 95.302 27.2446 94.411 27.2446H91.9201V37.755H94.5932C95.8995 37.755 96.9424 37.3652 97.7221 36.5855C98.5119 35.8058 98.9068 34.4288 98.9068 32.4543C98.9068 31.0468 98.7043 29.9633 98.2992 29.2039C97.8942 28.4344 97.3677 27.918 96.7196 27.6547ZM94.0768 36.1754V28.8242H94.7148C95.14 28.8242 95.4944 28.9204 95.7779 29.1128C96.0615 29.2951 96.2842 29.6495 96.4462 30.176C96.6184 30.7025 96.7044 31.4619 96.7044 32.4543C96.7044 33.4263 96.6234 34.1857 96.4614 34.7325C96.2994 35.2793 96.0716 35.659 95.7779 35.8717C95.4944 36.0742 95.14 36.1754 94.7148 36.1754H94.0768ZM55.0451 43.9519L54.8173 45.6075H52.7213V54.4624H50.5797V45.6075H48.3774V43.9519H55.0451ZM58.7866 50.3007L60.5788 54.4624H62.8723L60.6852 49.8906C61.2421 49.6274 61.6522 49.2527 61.9154 48.7667C62.1888 48.2705 62.3255 47.7085 62.3255 47.0808C62.3255 44.9949 61.0446 43.9519 58.4828 43.9519H55.84V54.4624H57.9968V50.3007H58.7866ZM59.7587 48.387C59.5157 48.6604 59.1157 48.7971 58.5588 48.7971H57.9968V45.486H58.4677C59.0549 45.486 59.4752 45.6176 59.7283 45.8809C59.9916 46.134 60.1232 46.534 60.1232 47.0808C60.1232 47.6782 60.0017 48.1136 59.7587 48.387ZM70.3704 54.4624H67.6973L65.2367 45.9872L65.2823 46.4125C65.3532 47.0808 65.4089 47.7035 65.4494 48.2806C65.5 48.8578 65.5253 49.516 65.5253 50.2551V54.4624H63.6419V43.9519H66.3151L68.7908 52.4423C68.7098 51.9968 68.6389 51.4398 68.5782 50.7716C68.5174 50.0931 68.4871 49.3995 68.4871 48.6907V43.9519H70.3704V54.4624ZM78.4785 45.0759C77.8 44.1646 76.833 43.7089 75.5775 43.7089C74.3219 43.7089 73.3549 44.1747 72.6765 45.1063C71.998 46.0277 71.6588 47.3946 71.6588 49.2071C71.6588 51.05 71.993 52.4271 72.6613 53.3384C73.3397 54.2497 74.3118 54.7054 75.5775 54.7054C76.833 54.7054 77.8 54.2447 78.4785 53.3232C79.1569 52.4018 79.4961 51.0298 79.4961 49.2071C79.4961 47.3643 79.1569 45.9872 78.4785 45.0759ZM74.3016 46.215C74.575 45.6176 75.0003 45.3189 75.5775 45.3189C76.1546 45.3189 76.5799 45.6176 76.8533 46.215C77.1267 46.8023 77.2634 47.7997 77.2634 49.2071C77.2634 50.1792 77.2026 50.9488 77.0811 51.5158C76.9596 52.0828 76.7773 52.4879 76.5343 52.7309C76.2913 52.9739 75.9724 53.0954 75.5775 53.0954C75.0003 53.0954 74.575 52.8068 74.3016 52.2296C74.0282 51.6424 73.8915 50.6349 73.8915 49.2071C73.8915 47.7997 74.0282 46.8023 74.3016 46.215ZM84.9973 54.4624H82.2785L79.8332 43.9519H81.99L83.6607 52.6701L85.2403 43.9519H87.3363L84.9973 54.4624ZM94.4975 45.0759C93.8191 44.1646 92.8521 43.7089 91.5965 43.7089C90.341 43.7089 89.374 44.1747 88.6955 45.1063C88.0171 46.0277 87.6779 47.3946 87.6779 49.2071C87.6779 51.05 88.0121 52.4271 88.6804 53.3384C89.3588 54.2497 90.3308 54.7054 91.5965 54.7054C92.8521 54.7054 93.8191 54.2447 94.4975 53.3232C95.176 52.4018 95.5152 51.0298 95.5152 49.2071C95.5152 47.3643 95.176 45.9872 94.4975 45.0759ZM90.3207 46.215C90.5941 45.6176 91.0194 45.3189 91.5965 45.3189C92.1737 45.3189 92.599 45.6176 92.8724 46.215C93.1458 46.8023 93.2825 47.7997 93.2825 49.2071C93.2825 50.1792 93.2217 50.9488 93.1002 51.5158C92.9787 52.0828 92.7964 52.4879 92.5534 52.7309C92.3104 52.9739 91.9914 53.0954 91.5965 53.0954C91.0194 53.0954 90.5941 52.8068 90.3207 52.2296C90.0473 51.6424 89.9106 50.6349 89.9106 49.2071C89.9106 47.7997 90.0473 46.8023 90.3207 46.215Z" fill="#D1D7B4"/>
<path d="M248.644 32.6602H246.361L244.259 25.4198L244.298 25.7831C244.358 26.354 244.406 26.886 244.44 27.3791C244.484 27.8722 244.505 28.4344 244.505 29.0659V32.6602H242.896V23.681H245.18L247.295 30.9344C247.226 30.5538 247.165 30.078 247.113 29.5071C247.061 28.9275 247.035 28.335 247.035 27.7294V23.681H248.644V32.6602ZM254.04 32.6602L253.638 30.61H251.484L251.082 32.6602H249.265L251.484 23.681H253.69L255.896 32.6602H254.04ZM251.743 29.2735H253.378L252.561 25.0435L251.743 29.2735ZM261.415 23.4734C261.951 23.4734 262.427 23.5686 262.842 23.7589C263.257 23.9492 263.634 24.2303 263.971 24.6023L263.141 25.5625C262.639 25.0867 262.12 24.8488 261.583 24.8488C261.272 24.8488 261.026 24.944 260.844 25.1343C260.662 25.316 260.571 25.5625 260.571 25.8739C260.571 26.1767 260.671 26.4275 260.87 26.6265C261.069 26.8255 261.445 27.0374 261.999 27.2623C262.5 27.4699 262.903 27.6905 263.205 27.9241C263.517 28.1576 263.755 28.4474 263.919 28.7934C264.092 29.1394 264.179 29.5676 264.179 30.078C264.179 30.6057 264.057 31.0815 263.815 31.5053C263.573 31.9292 263.227 32.2622 262.777 32.5044C262.327 32.7467 261.804 32.8678 261.207 32.8678C260.593 32.8678 260.057 32.7596 259.598 32.5434C259.148 32.3185 258.742 32.0114 258.379 31.6221L259.274 30.636C259.577 30.9128 259.871 31.1247 260.156 31.2718C260.45 31.4102 260.762 31.4794 261.09 31.4794C261.471 31.4794 261.761 31.3669 261.96 31.142C262.167 30.9084 262.271 30.597 262.271 30.2078C262.271 29.8531 262.176 29.5676 261.986 29.3514C261.795 29.1265 261.449 28.9102 260.948 28.7026C260.135 28.3652 259.555 27.9889 259.209 27.5737C258.863 27.1585 258.69 26.6351 258.69 26.0037C258.69 25.5106 258.807 25.0737 259.04 24.6931C259.274 24.3125 259.598 24.0141 260.013 23.7978C260.429 23.5816 260.896 23.4734 261.415 23.4734ZM269.081 32.6602L268.679 30.61H266.525L266.123 32.6602H264.306L266.525 23.681H268.731L270.937 32.6602H269.081ZM266.784 29.2735H268.419L267.602 25.0435L266.784 29.2735ZM279.072 32.6602H277.333L277.216 28.9751L277.191 28.1836C277.182 27.9154 277.173 27.604 277.165 27.2493C277.156 26.8947 277.152 26.5054 277.152 26.0815L277.165 25.3419L276.049 31.687H274.323L273.142 25.3419C273.168 25.9128 273.181 26.4794 273.181 27.0417C273.181 27.6818 273.168 28.3393 273.142 29.014L273.025 32.6602H271.313L271.871 23.681H274.141L275.218 29.9223L276.204 23.681H278.514L279.072 32.6602ZM283.15 23.4734C284.222 23.4734 285.048 23.8627 285.628 24.6412C286.207 25.4198 286.497 26.5962 286.497 28.1706C286.497 29.7277 286.207 30.8998 285.628 31.687C285.048 32.4742 284.222 32.8678 283.15 32.8678C282.068 32.8678 281.238 32.4785 280.658 31.7C280.087 30.9214 279.802 29.745 279.802 28.1706C279.802 26.6222 280.092 25.4544 280.671 24.6672C281.251 23.8713 282.077 23.4734 283.15 23.4734ZM283.15 24.8488C282.656 24.8488 282.293 25.104 282.06 25.6144C281.826 26.1161 281.709 26.9682 281.709 28.1706C281.709 29.3903 281.826 30.251 282.06 30.7527C282.293 31.2458 282.656 31.4924 283.15 31.4924C283.487 31.4924 283.759 31.3885 283.967 31.1809C284.175 30.9733 284.33 30.6273 284.434 30.1429C284.538 29.6585 284.59 29.001 284.59 28.1706C284.59 26.9682 284.473 26.1161 284.24 25.6144C284.006 25.104 283.643 24.8488 283.15 24.8488Z" fill="#D1D7B4"/>
<path d="M220.611 86.2972C220.611 87.1979 220.588 88.0535 220.543 88.8641C220.543 89.6747 220.476 90.4178 220.341 91.0933C221.241 91.0482 222.119 91.0257 222.975 91.0257C223.831 90.9807 224.686 90.9356 225.542 90.8906V93.6602H208.587V91.431H209.06C210.591 91.2959 211.739 90.8681 212.505 90.1476C213.27 89.427 213.788 88.4588 214.059 87.2429C214.329 86.027 214.464 84.5859 214.464 82.9197V80.623H193.929V77.313L218.382 45.2943H220.611V76.57L227.433 76.6375V80.623H220.611V86.2972ZM214.329 54.8864L198.387 76.2322L214.464 76.4349V54.8864H214.329ZM250.738 94.741C247.315 94.741 244.478 94.0204 242.226 92.5794C239.975 91.0933 238.218 89.1568 236.957 86.7701C235.697 84.3383 234.796 81.6813 234.255 78.7991C233.76 75.917 233.512 73.0574 233.512 70.2203C233.512 67.3832 233.828 64.5011 234.458 61.5739C235.134 58.6467 236.169 55.9672 237.565 53.5354C238.961 51.0586 240.763 49.0771 242.969 47.591C245.176 46.0599 247.856 45.2943 251.008 45.2943C254.295 45.2943 257.02 46.0374 259.181 47.5235C261.388 49.0096 263.122 50.9685 264.383 53.4003C265.689 55.7871 266.612 58.4215 267.152 61.3037C267.693 64.1858 267.963 67.0454 267.963 69.8825C267.963 72.6746 267.648 75.5342 267.017 78.4614C266.387 81.3886 265.396 84.0906 264.045 86.5674C262.694 88.9992 260.915 90.9807 258.709 92.5118C256.547 93.9979 253.89 94.741 250.738 94.741ZM251.143 92.1065C253.079 92.1065 254.678 91.4986 255.939 90.2827C257.2 89.0668 258.191 87.4456 258.911 85.4191C259.677 83.3925 260.217 81.1634 260.532 78.7316C260.848 76.2548 261.005 73.7779 261.005 71.3011C261.005 68.5541 260.848 65.807 260.532 63.06C260.217 60.313 259.677 57.7911 258.911 55.4944C258.146 53.1977 257.11 51.3513 255.804 49.9553C254.498 48.5592 252.854 47.8612 250.873 47.8612C248.936 47.8612 247.293 48.4692 245.942 49.6851C244.636 50.901 243.577 52.5222 242.767 54.5487C241.956 56.5752 241.371 58.8268 241.01 61.3037C240.65 63.7805 240.47 66.2799 240.47 68.8017C240.47 70.6931 240.56 72.6971 240.74 74.8137C240.92 76.9303 241.236 79.0243 241.686 81.0958C242.181 83.1223 242.834 84.9687 243.645 86.635C244.456 88.3012 245.469 89.6297 246.685 90.6204C247.901 91.6111 249.387 92.1065 251.143 92.1065ZM274.657 93.6602V91.6337C276.053 91.6337 277.021 91.2959 277.561 90.6204C278.102 89.8999 278.417 88.9317 278.507 87.7158C278.597 86.4548 278.642 85.0138 278.642 83.3925V67.9911C278.642 67.2706 278.642 66.5501 278.642 65.8295C278.687 65.109 278.777 64.366 278.912 63.6004C278.102 63.6454 277.291 63.6905 276.481 63.7355C275.715 63.7805 274.927 63.8256 274.116 63.8706V61.0335C276.098 61.0335 277.584 60.9434 278.575 60.7633C279.61 60.5832 280.376 60.358 280.871 60.0878C281.367 59.8176 281.772 59.5249 282.087 59.2096H284.046C284.136 59.66 284.181 60.1779 284.181 60.7633C284.226 61.3487 284.271 62.0242 284.316 62.7898C285.667 61.6189 287.221 60.6732 288.977 59.9527C290.734 59.1871 292.49 58.8043 294.246 58.8043C296.498 58.8043 298.389 59.2096 299.92 60.0202C301.452 60.8308 302.645 61.9342 303.501 63.3302C305.032 62.0693 306.788 61.011 308.769 60.1553C310.796 59.2547 312.777 58.8043 314.714 58.8043C318.632 58.8043 321.514 59.9977 323.36 62.3845C325.207 64.7262 326.085 68.5766 325.995 73.9355L325.927 86.4999C325.927 87.4005 325.905 88.2111 325.86 88.9317C325.86 89.6072 325.792 90.3277 325.657 91.0933C326.378 91.0482 327.076 91.0257 327.751 91.0257C328.472 90.9807 329.192 90.9356 329.913 90.8906V93.6602H316.132V91.6337C317.528 91.6337 318.497 91.2959 319.037 90.6204C319.577 89.8999 319.893 88.9317 319.983 87.7158C320.073 86.4548 320.118 85.0138 320.118 83.3925V73.9355C320.118 70.0627 319.487 67.158 318.226 65.2216C317.011 63.2852 315.074 62.3395 312.417 62.3845C311.021 62.3845 309.625 62.6997 308.229 63.3302C306.833 63.9607 305.617 64.7487 304.581 65.6944C304.807 66.415 304.964 67.2031 305.054 68.0587C305.189 68.8693 305.257 69.7249 305.257 70.6256C305.212 73.2375 305.189 75.872 305.189 78.5289C305.189 81.1859 305.167 83.8429 305.122 86.4999C305.122 87.4005 305.099 88.2111 305.054 88.9317C305.054 89.6072 304.987 90.3277 304.852 91.0933C305.572 91.0482 306.27 91.0257 306.946 91.0257C307.666 90.9807 308.387 90.9356 309.107 90.8906V93.6602H295.327V91.6337C296.723 91.6337 297.669 91.2959 298.164 90.6204C298.705 89.8999 299.02 88.9317 299.11 87.7158C299.245 86.4548 299.312 85.0138 299.312 83.3925L299.38 73.9355C299.425 70.0627 298.862 67.1355 297.691 65.154C296.52 63.1726 294.606 62.2044 291.95 62.2494C290.553 62.2494 289.18 62.5646 287.829 63.1951C286.478 63.7805 285.33 64.5461 284.384 65.4918C284.384 66.0322 284.384 66.6176 284.384 67.2481C284.429 67.8335 284.451 68.464 284.451 69.1395V86.4999C284.451 87.4005 284.429 88.2111 284.384 88.9317C284.384 89.6072 284.316 90.3277 284.181 91.0933C284.902 91.0482 285.6 91.0257 286.275 91.0257C286.996 90.9807 287.716 90.9356 288.437 90.8906V93.6602H274.657Z" fill="#D1D7B4"/>
<path d="M168.586 108.181C169.576 108.181 170.339 108.541 170.874 109.259C171.409 109.978 171.676 111.064 171.676 112.517C171.676 113.954 171.409 115.035 170.874 115.762C170.339 116.489 169.576 116.852 168.586 116.852C167.588 116.852 166.822 116.492 166.287 115.774C165.76 115.055 165.497 113.97 165.497 112.517C165.497 111.088 165.764 110.01 166.299 109.283C166.834 108.549 167.596 108.181 168.586 108.181ZM168.586 109.451C168.131 109.451 167.796 109.686 167.58 110.157C167.365 110.62 167.257 111.407 167.257 112.517C167.257 113.642 167.365 114.437 167.58 114.9C167.796 115.355 168.131 115.582 168.586 115.582C168.898 115.582 169.149 115.487 169.341 115.295C169.532 115.103 169.676 114.784 169.772 114.337C169.868 113.89 169.916 113.283 169.916 112.517C169.916 111.407 169.808 110.62 169.592 110.157C169.377 109.686 169.041 109.451 168.586 109.451ZM174.659 108.373C175.361 108.373 175.968 108.481 176.479 108.696C176.99 108.904 177.405 109.311 177.725 109.918C178.044 110.517 178.204 111.371 178.204 112.481C178.204 114.037 177.892 115.123 177.27 115.738C176.655 116.353 175.833 116.66 174.803 116.66H172.695V108.373H174.659ZM174.395 109.618V115.415H174.898C175.234 115.415 175.513 115.335 175.737 115.175C175.968 115.008 176.148 114.708 176.276 114.277C176.403 113.846 176.467 113.247 176.467 112.481C176.467 111.698 176.399 111.099 176.264 110.684C176.136 110.269 175.96 109.99 175.737 109.846C175.513 109.694 175.234 109.618 174.898 109.618H174.395ZM186.83 116.66H184.722L182.782 109.978L182.818 110.313C182.874 110.84 182.918 111.331 182.95 111.786C182.99 112.241 183.01 112.76 183.01 113.343V116.66H181.525V108.373H183.632L185.584 115.067C185.52 114.716 185.465 114.277 185.417 113.75C185.369 113.215 185.345 112.668 185.345 112.109V108.373H186.83V116.66ZM191.81 116.66L191.438 114.768H189.45L189.079 116.66H187.403L189.45 108.373H191.486L193.522 116.66H191.81ZM189.69 113.535H191.199L190.444 109.63L189.69 113.535ZM196.013 115.439C196.013 116.333 195.813 117.007 195.414 117.463C195.015 117.926 194.468 118.293 193.773 118.564L193.318 117.367C193.606 117.223 193.821 117.067 193.965 116.9C194.109 116.74 194.204 116.548 194.252 116.325C194.3 116.093 194.324 115.778 194.324 115.379V108.373H196.013V115.439ZM199.47 108.181C199.965 108.181 200.404 108.269 200.787 108.445C201.17 108.621 201.518 108.88 201.829 109.223L201.063 110.109C200.599 109.67 200.12 109.451 199.625 109.451C199.338 109.451 199.11 109.539 198.943 109.714C198.775 109.882 198.691 110.109 198.691 110.397C198.691 110.676 198.783 110.908 198.967 111.091C199.15 111.275 199.498 111.471 200.009 111.678C200.472 111.87 200.843 112.073 201.122 112.289C201.41 112.505 201.629 112.772 201.781 113.091C201.941 113.411 202.021 113.806 202.021 114.277C202.021 114.764 201.909 115.203 201.685 115.594C201.462 115.986 201.142 116.293 200.727 116.516C200.312 116.74 199.829 116.852 199.278 116.852C198.711 116.852 198.216 116.752 197.793 116.552C197.378 116.345 197.003 116.061 196.667 115.702L197.494 114.792C197.773 115.047 198.045 115.243 198.308 115.379C198.58 115.507 198.867 115.57 199.17 115.57C199.522 115.57 199.789 115.467 199.973 115.259C200.164 115.043 200.26 114.756 200.26 114.397C200.26 114.069 200.172 113.806 199.997 113.606C199.821 113.399 199.502 113.199 199.039 113.008C198.288 112.696 197.753 112.349 197.434 111.966C197.115 111.582 196.955 111.099 196.955 110.517C196.955 110.062 197.063 109.658 197.278 109.307C197.494 108.956 197.793 108.68 198.176 108.481C198.56 108.281 198.991 108.181 199.47 108.181ZM206.545 116.66L206.174 114.768H204.186L203.815 116.66H202.138L204.186 108.373H206.222L208.258 116.66H206.545ZM204.426 113.535H205.934L205.18 109.63L204.426 113.535ZM213.855 108.373L212.011 116.66H209.867L207.939 108.373H209.639L210.957 115.247L212.202 108.373H213.855ZM218.171 116.66L216.757 113.379H216.65H216.135V116.66H214.434V108.373H216.518C218.538 108.373 219.548 109.195 219.548 110.84C219.548 111.335 219.44 111.778 219.224 112.169C219.017 112.553 218.693 112.848 218.254 113.055L219.979 116.66H218.171ZM216.578 112.193C217.017 112.193 217.332 112.085 217.524 111.87C217.715 111.654 217.811 111.311 217.811 110.84C217.811 110.409 217.707 110.094 217.5 109.894C217.3 109.686 216.969 109.583 216.506 109.583H216.135V112.193H216.578ZM224.837 108.373L224.657 109.607H222.286V111.834H224.358V113.055H222.286V115.415H224.813V116.66H220.586V108.373H224.837ZM232.7 116.66H231.096L230.988 113.259L230.964 112.529C230.956 112.281 230.948 111.994 230.94 111.666C230.932 111.339 230.928 110.98 230.928 110.589L230.94 109.906L229.91 115.762H228.317L227.228 109.906C227.251 110.433 227.263 110.956 227.263 111.475C227.263 112.066 227.251 112.672 227.228 113.295L227.12 116.66H225.539L226.054 108.373H228.15L229.144 114.133L230.054 108.373H232.185L232.7 116.66ZM237.994 108.373L237.814 109.607H235.443V111.834H237.515V113.055H235.443V115.415H237.97V116.66H233.742V108.373H237.994ZM244.229 116.66H242.121L240.181 109.978L240.217 110.313C240.273 110.84 240.316 111.331 240.348 111.786C240.388 112.241 240.408 112.76 240.408 113.343V116.66H238.923V108.373H241.031L242.983 115.067C242.919 114.716 242.863 114.277 242.815 113.75C242.767 113.215 242.744 112.668 242.744 112.109V108.373H244.229V116.66ZM247.196 108.373V116.66H245.496V108.373H247.196ZM250.382 115.439C250.382 116.333 250.183 117.007 249.784 117.463C249.385 117.926 248.838 118.293 248.143 118.564L247.688 117.367C247.975 117.223 248.191 117.067 248.335 116.9C248.478 116.74 248.574 116.548 248.622 116.325C248.67 116.093 248.694 115.778 248.694 115.379V108.373H250.382V115.439ZM255.875 108.373L255.696 109.607H253.325V111.834H255.396V113.055H253.325V115.415H255.851V116.66H251.624V108.373H255.875ZM261.324 108.181C261.819 108.181 262.258 108.269 262.642 108.445C263.025 108.621 263.372 108.88 263.683 109.223L262.917 110.109C262.454 109.67 261.975 109.451 261.48 109.451C261.193 109.451 260.965 109.539 260.797 109.714C260.63 109.882 260.546 110.109 260.546 110.397C260.546 110.676 260.638 110.908 260.821 111.091C261.005 111.275 261.352 111.471 261.863 111.678C262.326 111.87 262.697 112.073 262.977 112.289C263.264 112.505 263.484 112.772 263.636 113.091C263.795 113.411 263.875 113.806 263.875 114.277C263.875 114.764 263.763 115.203 263.54 115.594C263.316 115.986 262.997 116.293 262.582 116.516C262.167 116.74 261.684 116.852 261.133 116.852C260.566 116.852 260.071 116.752 259.648 116.552C259.233 116.345 258.857 116.061 258.522 115.702L259.348 114.792C259.628 115.047 259.899 115.243 260.163 115.379C260.434 115.507 260.721 115.57 261.025 115.57C261.376 115.57 261.644 115.467 261.827 115.259C262.019 115.043 262.115 114.756 262.115 114.397C262.115 114.069 262.027 113.806 261.851 113.606C261.676 113.399 261.356 113.199 260.893 113.008C260.143 112.696 259.608 112.349 259.288 111.966C258.969 111.582 258.809 111.099 258.809 110.517C258.809 110.062 258.917 109.658 259.133 109.307C259.348 108.956 259.648 108.68 260.031 108.481C260.414 108.281 260.845 108.181 261.324 108.181ZM266.446 108.373V116.66H264.746V108.373H266.446ZM270.374 108.373L268.207 112.109L270.554 116.66H268.698L266.494 112.241L268.686 108.373H270.374ZM272.785 108.373V116.66H271.084V108.373H272.785ZM278.574 108.181C279.069 108.181 279.508 108.269 279.892 108.445C280.275 108.621 280.622 108.88 280.933 109.223L280.167 110.109C279.704 109.67 279.225 109.451 278.73 109.451C278.443 109.451 278.215 109.539 278.047 109.714C277.88 109.882 277.796 110.109 277.796 110.397C277.796 110.676 277.888 110.908 278.071 111.091C278.255 111.275 278.602 111.471 279.113 111.678C279.576 111.87 279.947 112.073 280.227 112.289C280.514 112.505 280.734 112.772 280.886 113.091C281.045 113.411 281.125 113.806 281.125 114.277C281.125 114.764 281.013 115.203 280.79 115.594C280.566 115.986 280.247 116.293 279.832 116.516C279.417 116.74 278.934 116.852 278.383 116.852C277.816 116.852 277.321 116.752 276.898 116.552C276.483 116.345 276.107 116.061 275.772 115.702L276.598 114.792C276.878 115.047 277.149 115.243 277.413 115.379C277.684 115.507 277.972 115.57 278.275 115.57C278.626 115.57 278.894 115.467 279.077 115.259C279.269 115.043 279.365 114.756 279.365 114.397C279.365 114.069 279.277 113.806 279.101 113.606C278.926 113.399 278.606 113.199 278.143 113.008C277.393 112.696 276.858 112.349 276.538 111.966C276.219 111.582 276.059 111.099 276.059 110.517C276.059 110.062 276.167 109.658 276.383 109.307C276.598 108.956 276.898 108.68 277.281 108.481C277.664 108.281 278.095 108.181 278.574 108.181ZM286.433 108.373L286.253 109.678H284.601V116.66H282.912V109.678H281.176V108.373H286.433ZM290.176 116.66L289.804 114.768H287.816L287.445 116.66H285.769L287.816 108.373H289.852L291.888 116.66H290.176ZM288.056 113.535H289.565L288.81 109.63L288.056 113.535ZM296.906 108.373V109.666L293.816 115.295H296.954L296.786 116.66H291.984V115.379L295.073 109.702H292.283V108.373H296.906ZM302.035 108.373L301.856 109.607H299.484V111.834H301.556V113.055H299.484V115.415H302.011V116.66H297.784V108.373H302.035ZM310.574 116.66H308.466L306.526 109.978L306.562 110.313C306.618 110.84 306.662 111.331 306.694 111.786C306.734 112.241 306.754 112.76 306.754 113.343V116.66H305.269V108.373H307.376L309.328 115.067C309.265 114.716 309.209 114.277 309.161 113.75C309.113 113.215 309.089 112.668 309.089 112.109V108.373H310.574V116.66ZM315.554 116.66L315.182 114.768H313.194L312.823 116.66H311.147L313.194 108.373H315.23L317.266 116.66H315.554ZM313.434 113.535H314.943L314.188 109.63L313.434 113.535ZM322.061 115.439C322.061 116.333 321.861 117.007 321.462 117.463C321.063 117.926 320.516 118.293 319.821 118.564L319.366 117.367C319.654 117.223 319.869 117.067 320.013 116.9C320.157 116.74 320.252 116.548 320.3 116.325C320.348 116.093 320.372 115.778 320.372 115.379V108.373H322.061V115.439ZM327.015 116.66L326.643 114.768H324.655L324.284 116.66H322.608L324.655 108.373H326.691L328.727 116.66H327.015ZM324.895 113.535H326.404L325.649 109.63L324.895 113.535ZM332.942 116.66V113.008H331.002V116.66H329.302V108.373H331.002V111.678H332.942V108.373H334.643V116.66H332.942ZM338.748 108.181C339.738 108.181 340.5 108.541 341.035 109.259C341.57 109.978 341.837 111.064 341.837 112.517C341.837 113.954 341.57 115.035 341.035 115.762C340.5 116.489 339.738 116.852 338.748 116.852C337.75 116.852 336.983 116.492 336.448 115.774C335.921 115.055 335.658 113.97 335.658 112.517C335.658 111.088 335.925 110.01 336.46 109.283C336.995 108.549 337.758 108.181 338.748 108.181ZM338.748 109.451C338.293 109.451 337.957 109.686 337.742 110.157C337.526 110.62 337.418 111.407 337.418 112.517C337.418 113.642 337.526 114.437 337.742 114.9C337.957 115.355 338.293 115.582 338.748 115.582C339.059 115.582 339.31 115.487 339.502 115.295C339.694 115.103 339.837 114.784 339.933 114.337C340.029 113.89 340.077 113.283 340.077 112.517C340.077 111.407 339.969 110.62 339.754 110.157C339.538 109.686 339.203 109.451 338.748 109.451ZM346.593 116.66L345.179 113.379H345.072H344.557V116.66H342.856V108.373H344.94C346.96 108.373 347.97 109.195 347.97 110.84C347.97 111.335 347.862 111.778 347.646 112.169C347.439 112.553 347.115 112.848 346.676 113.055L348.401 116.66H346.593ZM345 112.193C345.439 112.193 345.754 112.085 345.946 111.87C346.137 111.654 346.233 111.311 346.233 110.84C346.233 110.409 346.13 110.094 345.922 109.894C345.722 109.686 345.391 109.583 344.928 109.583H344.557V112.193H345ZM350.708 108.373V116.66H349.008V108.373H350.708ZM357.283 116.66H355.176L353.236 109.978L353.272 110.313C353.327 110.84 353.371 111.331 353.403 111.786C353.443 112.241 353.463 112.76 353.463 113.343V116.66H351.978V108.373H354.086L356.038 115.067C355.974 114.716 355.918 114.277 355.87 113.75C355.822 113.215 355.798 112.668 355.798 112.109V108.373H357.283V116.66ZM360.251 108.373V116.66H358.551V108.373H360.251Z" fill="#D1D7B4"/>
<path d="M145.22 138.441L145.22 1.87968L350.415 1.87968C369.947 1.87967 385.78 17.7135 385.78 37.2455L385.78 103.075C385.78 122.607 369.947 138.441 350.415 138.441L145.22 138.441Z" stroke="#D1D7B4" stroke-width="2.43902"/>
</g>
</g>
<defs>
<filter id="filter0_b_1799_3416" x="-4.87805" y="-4.21789" width="396.756" height="148.756" filterUnits="userSpaceOnUse" color-interpolation-filters="sRGB">
<feFlood flood-opacity="0" result="BackgroundImageFix"/>
<feGaussianBlur in="BackgroundImageFix" stdDeviation="2.43902"/>
<feComposite in2="SourceAlpha" operator="in" result="effect1_backgroundBlur_1799_3416"/>
<feBlend mode="normal" in="SourceGraphic" in2="effect1_backgroundBlur_1799_3416" result="shape"/>
</filter>
<clipPath id="clip0_1799_3416">
<rect y="0.660156" width="387" height="139" rx="37" fill="white"/>
</clipPath>
</defs>
</svg>
