<svg width="295" height="192" viewBox="0 0 295 192" fill="none" xmlns="http://www.w3.org/2000/svg">
<rect width="295" height="192" fill="white"/>
<path d="M227.464 102L195.199 61.1776L188.546 64.1678L150.302 16L122.146 48.5019L98.9041 58.0791L62.682 98.9448L58.4641 102H227.464ZM69.4655 98.4681L107.405 71.0365L145.236 27.3757L127.669 76.6269L102.622 86.5074L88.7724 98.4465H69.4655V98.4681ZM164.304 98.4681L178.762 89.5843L194.743 66.4429L220.05 98.4681H164.304ZM189.481 67.6347L176.11 87.0058L157.477 98.4465H136.996L164.239 78.9237L189.481 67.613V67.6347ZM162.325 75.9118L130.843 98.4681H94.3165L104.666 89.5626L130.669 79.292L150.867 22.5437L185.111 65.6846L162.325 75.8901V75.9118ZM101.165 60.9826L116.972 54.4606L104.861 68.4364L76.1838 89.1726L101.187 60.9609L101.165 60.9826Z" fill="#23262D"/>
<path fill-rule="evenodd" clip-rule="evenodd" d="M93.8889 174.47C94.179 174.98 94.5691 175.38 95.0791 175.66C95.5889 175.94 96.1489 176.08 96.769 176.08C97.3889 176.08 97.949 175.94 98.459 175.66C98.959 175.38 99.3589 174.99 99.6489 174.47C99.929 173.96 100.079 173.34 100.079 172.67C100.079 172 99.939 171.41 99.6489 170.9C99.3589 170.39 98.969 170 98.459 169.73C97.949 169.46 97.3889 169.32 96.769 169.32C96.1489 169.32 95.5889 169.46 95.0791 169.73C94.5791 170 94.179 170.39 93.8889 170.9C93.5989 171.41 93.459 171.99 93.459 172.67C93.459 173.35 93.5989 173.95 93.8889 174.47ZM98.9189 174.06C98.699 174.46 98.3989 174.77 98.019 174.99C97.6489 175.2 97.229 175.31 96.7791 175.31C96.3291 175.31 95.9189 175.21 95.5391 174.99C95.1589 174.77 94.8589 174.46 94.6389 174.06C94.4189 173.66 94.3091 173.18 94.3091 172.66C94.3091 172.14 94.4189 171.68 94.6389 171.29C94.8589 170.9 95.1589 170.59 95.5391 170.38C95.9089 170.17 96.3291 170.06 96.7791 170.06C97.229 170.06 97.6389 170.17 98.019 170.38C98.3989 170.59 98.699 170.9 98.9189 171.29C99.1389 171.68 99.249 172.13 99.249 172.66C99.249 173.19 99.1389 173.66 98.9189 174.06Z" fill="#23262D"/>
<path d="M83.979 169.4H82.5791V175.98H83.3792L83.3591 169.97H83.3792L85.6592 175.98H86.3391L88.6091 169.97H88.6292L88.6091 175.98H89.459V169.4H88.0891L86.0291 174.85H86.019L83.979 169.4Z" fill="#23262D"/>
<path d="M105.339 175.76C104.919 175.55 104.599 175.26 104.369 174.88C104.139 174.5 104.029 174.06 104.029 173.56V169.41H104.869V173.56C104.869 173.92 104.949 174.23 105.099 174.49C105.259 174.75 105.479 174.96 105.779 175.1C106.079 175.24 106.429 175.32 106.829 175.32C107.229 175.32 107.599 175.25 107.899 175.1C108.199 174.96 108.429 174.75 108.579 174.49C108.739 174.23 108.809 173.92 108.809 173.56V169.41H109.569V173.56C109.569 174.06 109.459 174.5 109.239 174.88C109.019 175.26 108.699 175.55 108.279 175.76C107.859 175.97 107.369 176.07 106.809 176.07C106.249 176.07 105.749 175.96 105.329 175.76H105.339Z" fill="#23262D"/>
<path d="M115.179 169.4H113.829V175.98H114.629V170.01H114.649L118.569 175.98H119.559V169.4H118.759V174.86H118.739L115.179 169.4Z" fill="#23262D"/>
<path d="M125.449 170.15H123.279V169.4H128.469V170.15H126.289V175.98H125.449V170.15Z" fill="#23262D"/>
<path fill-rule="evenodd" clip-rule="evenodd" d="M132.056 174.38L131.409 175.97H130.529L133.309 169.4H134.309L137.089 175.97H136.109L135.473 174.38H132.056ZM132.308 173.76L133.769 170.17H133.789L135.225 173.76H132.308Z" fill="#23262D"/>
<path d="M141.709 169.4H140.869V175.97H141.709V169.4Z" fill="#23262D"/>
<path d="M147.389 169.4H146.049V175.98H146.839V170.01H146.859L150.789 175.98H151.779V169.4H150.979V174.86H150.959L147.389 169.4Z" fill="#23262D"/>
<path fill-rule="evenodd" clip-rule="evenodd" d="M161.069 169.4H163.799C164.339 169.4 164.789 169.47 165.159 169.62C165.529 169.77 165.809 169.98 165.989 170.26C166.169 170.54 166.259 170.87 166.259 171.26C166.259 171.71 166.159 172.07 165.949 172.34C165.739 172.62 165.419 172.78 164.989 172.83V172.85C165.289 172.88 165.529 172.97 165.709 173.1C165.889 173.23 166.019 173.41 166.099 173.62C166.138 173.723 166.168 173.836 166.188 173.959C166.209 174.085 166.219 174.222 166.219 174.37V175.96H165.359V174.37C165.359 174.12 165.319 173.92 165.229 173.75C165.191 173.678 165.144 173.613 165.087 173.555C165.061 173.529 165.033 173.505 165.004 173.481C164.973 173.457 164.939 173.435 164.904 173.414C164.871 173.395 164.836 173.377 164.799 173.36C164.599 173.27 164.319 173.22 163.969 173.22H161.909V175.96H161.069V169.4ZM165.135 172.208C165.187 172.153 165.232 172.094 165.269 172.03C165.379 171.84 165.439 171.61 165.439 171.35C165.439 171.1 165.379 170.89 165.259 170.72C165.139 170.54 164.949 170.41 164.709 170.32C164.587 170.274 164.447 170.239 164.291 170.215C164.234 170.206 164.175 170.199 164.114 170.194C164.04 170.187 163.963 170.183 163.884 170.181L163.799 170.18H161.909V172.64H163.789C163.847 172.64 163.904 172.639 163.958 172.637L164.032 172.633C164.068 172.631 164.103 172.628 164.137 172.625C164.174 172.621 164.21 172.617 164.246 172.612C164.433 172.586 164.596 172.543 164.739 172.48L164.729 172.47C164.79 172.445 164.847 172.418 164.9 172.387C164.963 172.351 165.02 172.311 165.071 172.267C165.094 172.248 165.115 172.228 165.135 172.208Z" fill="#23262D"/>
<path d="M174.689 169.4H170.329V175.98H174.779V175.22H171.169V172.98H174.019V172.36H171.169V170.16H174.689V169.4Z" fill="#23262D"/>
<path d="M179.419 175.76C179.029 175.55 178.749 175.27 178.589 174.93C178.429 174.59 178.349 174.2 178.339 173.77V173.75H179.119C179.119 174.08 179.179 174.37 179.299 174.61C179.419 174.85 179.619 175.04 179.899 175.17C180.179 175.3 180.539 175.37 180.989 175.37C181.469 175.37 181.849 175.32 182.129 175.21C182.409 175.1 182.609 174.95 182.729 174.77C182.762 174.721 182.79 174.67 182.814 174.617C182.843 174.552 182.865 174.486 182.881 174.417C182.89 174.375 182.897 174.332 182.902 174.288C182.907 174.246 182.909 174.203 182.909 174.16C182.909 173.92 182.849 173.74 182.739 173.61C182.629 173.48 182.429 173.38 182.139 173.31C181.849 173.23 181.409 173.16 180.809 173.08C180.189 173 179.709 172.9 179.359 172.79C179.009 172.67 178.749 172.5 178.569 172.27C178.389 172.04 178.309 171.73 178.309 171.33C178.309 170.93 178.419 170.6 178.639 170.3C178.859 170 179.169 169.77 179.569 169.6C179.969 169.43 180.429 169.35 180.949 169.35C181.559 169.35 182.049 169.44 182.419 169.62C182.789 169.8 183.069 170.06 183.249 170.41C183.429 170.76 183.509 171.19 183.509 171.71H182.729C182.729 171.538 182.715 171.381 182.686 171.238C182.678 171.198 182.669 171.159 182.659 171.122C182.639 171.047 182.615 170.977 182.585 170.91C182.565 170.865 182.543 170.821 182.519 170.78C182.379 170.54 182.179 170.36 181.919 170.24C181.834 170.201 181.743 170.168 181.646 170.142C181.586 170.126 181.523 170.112 181.458 170.1C181.395 170.089 181.329 170.08 181.261 170.074C181.165 170.065 181.064 170.06 180.959 170.06C180.609 170.06 180.289 170.11 180.019 170.21C179.739 170.31 179.529 170.45 179.369 170.63C179.209 170.81 179.139 171.02 179.139 171.25C179.139 171.5 179.189 171.7 179.289 171.83C179.389 171.97 179.589 172.08 179.869 172.16C180.149 172.24 180.589 172.32 181.179 172.39C181.809 172.47 182.299 172.57 182.649 172.68C182.782 172.721 182.902 172.769 183.01 172.825C183.196 172.922 183.345 173.041 183.459 173.18C183.639 173.4 183.729 173.71 183.729 174.1C183.729 174.47 183.639 174.8 183.469 175.09C183.299 175.39 183.009 175.63 182.599 175.81C182.189 175.99 181.649 176.08 180.969 176.08C180.289 176.08 179.779 175.97 179.389 175.76H179.419Z" fill="#23262D"/>
<path fill-rule="evenodd" clip-rule="evenodd" d="M187.899 174.47C188.189 174.98 188.579 175.38 189.089 175.66C189.599 175.94 190.159 176.08 190.779 176.08C191.399 176.08 191.959 175.94 192.469 175.66C192.969 175.38 193.369 174.99 193.659 174.47C193.939 173.96 194.089 173.34 194.089 172.67C194.089 172 193.949 171.41 193.659 170.9C193.369 170.39 192.979 170 192.469 169.73C191.959 169.46 191.399 169.32 190.779 169.32C190.159 169.32 189.599 169.46 189.089 169.73C188.589 170 188.189 170.39 187.899 170.9C187.609 171.41 187.469 171.99 187.469 172.67C187.469 173.35 187.609 173.95 187.899 174.47ZM192.919 174.06C192.699 174.46 192.399 174.77 192.019 174.99C191.649 175.2 191.229 175.31 190.779 175.31C190.329 175.31 189.919 175.21 189.539 174.99C189.159 174.77 188.859 174.46 188.639 174.06C188.419 173.66 188.309 173.18 188.309 172.66C188.309 172.14 188.419 171.68 188.639 171.29C188.859 170.9 189.159 170.59 189.539 170.38C189.909 170.17 190.329 170.06 190.779 170.06C191.229 170.06 191.639 170.17 192.019 170.38C192.399 170.59 192.699 170.9 192.919 171.29C193.139 171.68 193.249 172.13 193.249 172.66C193.249 173.19 193.139 173.66 192.919 174.06Z" fill="#23262D"/>
<path fill-rule="evenodd" clip-rule="evenodd" d="M198.089 169.4H200.819C201.359 169.4 201.809 169.47 202.179 169.62C202.549 169.77 202.829 169.98 203.009 170.26C203.189 170.54 203.279 170.87 203.279 171.26C203.279 171.71 203.179 172.07 202.969 172.34C202.759 172.62 202.439 172.78 202.009 172.83V172.85C202.309 172.88 202.549 172.97 202.729 173.1C202.909 173.23 203.039 173.41 203.119 173.62C203.159 173.724 203.188 173.837 203.208 173.96C203.229 174.086 203.239 174.223 203.239 174.37V175.96H202.379V174.37C202.379 174.295 202.376 174.225 202.368 174.158C202.364 174.119 202.358 174.082 202.351 174.045C202.33 173.937 202.296 173.839 202.249 173.75C202.159 173.58 202.019 173.45 201.819 173.36C201.619 173.27 201.339 173.22 200.989 173.22H198.929V175.96H198.089V169.4ZM201.749 172.47C201.999 172.37 202.179 172.22 202.289 172.03C202.399 171.84 202.459 171.61 202.459 171.35C202.459 171.1 202.399 170.89 202.279 170.72C202.159 170.54 201.969 170.41 201.729 170.32C201.489 170.23 201.179 170.18 200.819 170.18H198.929V172.64H200.809C201.199 172.64 201.509 172.59 201.759 172.48L201.749 172.47Z" fill="#23262D"/>
<path d="M206.609 170.15H208.789V175.98H209.629V170.15H211.809V169.4H206.609V170.15Z" fill="#23262D"/>
<path d="M45.1445 124.31H23.8V124.32H21V158.82H45.1445V154.96H24.8601V143.39H42.8645V139.53H24.8601V128.17H45.1445V124.31Z" fill="#23262D"/>
<path d="M102.854 124.31H126.999V128.17H106.715V139.53H124.719V143.39H106.715V154.96H126.999V158.82H102.854V124.31Z" fill="#23262D"/>
<path fill-rule="evenodd" clip-rule="evenodd" d="M138.965 124.436V158.82H138.999V158.935H142.859V146.007L152.149 145.927L159.431 158.913H164.141L156.4 145.68L156.283 145.473C160.611 144.211 163.069 139.811 163.069 135.337C163.029 129.477 159.794 124.427 153.889 124.427H138.999V124.436H138.965ZM142.825 128.287V141.957H153.639C157.112 141.957 158.929 139.637 158.849 135.337C158.938 131.469 157.268 128.287 153.639 128.287H142.825Z" fill="#23262D"/>
<path d="M173.141 158.921H177.301L187.424 130.526L197.857 158.919H202.257L189.164 124.436H185.604L173.141 158.921Z" fill="#23262D"/>
<path d="M216.098 155.05L216.117 124.424H212.257V158.876H212.271V158.91H232.877V155.05H216.098Z" fill="#23262D"/>
<path fill-rule="evenodd" clip-rule="evenodd" d="M272.028 134.766C271.108 132.666 269.828 130.846 268.188 129.306C266.538 127.766 264.598 126.566 262.368 125.716C260.138 124.866 257.688 124.436 255.028 124.436L244.886 124.473V128.207H244.877V158.876H255.018C257.678 158.876 260.138 158.446 262.378 157.596C264.628 156.746 266.568 155.546 268.218 154.006C269.868 152.466 271.138 150.646 272.038 148.546C272.938 146.446 273.388 144.146 273.388 141.656C273.388 139.166 272.928 136.866 272.018 134.766H272.028ZM255.218 128.26L248.737 128.283V155.035H255.218C257.248 155.035 259.128 154.695 260.858 154.005C262.588 153.325 264.098 152.355 265.398 151.105C266.698 149.855 267.698 148.786 268.418 147.116C269.128 145.446 269.488 143.616 269.488 141.656C269.488 139.696 269.138 137.866 268.418 136.196C267.708 134.526 266.698 133.44 265.398 132.19C264.108 130.95 262.588 129.98 260.858 129.29C259.128 128.6 257.248 128.26 255.218 128.26Z" fill="#23262D"/>
<path d="M57.1445 158.91V124.436H60.4341L74.0046 141.476L87.5669 124.436H90.8545V158.91H86.9946V130.726L73.8245 147.596L61.0046 131.056V158.91H57.1445Z" fill="#23262D"/>
</svg>
