<svg width="105" height="54" viewBox="0 0 105 54" fill="none" xmlns="http://www.w3.org/2000/svg">
<g clip-path="url(#clip0_1595_3089)">
<path d="M104.232 53.5207L84.3325 28.3432L80.2292 30.1874L56.6418 0.479492L39.2765 20.5253L24.9417 26.4321L2.60145 51.6364L0 53.5207H104.232ZM6.78522 51.3424L30.1848 34.4237L53.5174 7.49553L42.6825 37.8716L27.2347 43.9656L18.6929 51.3291H6.78522V51.3424ZM65.2775 51.3424L74.1949 45.8632L84.0509 31.5906L99.6595 51.3424H65.2775ZM80.8058 32.3256L72.5589 44.2729L61.067 51.3291H48.4352L65.2373 39.2882L80.8058 32.3123V32.3256ZM64.0573 37.4306L44.6403 51.3424H22.1123L28.4952 45.8499L44.533 39.5154L56.9905 4.51538L78.1105 31.1229L64.0573 37.4173V37.4306ZM26.3363 28.2229L36.085 24.2004L28.6159 32.8201L10.9288 45.6093L26.3497 28.2095L26.3363 28.2229Z" fill="#2A2A2A"/>
</g>
<defs>
<clipPath id="clip0_1595_3089">
<rect width="104.232" height="53.0412" fill="white" transform="translate(0 0.479492)"/>
</clipPath>
</defs>
</svg>
