<svg width="156" height="100" viewBox="0 0 156 100" fill="none" xmlns="http://www.w3.org/2000/svg">
<g clip-path="url(#clip0_1636_3300)">
<path d="M127.508 53.0412L107.608 27.8637L103.505 29.7079L79.9172 0L62.5519 20.0458L48.2171 25.9527L25.8768 51.1569L23.2754 53.0412H127.508ZM30.0606 50.8629L53.4602 33.9443L76.7928 7.01604L65.9579 37.3921L50.5101 43.4861L41.9683 50.8496H30.0606V50.8629ZM88.5529 50.8629L97.4703 45.3837L107.326 31.1111L122.935 50.8629H88.5529ZM104.081 31.8461L95.8343 43.7934L84.3423 50.8496H71.7106L88.5127 38.8087L104.081 31.8328V31.8461ZM87.3327 36.9511L67.9157 50.8629H45.3877L51.7706 45.3704L67.8084 39.0359L80.2658 4.03589L101.386 30.6434L87.3327 36.9378V36.9511ZM49.6117 27.7434L59.3604 23.7209L51.8913 32.3406L34.2041 45.1298L49.6251 27.7301L49.6117 27.7434Z" fill="#2A2A2A"/>
</g>
<path d="M23.4004 93.8503H24.5834L26.3072 98.4556H26.3156L28.0563 93.8503H29.214V99.4104H28.4957L28.5126 94.332H28.4957L26.5776 99.4104H26.003L24.0764 94.332H24.0595L24.0764 99.4104H23.4004V93.8503Z" fill="#2A2A2A"/>
<path d="M33.9651 99.14C33.5341 98.9034 33.2046 98.5654 32.9595 98.1344C32.7145 97.695 32.5962 97.188 32.5962 96.6134C32.5962 96.0389 32.7145 95.5488 32.9595 95.1178C33.2046 94.6869 33.5426 94.3573 33.9651 94.1292C34.396 93.901 34.8692 93.7827 35.3931 93.7827C35.917 93.7827 36.3902 93.901 36.8212 94.1292C37.2521 94.3573 37.5817 94.6869 37.8267 95.1178C38.0718 95.5488 38.1901 96.0473 38.1901 96.6134C38.1901 97.1796 38.0633 97.7035 37.8267 98.1344C37.5817 98.5738 37.2437 98.9034 36.8212 99.14C36.3902 99.3766 35.917 99.4949 35.3931 99.4949C34.8692 99.4949 34.396 99.3766 33.9651 99.14ZM36.4494 98.5738C36.7705 98.3879 37.024 98.126 37.2099 97.788C37.3958 97.45 37.4887 97.0528 37.4887 96.605C37.4887 96.1572 37.3958 95.7769 37.2099 95.4474C37.024 95.1178 36.7705 94.8559 36.4494 94.6784C36.1283 94.501 35.7818 94.408 35.4016 94.408C35.0213 94.408 34.6664 94.501 34.3538 94.6784C34.0327 94.8559 33.7792 95.1178 33.5933 95.4474C33.4074 95.7769 33.3144 96.1656 33.3144 96.605C33.3144 97.0444 33.4074 97.45 33.5933 97.788C33.7792 98.126 34.0327 98.3879 34.3538 98.5738C34.6749 98.7597 35.0213 98.8442 35.4016 98.8442C35.7818 98.8442 36.1367 98.7513 36.4494 98.5738Z" fill="#2A2A2A"/>
<path d="M42.6284 99.2246C42.2735 99.0472 42.0031 98.8021 41.8088 98.481C41.6144 98.1599 41.5215 97.7881 41.5215 97.3656V93.8589H42.2313V97.3656C42.2313 97.6698 42.2989 97.9318 42.4256 98.1515C42.5608 98.3712 42.7467 98.5486 43.0002 98.6669C43.2537 98.7852 43.5495 98.8528 43.8875 98.8528C44.2255 98.8528 44.5381 98.7937 44.7916 98.6669C45.0451 98.5486 45.2395 98.3712 45.3662 98.1515C45.5014 97.9318 45.5606 97.6698 45.5606 97.3656V93.8589H46.2028V97.3656C46.2028 97.7881 46.1098 98.1599 45.9239 98.481C45.738 98.8021 45.4676 99.0472 45.1127 99.2246C44.7578 99.4021 44.3438 99.4866 43.8706 99.4866C43.3974 99.4866 42.9749 99.3936 42.62 99.2246" fill="#2A2A2A"/>
<path d="M49.8032 93.8503H50.944L53.9521 98.464H53.9691V93.8503H54.6451V99.4104H53.8085L50.4961 94.3658H50.4792V99.4104H49.8032V93.8503Z" fill="#2A2A2A"/>
<path d="M59.6208 94.4841H57.7871V93.8503H62.1726V94.4841H60.3305V99.4104H59.6208V94.4841Z" fill="#2A2A2A"/>
<path d="M66.6538 94.501L64.6596 99.402H63.916L66.2651 93.8503H67.1101L69.4592 99.402H68.6311L66.6707 94.501H66.6538ZM65.0737 98.0584L65.2765 97.5345H67.9973L68.2086 98.0584H65.0821H65.0737Z" fill="#2A2A2A"/>
<path d="M73.3597 93.8503H72.6499V99.402H73.3597V93.8503Z" fill="#2A2A2A"/>
<path d="M77.0288 93.8503H78.1611L81.1777 98.464H81.1946V93.8503H81.8706V99.4104H81.0341L77.7133 94.3658H77.6964V99.4104H77.0288V93.8503Z" fill="#2A2A2A"/>
<path d="M89.7197 93.8522H92.0266C92.4829 93.8522 92.8631 93.9113 93.1758 94.0381C93.4884 94.1648 93.725 94.3423 93.8771 94.5789C94.0292 94.8155 94.1053 95.0943 94.1053 95.4239C94.1053 95.8041 94.0208 96.1083 93.8433 96.3365C93.6659 96.5731 93.3955 96.7083 93.0321 96.7505V96.7674C93.2856 96.7928 93.4884 96.8688 93.6405 96.9787C93.7926 97.0885 93.9025 97.2406 93.9701 97.4181C94.0377 97.5955 94.0715 97.8068 94.0715 98.0518V99.3954H93.3448V98.0518C93.3448 97.8406 93.311 97.6716 93.2349 97.5279C93.1589 97.3843 93.0406 97.2744 92.8716 97.1984C92.7026 97.1223 92.466 97.0801 92.1702 97.0801H90.4295V99.3954H89.7197V93.8438V93.8522ZM92.8124 96.4463C93.0237 96.3618 93.1758 96.2351 93.2687 96.0745C93.3617 95.914 93.4124 95.7196 93.4124 95.4999C93.4124 95.2887 93.3617 95.1112 93.2603 94.9676C93.1589 94.8155 92.9983 94.7056 92.7955 94.6296C92.5927 94.5535 92.3308 94.5113 92.0266 94.5113H90.4295V96.59H92.0181C92.3477 96.59 92.6096 96.5477 92.8209 96.4548" fill="#2A2A2A"/>
<path d="M97.5444 93.8503H101.229V94.4925H98.2542V96.3515H100.662V96.8754H98.2542V98.7682H101.305V99.4104H97.5444V93.8503Z" fill="#2A2A2A"/>
<path d="M105.226 99.2245C104.896 99.0471 104.66 98.8105 104.525 98.5232C104.389 98.2359 104.322 97.9063 104.313 97.543V97.5261H104.973C104.973 97.8049 105.023 98.05 105.125 98.2528C105.226 98.4556 105.395 98.6161 105.632 98.726C105.868 98.8358 106.172 98.895 106.553 98.895C106.958 98.895 107.279 98.8527 107.516 98.7598C107.753 98.6668 107.922 98.5401 108.023 98.388C108.124 98.2359 108.175 98.0584 108.175 97.8725C108.175 97.6697 108.124 97.5176 108.031 97.4078C107.938 97.2979 107.769 97.2134 107.524 97.1543C107.279 97.0867 106.908 97.0275 106.401 96.9599C105.877 96.8923 105.471 96.8078 105.175 96.7149C104.88 96.6135 104.66 96.4698 104.508 96.2755C104.356 96.0811 104.288 95.8192 104.288 95.4812C104.288 95.1432 104.381 94.8644 104.567 94.6109C104.753 94.3574 105.015 94.163 105.353 94.0194C105.691 93.8757 106.079 93.8081 106.519 93.8081C107.034 93.8081 107.448 93.8842 107.761 94.0363C108.074 94.1884 108.31 94.4081 108.462 94.7038C108.614 94.9996 108.682 95.3629 108.682 95.8023H108.023C108.023 95.4812 107.964 95.2192 107.846 95.0164C107.727 94.8137 107.558 94.6616 107.339 94.5602C107.119 94.4588 106.848 94.4081 106.527 94.4081C106.232 94.4081 105.961 94.4503 105.733 94.5348C105.496 94.6193 105.319 94.7376 105.184 94.8897C105.049 95.0418 104.989 95.2192 104.989 95.4136C104.989 95.6248 105.032 95.7938 105.116 95.9037C105.201 96.022 105.37 96.1149 105.606 96.1825C105.843 96.2501 106.215 96.3177 106.713 96.3769C107.246 96.4445 107.66 96.529 107.955 96.6219C108.26 96.7149 108.488 96.8585 108.64 97.0444C108.792 97.2303 108.868 97.4923 108.868 97.8218C108.868 98.1345 108.792 98.4133 108.648 98.6584C108.505 98.9119 108.26 99.1147 107.913 99.2668C107.567 99.4189 107.11 99.4949 106.536 99.4949C105.961 99.4949 105.53 99.402 105.201 99.2245" fill="#2A2A2A"/>
<path d="M113.397 99.14C112.966 98.9034 112.637 98.5654 112.392 98.1344C112.147 97.695 112.028 97.188 112.028 96.6134C112.028 96.0389 112.147 95.5488 112.392 95.1178C112.637 94.6869 112.975 94.3573 113.397 94.1292C113.828 93.901 114.301 93.7827 114.825 93.7827C115.349 93.7827 115.822 93.901 116.253 94.1292C116.684 94.3573 117.014 94.6869 117.259 95.1178C117.504 95.5488 117.622 96.0473 117.622 96.6134C117.622 97.1796 117.495 97.7035 117.259 98.1344C117.014 98.5738 116.676 98.9034 116.253 99.14C115.822 99.3766 115.349 99.4949 114.825 99.4949C114.301 99.4949 113.828 99.3766 113.397 99.14ZM115.873 98.5738C116.194 98.3879 116.448 98.126 116.634 97.788C116.819 97.45 116.912 97.0528 116.912 96.605C116.912 96.1572 116.819 95.7769 116.634 95.4474C116.448 95.1178 116.194 94.8559 115.873 94.6784C115.552 94.501 115.206 94.408 114.825 94.408C114.445 94.408 114.09 94.501 113.777 94.6784C113.456 94.8559 113.203 95.1178 113.017 95.4474C112.831 95.7769 112.738 96.1656 112.738 96.605C112.738 97.0444 112.831 97.45 113.017 97.788C113.203 98.126 113.456 98.3879 113.777 98.5738C114.099 98.7597 114.445 98.8442 114.825 98.8442C115.206 98.8442 115.56 98.7513 115.873 98.5738Z" fill="#2A2A2A"/>
<path d="M120.997 93.8522H123.304C123.76 93.8522 124.14 93.9113 124.453 94.0381C124.766 94.1648 125.002 94.3423 125.154 94.5789C125.307 94.8155 125.383 95.0943 125.383 95.4239C125.383 95.8041 125.298 96.1083 125.121 96.3365C124.943 96.5731 124.673 96.7083 124.309 96.7505V96.7674C124.563 96.7928 124.766 96.8688 124.918 96.9787C125.07 97.0885 125.18 97.2406 125.247 97.4181C125.315 97.5955 125.349 97.8068 125.349 98.0518V99.3954H124.622V98.0518C124.622 97.8406 124.588 97.6716 124.512 97.5279C124.436 97.3843 124.318 97.2744 124.149 97.1984C123.98 97.1223 123.743 97.0801 123.448 97.0801H121.707V99.3954H120.997V93.8438V93.8522ZM124.09 96.4463C124.301 96.3618 124.453 96.2351 124.546 96.0745C124.639 95.914 124.69 95.7196 124.69 95.4999C124.69 95.2887 124.639 95.1112 124.538 94.9676C124.436 94.8155 124.276 94.7056 124.073 94.6296C123.87 94.5535 123.608 94.5113 123.304 94.5113H121.707V96.59H123.295C123.625 96.59 123.887 96.5477 124.098 96.4548" fill="#2A2A2A"/>
<path d="M130.04 94.4841H128.198V93.8503H132.592V94.4841H130.75V99.4104H130.04V94.4841Z" fill="#2A2A2A"/>
<path d="M65.5413 66.7969H50.6509V69.1774H65.5413V66.7969Z" fill="#2A2A2A"/>
<path d="M64.1351 76.1833H52.5962V78.5638H64.1351V76.1833Z" fill="#2A2A2A"/>
<path d="M65.5413 85.6992H52.3777V88.0798H65.5413V85.6992Z" fill="#2A2A2A"/>
<path d="M50.6509 66.8749L50.6509 88.0798H53.0314L53.0314 66.8749L50.6509 66.8749Z" fill="#2A2A2A"/>
<path d="M72.9209 66.8749V88.0798H75.3015V66.8749L72.9209 66.8749Z" fill="#2A2A2A"/>
<path d="M15.0593 66.7969H1.89576V69.1774H15.0593V66.7969Z" fill="#2A2A2A"/>
<path d="M13.6531 76.1833H2.31732V78.5638H13.6531V76.1833Z" fill="#2A2A2A"/>
<path d="M15.0593 85.6992H1.89576V88.0798H15.0593V85.6992Z" fill="#2A2A2A"/>
<path d="M0.168945 66.803L0.168946 88.0798H2.54948L2.54948 66.803L0.168945 66.803Z" fill="#2A2A2A"/>
<path d="M83.6016 79.8492C86.2709 79.0706 87.7868 76.3573 87.7868 73.598C87.7621 69.9841 85.767 66.8696 82.1253 66.8696H72.9424V69.2502C72.9424 69.2502 79.7329 69.2502 81.9711 69.2502C84.2094 69.2502 85.2392 71.2128 85.1842 73.598C85.2336 76.2499 84.113 77.6807 81.9711 77.6807H72.9424V88.1515H75.3229V80.1784L81.0522 80.1291L85.5429 88.1381H88.4477L83.6736 79.9767L83.6016 79.8492Z" fill="#2A2A2A"/>
<path d="M93.9966 88.1422H96.5621L102.805 70.6306L109.24 88.141H111.953L103.878 66.8748H101.683L93.9966 88.1422Z" fill="#2A2A2A"/>
<path d="M130.838 88.1345H118.13V85.754H130.838V88.1345Z" fill="#2A2A2A"/>
<path d="M120.502 66.8662L120.488 88.1138H118.121L118.121 66.8662H120.502Z" fill="#2A2A2A"/>
<path d="M154.982 73.2455C154.415 71.9503 153.625 70.8279 152.614 69.8782C151.596 68.9284 150.4 68.1884 149.025 67.6642C147.649 67.1399 146.138 66.8748 144.498 66.8748L138.243 66.8974V69.2553L144.615 69.2326C145.867 69.2326 147.026 69.4423 148.093 69.8679C149.16 70.2934 150.098 70.8916 150.893 71.6563C151.695 72.4272 152.318 73.0974 152.756 74.1274C153.2 75.1573 153.416 76.2859 153.416 77.4946C153.416 78.7034 153.194 79.832 152.756 80.8619C152.312 81.8918 151.695 82.5508 150.893 83.3216C150.091 84.0925 149.16 84.6908 148.093 85.1101C147.026 85.5357 145.867 85.7454 144.615 85.7454H140.618V69.2002H138.237L138.237 88.1145H144.492C146.132 88.1145 147.649 87.8493 149.031 87.3251C150.418 86.8009 151.615 86.0609 152.632 85.1111C153.65 84.1614 154.433 83.0389 154.988 81.7438C155.543 80.4487 155.821 79.0303 155.821 77.4946C155.821 75.959 155.537 74.5406 154.976 73.2455" fill="#2A2A2A"/>
<path fill-rule="evenodd" clip-rule="evenodd" d="M22.458 66.8755V88.1359H24.8385V70.958L32.7449 81.1585L40.8671 70.7544V88.1359H43.2476V66.8755H41.2201L32.8559 77.3842L24.4867 66.8755H22.458Z" fill="#2A2A2A"/>
<defs>
<clipPath id="clip0_1636_3300">
<rect width="104.232" height="53.0412" fill="white" transform="translate(23.2754)"/>
</clipPath>
</defs>
</svg>
