<svg width="156" height="101" viewBox="0 0 156 101" fill="none" xmlns="http://www.w3.org/2000/svg">
<g clip-path="url(#clip0_476_15963)">
<path d="M127.508 53.5412L107.608 28.3637L103.505 30.2079L79.9172 0.5L62.5519 20.5458L48.2171 26.4527L25.8768 51.6569L23.2754 53.5412H127.508ZM30.0606 51.3629L53.4602 34.4443L76.7928 7.51604L65.9579 37.8921L50.5101 43.9861L41.9683 51.3496H30.0606V51.3629ZM88.5529 51.3629L97.4703 45.8837L107.326 31.6111L122.935 51.3629H88.5529ZM104.081 32.3461L95.8343 44.2934L84.3423 51.3496H71.7106L88.5127 39.3087L104.081 32.3328V32.3461ZM87.3327 37.4511L67.9157 51.3629H45.3877L51.7706 45.8704L67.8084 39.5359L80.2658 4.53589L101.386 31.1434L87.3327 37.4378V37.4511ZM49.6117 28.2434L59.3604 24.2209L51.8913 32.8406L34.2041 45.6298L49.6251 28.2301L49.6117 28.2434Z" fill="#BE8757"/>
</g>
<path d="M23.4004 94.3504H24.5834L26.3072 98.9557H26.3156L28.0563 94.3504H29.214V99.9105H28.4957L28.5126 94.8321H28.4957L26.5776 99.9105H26.003L24.0764 94.8321H24.0595L24.0764 99.9105H23.4004V94.3504Z" fill="white"/>
<path d="M33.9656 99.64C33.5346 99.4034 33.2051 99.0654 32.96 98.6345C32.715 98.1951 32.5967 97.6881 32.5967 97.1135C32.5967 96.5389 32.715 96.0488 32.96 95.6178C33.2051 95.1869 33.5431 94.8573 33.9656 94.6292C34.3965 94.401 34.8697 94.2827 35.3936 94.2827C35.9175 94.2827 36.3907 94.401 36.8217 94.6292C37.2526 94.8573 37.5822 95.1869 37.8272 95.6178C38.0722 96.0488 38.1905 96.5473 38.1905 97.1135C38.1905 97.6796 38.0638 98.2035 37.8272 98.6345C37.5822 99.0739 37.2442 99.4034 36.8217 99.64C36.3907 99.8766 35.9175 99.9949 35.3936 99.9949C34.8697 99.9949 34.3965 99.8766 33.9656 99.64ZM36.4499 99.0739C36.771 98.888 37.0245 98.626 37.2104 98.288C37.3963 97.95 37.4892 97.5529 37.4892 97.105C37.4892 96.6572 37.3963 96.2769 37.2104 95.9474C37.0245 95.6178 36.771 95.3559 36.4499 95.1784C36.1288 95.001 35.7823 94.908 35.4021 94.908C35.0218 94.908 34.6669 95.001 34.3543 95.1784C34.0332 95.3559 33.7797 95.6178 33.5938 95.9474C33.4079 96.2769 33.3149 96.6656 33.3149 97.105C33.3149 97.5444 33.4079 97.95 33.5938 98.288C33.7797 98.626 34.0332 98.888 34.3543 99.0739C34.6754 99.2598 35.0218 99.3443 35.4021 99.3443C35.7823 99.3443 36.1372 99.2513 36.4499 99.0739Z" fill="white"/>
<path d="M42.6284 99.7246C42.2735 99.5472 42.0031 99.3021 41.8088 98.981C41.6144 98.6599 41.5215 98.2881 41.5215 97.8656V94.3589H42.2313V97.8656C42.2313 98.1698 42.2989 98.4318 42.4256 98.6515C42.5608 98.8712 42.7467 99.0486 43.0002 99.1669C43.2537 99.2852 43.5495 99.3528 43.8875 99.3528C44.2255 99.3528 44.5381 99.2937 44.7916 99.1669C45.0451 99.0486 45.2395 98.8712 45.3662 98.6515C45.5014 98.4318 45.5606 98.1698 45.5606 97.8656V94.3589H46.2028V97.8656C46.2028 98.2881 46.1098 98.6599 45.9239 98.981C45.738 99.3021 45.4676 99.5472 45.1127 99.7246C44.7578 99.9021 44.3438 99.9866 43.8706 99.9866C43.3974 99.9866 42.9749 99.8936 42.62 99.7246" fill="white"/>
<path d="M49.8027 94.3504H50.9435L53.9517 98.9641H53.9686V94.3504H54.6446V99.9105H53.808L50.4956 94.8659H50.4787V99.9105H49.8027V94.3504Z" fill="white"/>
<path d="M59.6208 94.9842H57.7871V94.3504H62.1726V94.9842H60.3305V99.9105H59.6208V94.9842Z" fill="white"/>
<path d="M66.6538 95.0011L64.6596 99.9021H63.916L66.2651 94.3504H67.1101L69.4592 99.9021H68.6311L66.6707 95.0011H66.6538ZM65.0737 98.5585L65.2765 98.0346H67.9973L68.2086 98.5585H65.0821H65.0737Z" fill="white"/>
<path d="M73.3602 94.3504H72.6504V99.9021H73.3602V94.3504Z" fill="white"/>
<path d="M77.0283 94.3504H78.1606L81.1772 98.9641H81.1941V94.3504H81.8701V99.9105H81.0336L77.7128 94.8659H77.6959V99.9105H77.0283V94.3504Z" fill="white"/>
<path d="M89.7197 94.3521H92.0266C92.4829 94.3521 92.8631 94.4113 93.1758 94.538C93.4884 94.6648 93.725 94.8422 93.8771 95.0788C94.0292 95.3154 94.1053 95.5943 94.1053 95.9238C94.1053 96.3041 94.0208 96.6083 93.8433 96.8364C93.6659 97.073 93.3955 97.2082 93.0321 97.2505V97.2674C93.2856 97.2927 93.4884 97.3688 93.6405 97.4786C93.7926 97.5885 93.9025 97.7406 93.9701 97.918C94.0377 98.0955 94.0715 98.3067 94.0715 98.5517V99.8953H93.3448V98.5517C93.3448 98.3405 93.311 98.1715 93.2349 98.0279C93.1589 97.8842 93.0406 97.7744 92.8716 97.6983C92.7026 97.6223 92.466 97.58 92.1702 97.58H90.4295V99.8953H89.7197V94.3437V94.3521ZM92.8124 96.9463C93.0237 96.8618 93.1758 96.735 93.2687 96.5745C93.3617 96.4139 93.4124 96.2196 93.4124 95.9999C93.4124 95.7886 93.3617 95.6112 93.2603 95.4675C93.1589 95.3154 92.9983 95.2056 92.7955 95.1295C92.5927 95.0535 92.3308 95.0112 92.0266 95.0112H90.4295V97.0899H92.0181C92.3477 97.0899 92.6096 97.0477 92.8209 96.9547" fill="white"/>
<path d="M97.5449 94.3504H101.229V94.9926H98.2547V96.8516H100.663V97.3755H98.2547V99.2683H101.305V99.9105H97.5449V94.3504Z" fill="white"/>
<path d="M105.226 99.7245C104.896 99.5471 104.66 99.3105 104.525 99.0232C104.389 98.7359 104.322 98.4064 104.313 98.043V98.0261H104.973C104.973 98.305 105.023 98.55 105.125 98.7528C105.226 98.9556 105.395 99.1162 105.632 99.226C105.868 99.3358 106.172 99.395 106.553 99.395C106.958 99.395 107.279 99.3528 107.516 99.2598C107.753 99.1669 107.922 99.0401 108.023 98.888C108.124 98.7359 108.175 98.5585 108.175 98.3726C108.175 98.1698 108.124 98.0177 108.031 97.9078C107.938 97.798 107.769 97.7135 107.524 97.6543C107.279 97.5867 106.908 97.5276 106.401 97.46C105.877 97.3924 105.471 97.3079 105.175 97.2149C104.88 97.1135 104.66 96.9699 104.508 96.7755C104.356 96.5812 104.288 96.3192 104.288 95.9812C104.288 95.6432 104.381 95.3644 104.567 95.1109C104.753 94.8574 105.015 94.663 105.353 94.5194C105.691 94.3757 106.079 94.3081 106.519 94.3081C107.034 94.3081 107.448 94.3842 107.761 94.5363C108.074 94.6884 108.31 94.9081 108.462 95.2038C108.614 95.4996 108.682 95.8629 108.682 96.3023H108.023C108.023 95.9812 107.964 95.7193 107.846 95.5165C107.727 95.3137 107.558 95.1616 107.339 95.0602C107.119 94.9588 106.848 94.9081 106.527 94.9081C106.232 94.9081 105.961 94.9503 105.733 95.0348C105.496 95.1193 105.319 95.2376 105.184 95.3897C105.049 95.5418 104.989 95.7193 104.989 95.9136C104.989 96.1249 105.032 96.2939 105.116 96.4037C105.201 96.522 105.37 96.615 105.606 96.6826C105.843 96.7502 106.215 96.8178 106.713 96.8769C107.246 96.9445 107.66 97.029 107.955 97.122C108.26 97.2149 108.488 97.3586 108.64 97.5445C108.792 97.7304 108.868 97.9923 108.868 98.3219C108.868 98.6345 108.792 98.9134 108.648 99.1584C108.505 99.4119 108.26 99.6147 107.913 99.7668C107.567 99.9189 107.11 99.9949 106.536 99.9949C105.961 99.9949 105.53 99.902 105.201 99.7245" fill="white"/>
<path d="M113.397 99.64C112.966 99.4034 112.637 99.0654 112.392 98.6345C112.147 98.1951 112.028 97.6881 112.028 97.1135C112.028 96.5389 112.147 96.0488 112.392 95.6178C112.637 95.1869 112.975 94.8573 113.397 94.6292C113.828 94.401 114.301 94.2827 114.825 94.2827C115.349 94.2827 115.822 94.401 116.253 94.6292C116.684 94.8573 117.014 95.1869 117.259 95.6178C117.504 96.0488 117.622 96.5473 117.622 97.1135C117.622 97.6796 117.495 98.2035 117.259 98.6345C117.014 99.0739 116.676 99.4034 116.253 99.64C115.822 99.8766 115.349 99.9949 114.825 99.9949C114.301 99.9949 113.828 99.8766 113.397 99.64ZM115.873 99.0739C116.194 98.888 116.448 98.626 116.634 98.288C116.819 97.95 116.912 97.5529 116.912 97.105C116.912 96.6572 116.819 96.2769 116.634 95.9474C116.448 95.6178 116.194 95.3559 115.873 95.1784C115.552 95.001 115.206 94.908 114.825 94.908C114.445 94.908 114.09 95.001 113.777 95.1784C113.456 95.3559 113.203 95.6178 113.017 95.9474C112.831 96.2769 112.738 96.6656 112.738 97.105C112.738 97.5444 112.831 97.95 113.017 98.288C113.203 98.626 113.456 98.888 113.777 99.0739C114.099 99.2598 114.445 99.3443 114.825 99.3443C115.206 99.3443 115.56 99.2513 115.873 99.0739Z" fill="white"/>
<path d="M120.997 94.3521H123.304C123.76 94.3521 124.14 94.4113 124.453 94.538C124.766 94.6648 125.002 94.8422 125.154 95.0788C125.307 95.3154 125.383 95.5943 125.383 95.9238C125.383 96.3041 125.298 96.6083 125.121 96.8364C124.943 97.073 124.673 97.2082 124.309 97.2505V97.2674C124.563 97.2927 124.766 97.3688 124.918 97.4786C125.07 97.5885 125.18 97.7406 125.247 97.918C125.315 98.0955 125.349 98.3067 125.349 98.5517V99.8953H124.622V98.5517C124.622 98.3405 124.588 98.1715 124.512 98.0279C124.436 97.8842 124.318 97.7744 124.149 97.6983C123.98 97.6223 123.743 97.58 123.448 97.58H121.707V99.8953H120.997V94.3437V94.3521ZM124.09 96.9463C124.301 96.8618 124.453 96.735 124.546 96.5745C124.639 96.4139 124.69 96.2196 124.69 95.9999C124.69 95.7886 124.639 95.6112 124.538 95.4675C124.436 95.3154 124.276 95.2056 124.073 95.1295C123.87 95.0535 123.608 95.0112 123.304 95.0112H121.707V97.0899H123.295C123.625 97.0899 123.887 97.0477 124.098 96.9547" fill="white"/>
<path d="M130.039 94.9842H128.197V94.3504H132.591V94.9842H130.749V99.9105H130.039V94.9842Z" fill="white"/>
<path d="M65.5408 67.2969H50.6504V69.6775H65.5408V67.2969Z" fill="white"/>
<path d="M64.1346 76.6834H52.5957V79.0639H64.1346V76.6834Z" fill="white"/>
<path d="M65.5408 86.1993H52.3772V88.5798H65.5408V86.1993Z" fill="white"/>
<path d="M50.6504 67.3749L50.6504 88.5798H53.0309L53.0309 67.3749L50.6504 67.3749Z" fill="white"/>
<path d="M72.9205 67.3749V88.5798H75.301V67.3749L72.9205 67.3749Z" fill="white"/>
<path d="M15.0593 67.2969H1.89576V69.6775H15.0593V67.2969Z" fill="white"/>
<path d="M13.6531 76.6834H2.31732V79.0639H13.6531V76.6834Z" fill="white"/>
<path d="M15.0593 86.1993H1.89576V88.5798H15.0593V86.1993Z" fill="white"/>
<path d="M0.168945 67.3031L0.168946 88.5798H2.54948L2.54948 67.3031L0.168945 67.3031Z" fill="white"/>
<path d="M83.6016 80.3493C86.2709 79.5707 87.7868 76.8574 87.7868 74.0981C87.7621 70.4841 85.767 67.3697 82.1253 67.3697H72.9424V69.7503C72.9424 69.7503 79.7329 69.7503 81.9711 69.7503C84.2094 69.7503 85.2392 71.7129 85.1842 74.0981C85.2336 76.75 84.113 78.1808 81.9711 78.1808H72.9424V88.6516H75.3229V80.6785L81.0522 80.6292L85.5429 88.6382H88.4477L83.6736 80.4768L83.6016 80.3493Z" fill="white"/>
<path d="M93.9961 88.6423H96.5616L102.805 71.1306L109.239 88.641H111.953L103.878 67.3748H101.682L93.9961 88.6423Z" fill="white"/>
<path d="M130.838 88.6346H118.13V86.2541H130.838V88.6346Z" fill="white"/>
<path d="M120.502 67.3663L120.488 88.614H118.121L118.121 67.3663H120.502Z" fill="white"/>
<path d="M154.982 73.7455C154.415 72.4504 153.625 71.328 152.614 70.3782C151.596 69.4285 150.4 68.6884 149.025 68.1642C147.649 67.64 146.138 67.3748 144.498 67.3748L138.243 67.3974V69.7553L144.615 69.7327C145.867 69.7327 147.026 69.9424 148.093 70.3679C149.16 70.7934 150.098 71.3917 150.893 72.1564C151.695 72.9273 152.318 73.5975 152.756 74.6274C153.2 75.6573 153.416 76.7859 153.416 77.9947C153.416 79.2035 153.194 80.3321 152.756 81.362C152.312 82.3919 151.695 83.0508 150.893 83.8217C150.091 84.5926 149.16 85.1908 148.093 85.6102C147.026 86.0357 145.867 86.2454 144.615 86.2454H140.618V69.7002H138.237L138.237 88.6146H144.492C146.132 88.6146 147.649 88.3494 149.031 87.8252C150.418 87.301 151.615 86.5609 152.632 85.6112C153.65 84.6614 154.433 83.539 154.988 82.2439C155.543 80.9488 155.821 79.5303 155.821 77.9947C155.821 76.4591 155.537 75.0406 154.976 73.7455" fill="white"/>
<path fill-rule="evenodd" clip-rule="evenodd" d="M22.458 67.3757V88.6361H24.8385V71.4581L32.7449 81.6587L40.8671 71.2546V88.6361H43.2476V67.3757H41.2201L32.8559 77.8843L24.4867 67.3757H22.458Z" fill="white"/>
<defs>
<clipPath id="clip0_476_15963">
<rect width="104.232" height="53.0412" fill="white" transform="translate(23.2754 0.5)"/>
</clipPath>
</defs>
</svg>
