<svg width="218" height="120" viewBox="0 0 218 120" fill="none" xmlns="http://www.w3.org/2000/svg">
<g clip-path="url(#clip0_187_2688)">
<path d="M165.236 56.6645L143.763 29.7671L139.335 31.7373L113.884 0L95.1459 21.4152L79.6782 27.7255L55.5722 54.6515L52.7651 56.6645H165.236ZM60.0866 54.3374L85.3357 36.263L110.512 7.4953L98.8212 39.9464L82.1524 46.4566L72.9354 54.3231H60.0866V54.3374ZM123.202 54.3374L132.824 48.4839L143.459 33.2363L160.302 54.3374H123.202ZM139.958 34.0215L131.059 46.785L118.659 54.3231H105.029L123.159 41.4597L139.958 34.0073V34.0215ZM121.885 39.4753L100.934 54.3374H76.6251L83.5126 48.4696L100.818 41.7024L114.26 4.31158L137.049 32.7366L121.885 39.461V39.4753ZM81.183 29.6386L91.7022 25.3413L83.6428 34.5498L64.5577 48.2127L81.1975 29.6243L81.183 29.6386Z" fill="#23262D"/>
</g>
<path d="M53.5249 114.265H54.7269L56.4783 118.944H56.4869L58.2555 114.265H59.4317V119.914H58.702L58.7191 114.754H58.702L56.7531 119.914H56.1692L54.2117 114.754H54.1946L54.2117 119.914H53.5249V114.265Z" fill="#23262D"/>
<path d="M64.2566 119.639C63.8187 119.399 63.4839 119.056 63.2349 118.618C62.9859 118.171 62.8657 117.656 62.8657 117.072C62.8657 116.489 62.9859 115.991 63.2349 115.553C63.4839 115.115 63.8273 114.78 64.2566 114.548C64.6944 114.316 65.1752 114.196 65.7075 114.196C66.2398 114.196 66.7206 114.316 67.1585 114.548C67.5964 114.78 67.9312 115.115 68.1802 115.553C68.4291 115.991 68.5493 116.497 68.5493 117.072C68.5493 117.648 68.4206 118.18 68.1802 118.618C67.9312 119.064 67.5878 119.399 67.1585 119.639C66.7206 119.88 66.2398 120 65.7075 120C65.1752 120 64.6944 119.88 64.2566 119.639ZM66.7807 119.064C67.107 118.875 67.3645 118.609 67.5534 118.266C67.7423 117.922 67.8367 117.519 67.8367 117.064C67.8367 116.609 67.7423 116.222 67.5534 115.888C67.3645 115.553 67.107 115.287 66.7807 115.106C66.4545 114.926 66.1025 114.831 65.7161 114.831C65.3298 114.831 64.9692 114.926 64.6515 115.106C64.3253 115.287 64.0677 115.553 63.8788 115.888C63.6899 116.222 63.5955 116.617 63.5955 117.064C63.5955 117.51 63.6899 117.922 63.8788 118.266C64.0677 118.609 64.3253 118.875 64.6515 119.064C64.9778 119.253 65.3298 119.339 65.7161 119.339C66.1025 119.339 66.4631 119.244 66.7807 119.064Z" fill="#23262D"/>
<path d="M73.0656 119.725C72.705 119.545 72.4303 119.296 72.2328 118.97C72.0354 118.643 71.9409 118.266 71.9409 117.836V114.273H72.6621V117.836C72.6621 118.145 72.7308 118.412 72.8596 118.635C72.9969 118.858 73.1858 119.038 73.4434 119.159C73.701 119.279 74.0014 119.347 74.3449 119.347C74.6883 119.347 75.006 119.287 75.2635 119.159C75.5211 119.038 75.7186 118.858 75.8473 118.635C75.9847 118.412 76.0448 118.145 76.0448 117.836V114.273H76.6973V117.836C76.6973 118.266 76.6029 118.643 76.414 118.97C76.2251 119.296 75.9504 119.545 75.5898 119.725C75.2292 119.905 74.8085 119.991 74.3277 119.991C73.8469 119.991 73.4176 119.897 73.057 119.725" fill="#23262D"/>
<path d="M80.3545 114.265H81.5135L84.57 118.953H84.5872V114.265H85.274V119.914H84.424L81.0585 114.789H81.0413V119.914H80.3545V114.265Z" fill="#23262D"/>
<path d="M90.3308 114.909H88.4678V114.265H92.9237V114.909H91.052V119.914H90.3308V114.909Z" fill="#23262D"/>
<path d="M97.4741 114.926L95.4479 119.906H94.6924L97.0792 114.265H97.9377L100.324 119.906H99.4831L97.4913 114.926H97.4741ZM95.8686 118.54L96.0747 118.008H98.8392L99.0538 118.54H95.8772H95.8686Z" fill="#23262D"/>
<path d="M104.291 114.265H103.57V119.906H104.291V114.265Z" fill="#23262D"/>
<path d="M108.017 114.265H109.168L112.233 118.953H112.25V114.265H112.937V119.914H112.087L108.713 114.789H108.695V119.914H108.017V114.265Z" fill="#23262D"/>
<path d="M120.912 114.265H123.256C123.72 114.265 124.106 114.325 124.424 114.454C124.741 114.582 124.982 114.763 125.136 115.003C125.291 115.244 125.368 115.527 125.368 115.862C125.368 116.248 125.282 116.557 125.102 116.789C124.922 117.029 124.647 117.167 124.278 117.21V117.227C124.535 117.253 124.741 117.33 124.896 117.441C125.05 117.553 125.162 117.708 125.231 117.888C125.299 118.068 125.334 118.283 125.334 118.532V119.897H124.595V118.532C124.595 118.317 124.561 118.145 124.484 118C124.406 117.854 124.286 117.742 124.115 117.665C123.943 117.587 123.702 117.544 123.402 117.544H121.633V119.897H120.912V114.256V114.265ZM124.054 116.901C124.269 116.815 124.424 116.686 124.518 116.523C124.612 116.36 124.664 116.162 124.664 115.939C124.664 115.724 124.612 115.544 124.509 115.398C124.406 115.244 124.243 115.132 124.037 115.055C123.831 114.977 123.565 114.934 123.256 114.934H121.633V117.047H123.247C123.582 117.047 123.848 117.004 124.063 116.909" fill="#23262D"/>
<path d="M128.863 114.265H132.606V114.917H129.584V116.806H132.031V117.338H129.584V119.262H132.683V119.914H128.863V114.265Z" fill="#23262D"/>
<path d="M136.667 119.725C136.332 119.545 136.092 119.305 135.954 119.013C135.817 118.721 135.748 118.386 135.74 118.017V118H136.409C136.409 118.283 136.461 118.532 136.564 118.738C136.667 118.944 136.839 119.107 137.079 119.219C137.319 119.33 137.628 119.39 138.015 119.39C138.427 119.39 138.753 119.347 138.994 119.253C139.234 119.159 139.406 119.03 139.509 118.875C139.612 118.721 139.663 118.54 139.663 118.352C139.663 118.146 139.612 117.991 139.517 117.879C139.423 117.768 139.251 117.682 139.002 117.622C138.753 117.553 138.375 117.493 137.86 117.424C137.328 117.356 136.916 117.27 136.615 117.175C136.315 117.072 136.092 116.926 135.937 116.729C135.783 116.531 135.714 116.265 135.714 115.922C135.714 115.578 135.808 115.295 135.997 115.038C136.186 114.78 136.452 114.583 136.796 114.437C137.139 114.291 137.534 114.222 137.98 114.222C138.504 114.222 138.925 114.299 139.243 114.454C139.56 114.608 139.801 114.831 139.955 115.132C140.11 115.432 140.178 115.802 140.178 116.248H139.509C139.509 115.922 139.449 115.656 139.328 115.45C139.208 115.244 139.036 115.089 138.813 114.986C138.59 114.883 138.315 114.831 137.989 114.831C137.689 114.831 137.414 114.874 137.182 114.96C136.942 115.046 136.761 115.166 136.624 115.321C136.487 115.475 136.426 115.656 136.426 115.853C136.426 116.068 136.469 116.24 136.555 116.351C136.641 116.471 136.813 116.566 137.053 116.634C137.294 116.703 137.671 116.772 138.178 116.832C138.719 116.901 139.139 116.986 139.44 117.081C139.749 117.175 139.981 117.321 140.135 117.51C140.29 117.699 140.367 117.965 140.367 118.3C140.367 118.618 140.29 118.901 140.144 119.15C139.998 119.408 139.749 119.614 139.397 119.768C139.045 119.923 138.581 120 137.998 120C137.414 120 136.976 119.906 136.641 119.725" fill="#23262D"/>
<path d="M144.969 119.639C144.532 119.399 144.197 119.056 143.948 118.618C143.699 118.171 143.579 117.656 143.579 117.072C143.579 116.489 143.699 115.991 143.948 115.553C144.197 115.115 144.54 114.78 144.969 114.548C145.407 114.316 145.888 114.196 146.42 114.196C146.953 114.196 147.434 114.316 147.871 114.548C148.309 114.78 148.644 115.115 148.893 115.553C149.142 115.991 149.262 116.497 149.262 117.072C149.262 117.648 149.133 118.18 148.893 118.618C148.644 119.064 148.301 119.399 147.871 119.639C147.434 119.88 146.953 120 146.42 120C145.888 120 145.407 119.88 144.969 119.639ZM147.485 119.064C147.811 118.875 148.069 118.609 148.258 118.266C148.447 117.922 148.541 117.519 148.541 117.064C148.541 116.609 148.447 116.222 148.258 115.888C148.069 115.553 147.811 115.287 147.485 115.106C147.159 114.926 146.807 114.831 146.42 114.831C146.034 114.831 145.673 114.926 145.356 115.106C145.03 115.287 144.772 115.553 144.583 115.888C144.394 116.222 144.3 116.617 144.3 117.064C144.3 117.51 144.394 117.922 144.583 118.266C144.772 118.609 145.03 118.875 145.356 119.064C145.682 119.253 146.034 119.339 146.42 119.339C146.807 119.339 147.167 119.244 147.485 119.064Z" fill="#23262D"/>
<path d="M152.696 114.265H155.04C155.504 114.265 155.89 114.325 156.208 114.454C156.525 114.582 156.766 114.763 156.92 115.003C157.075 115.244 157.152 115.527 157.152 115.862C157.152 116.248 157.066 116.557 156.886 116.789C156.706 117.029 156.431 117.167 156.062 117.21V117.227C156.319 117.253 156.525 117.33 156.68 117.441C156.835 117.553 156.946 117.708 157.015 117.888C157.083 118.068 157.118 118.283 157.118 118.532V119.897H156.379V118.532C156.379 118.317 156.345 118.145 156.268 118C156.191 117.854 156.07 117.742 155.899 117.665C155.727 117.587 155.487 117.544 155.186 117.544H153.417V119.897H152.696V114.256V114.265ZM155.839 116.901C156.053 116.815 156.208 116.686 156.302 116.523C156.397 116.36 156.448 116.162 156.448 115.939C156.448 115.724 156.397 115.544 156.294 115.398C156.191 115.244 156.027 115.132 155.821 115.055C155.615 114.977 155.349 114.934 155.04 114.934H153.417V117.047H155.032C155.366 117.047 155.633 117.004 155.847 116.909" fill="#23262D"/>
<path d="M161.882 114.909H160.011V114.265H164.475V114.909H162.604V119.914H161.882V114.909Z" fill="#23262D"/>
<path d="M91.6615 75.5527H70.9321V78.8667H91.6615V75.5527Z" fill="#23262D"/>
<path d="M89.7039 88.6198H73.6403V91.9338H89.7039V88.6198Z" fill="#23262D"/>
<path d="M91.6615 101.867H73.3361V105.181H91.6615V101.867Z" fill="#23262D"/>
<path d="M70.9321 75.6613L70.9321 105.181H74.2461L74.2461 75.6612L70.9321 75.6613Z" fill="#23262D"/>
<path d="M101.935 75.6613V105.181H105.249V75.6612L101.935 75.6613Z" fill="#23262D"/>
<path d="M21.3851 75.5527H3.05971V78.8667H21.3851V75.5527Z" fill="#23262D"/>
<path d="M19.4275 88.6198H3.64658V91.9338H19.4275V88.6198Z" fill="#23262D"/>
<path d="M21.3851 101.867H3.05971V105.181H21.3851V101.867Z" fill="#23262D"/>
<path d="M0.655762 75.5613L0.655763 105.181H3.96978L3.96978 75.5613L0.655762 75.5613Z" fill="#23262D"/>
<path d="M116.803 93.7224C120.519 92.6385 122.63 88.8612 122.63 85.0199C122.595 79.9888 119.818 75.6531 114.748 75.6531H101.964V78.9671C101.964 78.9671 111.418 78.9671 114.534 78.9671C117.65 78.9671 119.083 81.6993 119.007 85.0199C119.075 88.7117 117.515 90.7035 114.534 90.7035H101.964V105.28H105.278V94.1807L113.254 94.112L119.506 105.262H123.55L116.904 93.8998L116.803 93.7224Z" fill="#23262D"/>
<path d="M131.276 105.268H134.848L143.539 80.8898L152.497 105.267H156.274L145.033 75.6613H141.977L131.276 105.268Z" fill="#23262D"/>
<path d="M182.563 105.259H164.872V101.945H182.563V105.259Z" fill="#23262D"/>
<path d="M168.174 75.6503L168.155 105.23H164.86L164.86 75.6503H168.174Z" fill="#23262D"/>
<path d="M216.177 84.5301C215.387 82.7271 214.288 81.1646 212.88 79.8424C211.464 78.5202 209.798 77.49 207.884 76.7602C205.969 76.0304 203.865 75.6613 201.582 75.6613L192.874 75.6928V78.9753L201.745 78.9437C203.488 78.9437 205.102 79.2356 206.587 79.828C208.072 80.4204 209.377 81.2532 210.485 82.3178C211.601 83.391 212.468 84.3241 213.078 85.7578C213.696 87.1916 213.996 88.7628 213.996 90.4455C213.996 92.1283 213.687 93.6995 213.078 95.1332C212.46 96.567 211.601 97.4843 210.485 98.5575C209.369 99.6307 208.072 100.463 206.587 101.047C205.102 101.64 203.488 101.932 201.745 101.932H196.18V78.8986H192.866L192.866 105.23H201.573C203.857 105.23 205.969 104.861 207.892 104.131C209.824 103.401 211.489 102.371 212.906 101.049C214.323 99.7265 215.413 98.1639 216.186 96.361C216.958 94.558 217.345 92.5833 217.345 90.4455C217.345 88.3077 216.95 86.3331 216.169 84.5301" fill="#23262D"/>
<path fill-rule="evenodd" clip-rule="evenodd" d="M31.688 75.6613V105.258H35.002V81.3446L46.0087 95.545L57.3158 81.0612V105.258H60.6298V75.6613H57.8073L46.1632 90.2907L34.5122 75.6613H31.688Z" fill="#23262D"/>
<defs>
<clipPath id="clip0_187_2688">
<rect width="112.47" height="56.6645" fill="white" transform="translate(52.7651)"/>
</clipPath>
</defs>
</svg>
