<svg width="156" height="100" viewBox="0 0 156 100" fill="none" xmlns="http://www.w3.org/2000/svg">
<g clip-path="url(#clip0_496_24623)">
<path d="M127.513 53.0412L107.614 27.8637L103.51 29.7079L79.9231 0L62.5577 20.0458L48.223 25.9527L25.8827 51.1569L23.2812 53.0412H127.513ZM30.0665 50.8629L53.4661 33.9443L76.7986 7.01604L65.9637 37.3921L50.516 43.4861L41.9741 50.8496H30.0665V50.8629ZM88.5588 50.8629L97.4761 45.3837L107.332 31.1111L122.941 50.8629H88.5588ZM104.087 31.8461L95.8402 43.7934L84.3482 50.8496H71.7164L88.5186 38.8087L104.087 31.8328V31.8461ZM87.3385 36.9511L67.9215 50.8629H45.3935L51.7765 45.3704L67.8143 39.0359L80.2717 4.03589L101.392 30.6434L87.3385 36.9378V36.9511ZM49.6175 27.7434L59.3663 23.7209L51.8972 32.3406L34.21 45.1298L49.631 27.7301L49.6175 27.7434Z" fill="#2A2A2A"/>
</g>
<path d="M23.4062 93.8506H24.5892L26.313 98.4558H26.3215L28.0622 93.8506H29.2198V99.4107H28.5016L28.5185 94.3322H28.5016L26.5834 99.4107H26.0088L24.0822 94.3322H24.0653L24.0822 99.4107H23.4062V93.8506Z" fill="#2A2A2A"/>
<path d="M33.9705 99.14C33.5395 98.9034 33.21 98.5654 32.9649 98.1344C32.7199 97.695 32.6016 97.188 32.6016 96.6134C32.6016 96.0389 32.7199 95.5488 32.9649 95.1178C33.21 94.6869 33.548 94.3573 33.9705 94.1292C34.4014 93.901 34.8746 93.7827 35.3985 93.7827C35.9224 93.7827 36.3956 93.901 36.8265 94.1292C37.2575 94.3573 37.587 94.6869 37.8321 95.1178C38.0771 95.5488 38.1954 96.0473 38.1954 96.6134C38.1954 97.1796 38.0687 97.7035 37.8321 98.1344C37.587 98.5738 37.249 98.9034 36.8265 99.14C36.3956 99.3766 35.9224 99.4949 35.3985 99.4949C34.8746 99.4949 34.4014 99.3766 33.9705 99.14ZM36.4547 98.5738C36.7758 98.3879 37.0293 98.126 37.2152 97.788C37.4011 97.45 37.4941 97.0528 37.4941 96.605C37.4941 96.1572 37.4011 95.7769 37.2152 95.4474C37.0293 95.1178 36.7758 94.8559 36.4547 94.6784C36.1336 94.501 35.7872 94.408 35.4069 94.408C35.0267 94.408 34.6718 94.501 34.3592 94.6784C34.0381 94.8559 33.7846 95.1178 33.5987 95.4474C33.4128 95.7769 33.3198 96.1656 33.3198 96.605C33.3198 97.0444 33.4128 97.45 33.5987 97.788C33.7846 98.126 34.0381 98.3879 34.3592 98.5738C34.6802 98.7597 35.0267 98.8442 35.4069 98.8442C35.7872 98.8442 36.1421 98.7513 36.4547 98.5738Z" fill="#2A2A2A"/>
<path d="M42.6343 99.2246C42.2794 99.0472 42.009 98.8021 41.8146 98.481C41.6203 98.1599 41.5273 97.7881 41.5273 97.3656V93.8589H42.2371V97.3656C42.2371 97.6698 42.3047 97.9318 42.4315 98.1515C42.5667 98.3712 42.7526 98.5486 43.0061 98.6669C43.2596 98.7852 43.5553 98.8528 43.8933 98.8528C44.2313 98.8528 44.544 98.7937 44.7975 98.6669C45.051 98.5486 45.2453 98.3712 45.3721 98.1515C45.5073 97.9318 45.5664 97.6698 45.5664 97.3656V93.8589H46.2086V97.3656C46.2086 97.7881 46.1157 98.1599 45.9298 98.481C45.7439 98.8021 45.4735 99.0472 45.1186 99.2246C44.7637 99.4021 44.3496 99.4866 43.8764 99.4866C43.4032 99.4866 42.9807 99.3936 42.6258 99.2246" fill="#2A2A2A"/>
<path d="M49.8086 93.8506H50.9493L53.9575 98.4643H53.9744V93.8506H54.6504V99.4107H53.8139L50.5015 94.366H50.4846V99.4107H49.8086V93.8506Z" fill="#2A2A2A"/>
<path d="M59.6266 94.4843H57.793V93.8506H62.1785V94.4843H60.3364V99.4107H59.6266V94.4843Z" fill="#2A2A2A"/>
<path d="M66.6597 94.5012L64.6655 99.4022H63.9219L66.271 93.8506H67.116L69.4651 99.4022H68.637L66.6766 94.5012H66.6597ZM65.0795 98.0587L65.2823 97.5348H68.0032L68.2145 98.0587H65.088H65.0795Z" fill="#2A2A2A"/>
<path d="M73.366 93.8506H72.6562V99.4022H73.366V93.8506Z" fill="#2A2A2A"/>
<path d="M77.0352 93.8506H78.1674L81.1841 98.4643H81.201V93.8506H81.877V99.4107H81.0404L77.7196 94.366H77.7027V99.4107H77.0352V93.8506Z" fill="#2A2A2A"/>
<path d="M89.7266 93.8522H92.0334C92.4897 93.8522 92.8699 93.9113 93.1826 94.0381C93.4952 94.1648 93.7318 94.3423 93.8839 94.5789C94.036 94.8155 94.1121 95.0943 94.1121 95.4239C94.1121 95.8041 94.0276 96.1083 93.8501 96.3365C93.6727 96.5731 93.4023 96.7083 93.0389 96.7505V96.7674C93.2924 96.7928 93.4952 96.8688 93.6473 96.9787C93.7994 97.0885 93.9093 97.2406 93.9769 97.4181C94.0445 97.5955 94.0783 97.8068 94.0783 98.0518V99.3954H93.3516V98.0518C93.3516 97.8406 93.3178 97.6716 93.2417 97.5279C93.1657 97.3843 93.0474 97.2744 92.8784 97.1984C92.7094 97.1223 92.4728 97.0801 92.1771 97.0801H90.4364V99.3954H89.7266V93.8438V93.8522ZM92.8192 96.4463C93.0305 96.3618 93.1826 96.2351 93.2755 96.0745C93.3685 95.914 93.4192 95.7196 93.4192 95.4999C93.4192 95.2887 93.3685 95.1112 93.2671 94.9676C93.1657 94.8155 93.0051 94.7056 92.8023 94.6296C92.5995 94.5535 92.3376 94.5113 92.0334 94.5113H90.4364V96.59H92.025C92.3545 96.59 92.6164 96.5477 92.8277 96.4548" fill="#2A2A2A"/>
<path d="M97.5508 93.8506H101.235V94.4928H98.2606V96.3518H100.669V96.8757H98.2606V98.7685H101.311V99.4107H97.5508V93.8506Z" fill="#2A2A2A"/>
<path d="M105.231 99.2245C104.901 99.0471 104.665 98.8105 104.53 98.5232C104.394 98.2359 104.327 97.9063 104.318 97.543V97.5261H104.977C104.977 97.8049 105.028 98.05 105.13 98.2528C105.231 98.4556 105.4 98.6161 105.637 98.726C105.873 98.8358 106.177 98.895 106.558 98.895C106.963 98.895 107.284 98.8527 107.521 98.7598C107.757 98.6668 107.926 98.5401 108.028 98.388C108.129 98.2359 108.18 98.0584 108.18 97.8725C108.18 97.6697 108.129 97.5176 108.036 97.4078C107.943 97.2979 107.774 97.2134 107.529 97.1543C107.284 97.0867 106.912 97.0275 106.405 96.9599C105.882 96.8923 105.476 96.8078 105.18 96.7149C104.884 96.6135 104.665 96.4698 104.513 96.2755C104.361 96.0811 104.293 95.8192 104.293 95.4812C104.293 95.1432 104.386 94.8644 104.572 94.6109C104.758 94.3574 105.02 94.163 105.358 94.0194C105.696 93.8757 106.084 93.8081 106.524 93.8081C107.039 93.8081 107.453 93.8842 107.766 94.0363C108.079 94.1884 108.315 94.4081 108.467 94.7038C108.619 94.9996 108.687 95.3629 108.687 95.8023H108.028C108.028 95.4812 107.969 95.2192 107.85 95.0164C107.732 94.8137 107.563 94.6616 107.343 94.5602C107.124 94.4588 106.853 94.4081 106.532 94.4081C106.236 94.4081 105.966 94.4503 105.738 94.5348C105.501 94.6193 105.324 94.7376 105.189 94.8897C105.053 95.0418 104.994 95.2192 104.994 95.4136C104.994 95.6248 105.037 95.7938 105.121 95.9037C105.206 96.022 105.375 96.1149 105.611 96.1825C105.848 96.2501 106.22 96.3177 106.718 96.3769C107.25 96.4445 107.664 96.529 107.96 96.6219C108.264 96.7149 108.493 96.8585 108.645 97.0444C108.797 97.2303 108.873 97.4923 108.873 97.8218C108.873 98.1345 108.797 98.4133 108.653 98.6584C108.51 98.9119 108.264 99.1147 107.918 99.2668C107.572 99.4189 107.115 99.4949 106.541 99.4949C105.966 99.4949 105.535 99.402 105.206 99.2245" fill="#2A2A2A"/>
<path d="M113.402 99.14C112.971 98.9034 112.642 98.5654 112.397 98.1344C112.151 97.695 112.033 97.188 112.033 96.6134C112.033 96.0389 112.151 95.5488 112.397 95.1178C112.642 94.6869 112.98 94.3573 113.402 94.1292C113.833 93.901 114.306 93.7827 114.83 93.7827C115.354 93.7827 115.827 93.901 116.258 94.1292C116.689 94.3573 117.019 94.6869 117.264 95.1178C117.509 95.5488 117.627 96.0473 117.627 96.6134C117.627 97.1796 117.5 97.7035 117.264 98.1344C117.019 98.5738 116.681 98.9034 116.258 99.14C115.827 99.3766 115.354 99.4949 114.83 99.4949C114.306 99.4949 113.833 99.3766 113.402 99.14ZM115.878 98.5738C116.199 98.3879 116.453 98.126 116.638 97.788C116.824 97.45 116.917 97.0528 116.917 96.605C116.917 96.1572 116.824 95.7769 116.638 95.4474C116.453 95.1178 116.199 94.8559 115.878 94.6784C115.557 94.501 115.21 94.408 114.83 94.408C114.45 94.408 114.095 94.501 113.782 94.6784C113.461 94.8559 113.208 95.1178 113.022 95.4474C112.836 95.7769 112.743 96.1656 112.743 96.605C112.743 97.0444 112.836 97.45 113.022 97.788C113.208 98.126 113.461 98.3879 113.782 98.5738C114.103 98.7597 114.45 98.8442 114.83 98.8442C115.21 98.8442 115.565 98.7513 115.878 98.5738Z" fill="#2A2A2A"/>
<path d="M121.004 93.8522H123.311C123.767 93.8522 124.147 93.9113 124.46 94.0381C124.773 94.1648 125.009 94.3423 125.161 94.5789C125.313 94.8155 125.389 95.0943 125.389 95.4239C125.389 95.8041 125.305 96.1083 125.127 96.3365C124.95 96.5731 124.68 96.7083 124.316 96.7505V96.7674C124.57 96.7928 124.773 96.8688 124.925 96.9787C125.077 97.0885 125.187 97.2406 125.254 97.4181C125.322 97.5955 125.356 97.8068 125.356 98.0518V99.3954H124.629V98.0518C124.629 97.8406 124.595 97.6716 124.519 97.5279C124.443 97.3843 124.325 97.2744 124.156 97.1984C123.987 97.1223 123.75 97.0801 123.454 97.0801H121.714V99.3954H121.004V93.8438V93.8522ZM124.097 96.4463C124.308 96.3618 124.46 96.2351 124.553 96.0745C124.646 95.914 124.697 95.7196 124.697 95.4999C124.697 95.2887 124.646 95.1112 124.544 94.9676C124.443 94.8155 124.282 94.7056 124.08 94.6296C123.877 94.5535 123.615 94.5113 123.311 94.5113H121.714V96.59H123.302C123.632 96.59 123.894 96.5477 124.105 96.4548" fill="#2A2A2A"/>
<path d="M130.045 94.4843H128.203V93.8506H132.597V94.4843H130.755V99.4107H130.045V94.4843Z" fill="#2A2A2A"/>
<path d="M65.5486 66.7969H50.6582V69.1774H65.5486V66.7969Z" fill="#2A2A2A"/>
<path d="M64.1424 76.1833H52.6036V78.5638H64.1424V76.1833Z" fill="#2A2A2A"/>
<path d="M65.5486 85.6992H52.385V88.0798H65.5486V85.6992Z" fill="#2A2A2A"/>
<path d="M50.6582 66.8749L50.6582 88.0798H53.0387L53.0387 66.8749L50.6582 66.8749Z" fill="#2A2A2A"/>
<path d="M72.9283 66.8749V88.0798H75.3088V66.8749L72.9283 66.8749Z" fill="#2A2A2A"/>
<path d="M15.0662 66.7969H1.9026V69.1774H15.0662V66.7969Z" fill="#2A2A2A"/>
<path d="M13.66 76.1833H2.32415V78.5638H13.66V76.1833Z" fill="#2A2A2A"/>
<path d="M15.0662 85.6992H1.9026V88.0798H15.0662V85.6992Z" fill="#2A2A2A"/>
<path d="M0.175781 66.803L0.175782 88.0798H2.55632L2.55631 66.803L0.175781 66.803Z" fill="#2A2A2A"/>
<path d="M83.6084 79.8492C86.2777 79.0706 87.7936 76.3573 87.7936 73.598C87.769 69.9841 85.7738 66.8696 82.1322 66.8696H72.9492V69.2502C72.9492 69.2502 79.7397 69.2502 81.978 69.2502C84.2162 69.2502 85.246 71.2128 85.1911 73.598C85.2404 76.2499 84.1199 77.6807 81.978 77.6807H72.9492V88.1515H75.3298V80.1784L81.0591 80.1291L85.5497 88.1381H88.4545L83.6805 79.9767L83.6084 79.8492Z" fill="#2A2A2A"/>
<path d="M94.0039 88.142H96.5695L102.813 70.6303L109.247 88.1408H111.96L103.886 66.8745H101.69L94.0039 88.142Z" fill="#2A2A2A"/>
<path d="M130.844 88.1345H118.135V85.754H130.844V88.1345Z" fill="#2A2A2A"/>
<path d="M120.507 66.8662L120.494 88.1138H118.127L118.127 66.8662H120.507Z" fill="#2A2A2A"/>
<path d="M154.989 73.2452C154.422 71.9501 153.632 70.8277 152.621 69.8779C151.603 68.9282 150.407 68.1881 149.031 67.6639C147.656 67.1397 146.145 66.8745 144.505 66.8745L138.25 66.8972V69.255L144.622 69.2324C145.874 69.2324 147.033 69.4421 148.1 69.8676C149.167 70.2931 150.104 70.8914 150.9 71.6561C151.702 72.427 152.325 73.0972 152.763 74.1271C153.207 75.157 153.422 76.2856 153.422 77.4944C153.422 78.7032 153.2 79.8318 152.763 80.8617C152.319 81.8916 151.702 82.5505 150.9 83.3214C150.098 84.0923 149.167 84.6905 148.1 85.1099C147.033 85.5354 145.874 85.7451 144.622 85.7451H140.625V69.2H138.244L138.244 88.1143H144.499C146.139 88.1143 147.656 87.8491 149.038 87.3249C150.425 86.8007 151.622 86.0606 152.639 85.1109C153.657 84.1611 154.44 83.0387 154.995 81.7436C155.55 80.4485 155.828 79.03 155.828 77.4944C155.828 75.9588 155.544 74.5403 154.983 73.2452" fill="#2A2A2A"/>
<path fill-rule="evenodd" clip-rule="evenodd" d="M22.4648 66.8755V88.1359H24.8454V70.958L32.7517 81.1585L40.8739 70.7544V88.1359H43.2544V66.8755H41.227L32.8627 77.3842L24.4935 66.8755H22.4648Z" fill="#2A2A2A"/>
<defs>
<clipPath id="clip0_496_24623">
<rect width="104.232" height="53.0412" fill="white" transform="translate(23.2812)"/>
</clipPath>
</defs>
</svg>
