<svg width="2901" height="1477" viewBox="0 0 2901 1477" fill="none" xmlns="http://www.w3.org/2000/svg">
<path d="M2901 1476.75L2347.15 776.12L2232.95 827.44L1576.46 0.746094L1093.15 558.569L694.18 722.941L72.4037 1424.31L0 1476.75H2901ZM188.847 1416.13L840.107 945.327L1489.5 195.984L1187.94 1041.27L758 1210.85L520.262 1415.76H188.847V1416.13ZM1816.81 1416.13L2065 1263.66L2339.31 866.488L2773.73 1416.13H1816.81ZM2248.99 886.941L2019.47 1219.4L1699.62 1415.76H1348.05L1815.69 1080.69L2248.99 886.569V886.941ZM1782.85 1029L1242.43 1416.13H615.431L793.082 1263.29L1239.45 1087.01L1586.16 113.054L2173.98 853.472L1782.85 1028.63V1029ZM732.994 772.773L1004.32 660.837L796.441 900.701L304.17 1256.59L733.367 772.401L732.994 772.773Z" fill="#2A2A2A"/>
</svg>
